<?xml version="1.0" encoding="UTF-8" standalone="no"?>
<!-- Created with Inkscape (http://www.inkscape.org/) -->

<svg
   width="968.60486mm"
   height="988.06927mm"
   viewBox="0 0 968.60486 988.06927"
   version="1.1"
   id="svg5"
   xml:space="preserve"
   xmlns:xlink="http://www.w3.org/1999/xlink"
   xmlns="http://www.w3.org/2000/svg"
   xmlns:svg="http://www.w3.org/2000/svg"><defs
     id="defs2" /><g
     id="layer1"
     transform="translate(279.13105,360.63439)"><path
       id="path17704"
       style="display:inline;fill:none;fill-opacity:1;stroke:#000000;stroke-width:5;stroke-linecap:round;stroke-linejoin:round;stroke-dasharray:10, 10;stroke-dashoffset:0;stroke-opacity:1;paint-order:stroke fill markers"
       d="M -127.55534,608.46098 V 265.56099 l -147.37931,-39.49018 m 961.90843,-520.17554 v 752.28237 m -47.62527,-816.31201 h -897.58646 m 2.646,63.06206 H 641.99449 V 457.2101 l -720.57387,166.97943 -23.94725,-6.73519 2.81275,-383.18656 -121.09277,-30.94995 -45.287,-12.13463" /><path
       style="display:inline;fill:none;fill-opacity:1;stroke:#000000;stroke-width:7.908;stroke-linecap:round;stroke-linejoin:round;stroke-dasharray:none;stroke-opacity:1;paint-order:stroke fill markers"
       d="m -213.68845,-206.46424 522.67153,9e-5 v -87.64058 l 55.44503,-8e-5 v 87.17862 H 641.44358 V 118.07565 H 510.19097 v 153.32906 l -125.18922,6e-5 v 77.46147 h -88.74669 -88.7466 v 159.55515 l -46.7628,30.3287 -0.24329,30.39111 L 33.668505,598.53257 34.197683,537.21626 -11.8264,491.19182 V 279.59008 h -9.16905 v -15.58262 h -51.86182 l -28.50486,-28.5048 -122.09052,-32.71404 v -409.19125 z"
       id="path15494-2" /><path
       style="display:inline;fill:#f1f1f1;fill-opacity:1;stroke:none;stroke-width:7.908;stroke-linecap:round;stroke-linejoin:round;stroke-dasharray:none;stroke-opacity:1;paint-order:stroke fill markers"
       d="m -213.68845,-206.46424 522.67153,9e-5 v -87.64058 l 55.44503,-8e-5 v 87.17862 H 641.44358 V 118.07565 H 510.19097 v 153.32906 l -125.18922,6e-5 v 77.46147 h -88.74669 -88.7466 v 159.55515 l -46.7628,30.3287 -0.24329,30.39111 L 33.668505,598.53257 34.197683,537.21626 -11.8264,491.19182 V 279.59008 h -9.16905 v -15.58262 h -51.86182 l -28.50486,-28.5048 -122.09052,-32.71404 v -409.19125 z"
       id="path2236" /><g
       id="g4877"
       style="opacity:0.1"
       transform="translate(1.19584,0.06738)"><path
         id="rect7785"
         style="display:inline;fill:#99bcae;stroke:#000000;stroke-width:1;stroke-linejoin:bevel;paint-order:stroke fill markers"
         d="M 33.913521,-67.46072 H 149.90851 v 53.133224 H 33.913521 Z m 133.402219,5.66449 h 79.11043 v 41.804244 h -79.11043 z m -223.30662,0 h 79.110349 v 41.804244 H -55.99088 Z m 30.211597,-135.59536 c 0,0 -37.873003,6.72854 -37.604978,53.28875 0.26811,46.560196 37.604978,52.007124 37.604978,52.007124 49.657224,-0.284472 191.244963,-0.525791 240.897893,0 0,0 37.33687,-5.446928 37.60498,-52.007124 0.26802,-46.56021 -37.60498,-53.28875 -37.60498,-53.28875 z m 0,13.48392 H 215.11861 c 0,0 -23.90904,15.09566 -23.90904,38.87365 0,23.7779 23.90904,39.45438 23.90904,39.45438 H -25.779283 c 0,0 23.9091193,-15.67648 23.9091193,-39.45438 0,-23.77799 -23.9091193,-38.87365 -23.9091193,-38.87365 z m 60.015446,10.51983 v 57.28845 H 155.10265 v -57.28845 z" /><path
         id="path16386"
         style="display:inline;opacity:1;fill:#97d175;fill-opacity:1;stroke:none;stroke-width:7.908;stroke-linecap:round;stroke-linejoin:round;stroke-dasharray:none;stroke-opacity:1;paint-order:stroke fill markers"
         d="M 80.948212,397.58987 H 9.8545445 V 289.45259 H 58.12347 c 0,0 7.011827,10.15199 10.816036,13.02069 3.804124,2.8687 12.008706,4.19148 12.008706,4.19148 z m 0,117.49166 V 405.82177 H 9.8545445 v 61.36507 c 0,0 14.2851515,-1.37521 29.8157865,14.15547 15.530721,15.53068 17.330631,32.99087 17.330631,32.99087 z M 106.16413,397.58987 h 71.09376 V 289.45259 h -48.26893 c 0,0 -7.01191,10.15199 -10.81612,13.02069 -3.80413,2.8687 -12.00871,4.19148 -12.00871,4.19148 z m 0,117.49166 V 405.82177 h 71.09376 v 61.36507 c 0,0 -14.28524,-1.37521 -29.81588,14.15547 -15.53063,15.53068 -17.33054,32.99087 -17.33054,32.99087 z M 384.09402,100.88064 h -69.45237 v 36.0326 h 69.45237 V 118.00827 H 484.45738 V 100.88064 Z M 570.51816,-55.164927 V 62.993038 l -19.70095,1.722214 h -18.9094 v 28.780052 l -31.47993,3.439643 V 118.00827 H 640.24774 V -55.164927 Z M 345.01513,16.302949 H 306.53609 V -133.49825 h 38.47904 z m 166.00602,47.366618 v 12.35843 H 384.09402 v 6.094831 l -79.19347,0.139031 -0.92602,65.145481 h -11.47438 l -0.36524,-65.123092 0.0244,-19.60072 m 91.68278,79.943762 h -69.45237 v 91.37845 h 69.45237 z m -170.22253,33.70153 h 87.04003 v 82.28559 H 220.4987 l -6.61464,-6.61464 z m 170.18638,66.1969 h -69.38015 v 106.27314 h 69.38015 z M 390.2587,31.073881 h 57.14842 V -137.46522 H 390.25867 Z M 13.754765,224.21251 c 13.989475,6.9e-4 27.979035,0 41.968681,0 -4.218054,-5.92888 -4.452242,-14.52935 -0.163597,-20.48754 1.611581,-2.31415 3.818809,-4.21547 6.360874,-5.44018 -0.03006,-1.98686 -0.01031,-3.97398 -0.01374,-5.96093 -5.165113,-2.67322 -9.077958,-7.91813 -9.572528,-13.78498 -0.379665,-3.77726 0.48332,-7.69724 2.550997,-10.89471 -13.710201,-0.053 -27.420487,-0.0427 -41.130773,-0.047 v 56.61328 z m 127.289015,-56.60346 -8.07224,0.0333 c 3.36228,5.05521 3.71155,12.00004 0.64185,17.27666 -1.73052,3.15722 -4.4379,5.78037 -7.66725,7.37765 0,2.0072 -0.0103,4.01431 -0.0103,6.02151 6.00697,3.17671 10.00956,9.88825 9.69559,16.71122 -0.093,3.24661 -1.05089,6.49244 -2.88309,9.18719 13.77985,6.9e-4 27.55987,0 41.3398,0 v -56.61909 c -11.01493,0 -22.02994,0.009 -33.04496,0.0102 z M -17.7316,180.163 h -62.865555 l -22.958535,13.25517 v 41.74972 l 29.817071,29.81715 h 51.641427 v 0 l -0.09412,-37.27657 h 4.459714 z M 59.670154,64.855434 V 91.10113 h 23.895164 l 5.514384,-5.07937 V 64.855434 Z m 38.599939,0 V 86.02176 l 5.514387,5.07937 h 23.89516 V 64.855434 Z M 59.670154,99.56766 v 27.93996 h 29.409548 v -22.85991 l -5.514384,-5.08005 z m 44.114326,0 -5.514387,5.08005 v 22.85991 H 127.67964 V 99.56766 Z M -43.298037,64.855349 V 91.10109 h 22.013155 l 5.080065,-5.07938 V 64.855349 Z m 35.559765,0 V 86.02171 l 5.080064,5.07938 H 19.35495 V 64.855349 Z M -43.298037,99.56763 v 27.94001 h 27.09322 V 104.6477 l -5.080065,-5.08007 z m 40.639829,0 -5.080064,5.08007 v 22.85994 H 19.35495 V 99.56763 Z M 167.97111,64.855299 V 91.10104 h 22.01315 l 5.08007,-5.07938 V 64.855299 Z m 35.55976,0 V 86.02166 l 5.08007,5.07938 h 22.01315 V 64.855299 Z M 167.97111,99.56758 v 27.94001 h 27.09322 v -22.85994 l -5.08007,-5.08007 z m 40.63983,0 -5.08007,5.08007 v 22.85994 h 27.09322 V 99.56758 Z M -79.647777,8.16443 V 29.6898 H -45.5558 v 20.302631 l 66.885747,-8.5e-5 V 29.6898 H 165.71361 v 20.302546 h 28.65755 V 8.16443 H -6.23782 V 49.992346 H -17.318789 V 8.16443 Z m 285.023907,0 v 41.827916 l 27.22322,8.5e-5 V 29.6898 h 34.09198 V 8.16443 Z m 8.2434,168.16439 h 87.04003 v 82.28559 h -80.16089 l -6.61464,-6.61464 z M 13.754765,224.21251 c 13.989475,6.9e-4 27.979035,0 41.968681,0 -4.218054,-5.92888 -4.452242,-14.52935 -0.163597,-20.48754 1.611581,-2.31415 3.818809,-4.21547 6.360874,-5.44018 -0.03006,-1.98686 -0.01031,-3.97398 -0.01374,-5.96093 -5.165113,-2.67322 -9.077958,-7.91813 -9.572528,-13.78498 -0.379665,-3.77726 0.48332,-7.69724 2.550997,-10.89471 -13.710201,-0.053 -27.420487,-0.0427 -41.130773,-0.047 v 56.61328 z m 127.289015,-56.60346 -8.07224,0.0333 c 3.36228,5.05521 3.71155,12.00004 0.64185,17.27666 -1.73052,3.15722 -4.4379,5.78037 -7.66725,7.37765 0,2.0072 -0.0103,4.01431 -0.0103,6.02151 6.00697,3.17671 10.00956,9.88825 9.69559,16.71122 -0.093,3.24661 -1.05089,6.49244 -2.88309,9.18719 13.77985,6.9e-4 27.55987,0 41.3398,0 v -56.61909 c -11.01493,0 -22.02994,0.009 -33.04496,0.0102 z M -17.7316,180.163 h -62.865557 l -22.958533,13.25517 v 41.74972 l 29.817073,29.81715 h 51.641425 v 0 l -0.09412,-37.27657 h 4.459714 z" /><path
         id="path13677"
         style="display:inline;fill:#9799ab;fill-opacity:1;stroke:none;stroke-width:1;stroke-linecap:round;stroke-linejoin:round;stroke-opacity:1;paint-order:stroke fill markers"
         d="M 384.09402,100.88064 V 76.027997 h 152.31713 c 6.60837,0 14.37283,-4.704428 14.40606,-11.312745 V -102.63657 h 4.49879 v -12.09993 h -21.50583 v -27.20832 l 54.38637,-1.7e-4 v 2.31918 h 29.60676 v -30.65112 l -231.97173,-1.7e-4 5e-5,-2.19366 -22.72258,-0.18432 v -11.90775 h 277.1387 V -55.164927 H 570.51816 V 73.935089 c -2.23755,11.309156 -12.11468,26.366871 -22.43864,26.554521 l -47.65164,0.39103 v 17.12763 h -15.9705 v -17.12763 z m 0,170.45673 124.90111,-4e-5 V 118.00827 H 384.09402 Z" /><path
         d="m 291.82602,33.199547 v 14.68438 c 0,8.07638 0.03,14.68707 0.066,14.69007 m -371.809652,-33.87236 0.067,67.4026 0.067,67.402613 30.8895,0.0672 30.8901,0.0672 v 31.47356 31.47353 l -2.1828,0.077 -2.1828,0.077 v 26.32604 26.32605 H -9.6696323 3.0303279 l 0.069,-10.97867 0.069,-10.97865 2.70159,-2.71043 2.7012,-2.71095 10.3264901,-0.0687 10.3265,-0.0693 v -12.56816 -12.56771 l -9.4589,-0.0698 -9.45879,-0.0693 v -31.48231 -31.48182 h 26.10529 c 14.358,0 26.05641,0.048 25.99541,0.10697 -0.061,0.059 -0.8546,0.65449 -1.7643,1.32291 -8.24521,6.05845 -7.04111,18.64765 2.2495,23.52158 l 1.9182,1.00614 v 5.01934 5.01933 l -0.663,0.25218 c -11.24911,4.27687 -11.86491,20.45342 -0.9953,26.14879 l 1.6495,0.86403 0.071,6.8001 0.071,6.80011 5.4901,0.0713 5.4901,0.0713 v 11.3435 c 0,10.09959 0.046,11.36122 0.4186,11.5042 0.5468,0.20984 34.070202,0.20984 34.617002,0 0.3725,-0.14298 0.4186,-1.40488 0.4186,-11.50937 v -11.34866 h 5.55631 5.5562 v -6.81302 -6.81302 l 2.048,-0.92088 c 10.4656,-4.7057 10.1471,-20.33281 -0.5266,-25.81496 l -1.5204,-0.78083 v -4.94699 -4.94647 l 1.9183,-1.00253 c 9.4514,-4.9393 10.6302,-17.36696 2.2329,-23.53707 -0.9009,-0.66191 -1.6872,-1.25203 -1.7482,-1.31103 -0.061,-0.059 11.6373,-0.10697 25.9953,-0.10697 h 26.1059 v 31.48543 31.48542 h -9.3927 -9.3927 v 12.7 12.7 h 10.3901 10.39 l 2.4392,2.44895 2.4391,2.44946 0.069,11.24271 0.069,11.24326 10.6443,0.0687 10.6438,0.0693 0.072,5.35471 0.072,5.35523 24.14329,0.0672 24.1432,0.0677 v 14.15366 14.15365 h -5.2844 -5.2845 l -0.073,-3.77031 -0.073,-3.77031 -18.5865,-0.0677 -18.58699,-0.0677 v 10.58488 10.5854 h 35.85109 35.851 v -16.93333 -16.93334 h 3.1223 c 4.081,0 3.7569,0.59736 3.7569,-6.92929 v -6.29471 l 12.1047,-0.0687 7.4275,-0.0687 v -9.525 -9.525 l -42.4848,-0.0672 -47.16199,-0.0667 v -2.88819 c 0,-3.88265 0.1024,-3.72484 -2.4091,-3.72484 h -2.0888 V 242.88138 226.6095 h -2.249 -2.2489 v -31.48542 -31.48543 h 30.92829 c 27.9581,0 30.9428,-0.0402 31.088,-0.41858 0.21,-0.54715 0.21,-133.553163 0,-134.100343 -0.1442,-0.37572 -1.9414,-0.41858 -17.5947,-0.41858 h -17.4341 v 10.18646 10.18645 h -32.94059 -32.9407 V 38.887607 28.701147 H 93.814418 21.214708 l -0.1607,0.41858 c -0.089,0.23019 -0.1607,4.81411 -0.1607,10.18645 v 9.76788 h -32.94054 -32.9407 v -10.18645 -10.18646 h -17.463004 z m 136.80975,31.45242 H 130.68753 V 133.94954 H 56.892118 Z m -102.25065,2.4138 h 0.37 66.14534 0.37 v 66.885323 h -66.88534 z m 211.269762,0 h 0.5023 65.88079 0.5023 v 66.885323 h -66.88539 z"
         style="display:inline;fill:#000000;stroke:none;stroke-width:5;stroke-linecap:round;stroke-linejoin:round;stroke-dasharray:10, 10;stroke-dashoffset:0;stroke-opacity:1;paint-order:stroke fill markers"
         id="path5594" /></g><path
       id="path5198"
       style="display:inline;opacity:1;fill:#97d175;fill-opacity:1;stroke:none;stroke-width:7.908;stroke-linecap:round;stroke-linejoin:round;stroke-dasharray:none;stroke-opacity:1;paint-order:stroke fill markers"
       d="M 345.01513,16.302949 H 306.53609 V -133.49825 h 38.47904 z m 110.04465,3.347764 V -127.419 h -59.01343 v 6.42007 h -5.78768 l 3e-5,134.221784 h 4.53992 v 6.427859"
       transform="translate(1.19584,0.06738)" /><g
       id="g4166"
       transform="translate(2.04721,1.5829)"><text
         xml:space="preserve"
         style="font-size:20.4684px;font-family:'Comic Sans MS';-inkscape-font-specification:'Comic Sans MS';display:inline;opacity:1;fill:#000000;fill-opacity:1;stroke:none;stroke-width:14.5051;stroke-linecap:round;stroke-linejoin:round;stroke-dasharray:29.0103, 29.0103;stroke-dashoffset:0;stroke-opacity:1;paint-order:stroke fill markers"
         x="-6.1774592"
         y="-322.15366"
         id="text18040"><tspan
           id="tspan18038"
           style="font-size:20.4684px;fill:#000000;fill-opacity:1;stroke:none;stroke-width:14.5051"
           x="-6.1774592"
           y="-322.15366">Boulevard de la Reine</tspan></text><text
         xml:space="preserve"
         style="font-size:20.4684px;font-family:'Comic Sans MS';-inkscape-font-specification:'Comic Sans MS';display:inline;opacity:1;fill:#000000;fill-opacity:1;stroke:none;stroke-width:14.5051;stroke-linecap:round;stroke-linejoin:round;stroke-dasharray:29.0103, 29.0103;stroke-dashoffset:0;stroke-opacity:1;paint-order:stroke fill markers"
         x="-105.31647"
         y="668.60071"
         id="text18040-8"
         transform="rotate(-90)"><tspan
           id="tspan18038-2"
           style="font-size:20.4684px;fill:#000000;fill-opacity:1;stroke:none;stroke-width:14.5051"
           x="-105.31647"
           y="668.60071">Rue de Provence</tspan></text><text
         xml:space="preserve"
         style="font-size:20.4684px;font-family:'Comic Sans MS';-inkscape-font-specification:'Comic Sans MS';display:inline;opacity:1;fill:#000000;fill-opacity:1;stroke:none;stroke-width:14.5051;stroke-linecap:round;stroke-linejoin:round;stroke-dasharray:29.0103, 29.0103;stroke-dashoffset:0;stroke-opacity:1;paint-order:stroke fill markers"
         x="-87.258568"
         y="622.86591"
         id="text18040-0"
         transform="rotate(-13.646281)"><tspan
           id="tspan18038-8"
           style="font-size:20.4684px;fill:#000000;fill-opacity:1;stroke:none;stroke-width:14.5051"
           x="-87.258568"
           y="622.86591">Avenue de Saint-Cloud</tspan></text><text
         xml:space="preserve"
         style="font-size:16.1267px;font-family:'Comic Sans MS';-inkscape-font-specification:'Comic Sans MS';display:inline;opacity:1;fill:#000000;fill-opacity:1;stroke:none;stroke-width:11.4283;stroke-linecap:round;stroke-linejoin:round;stroke-dasharray:22.8567, 22.8567;stroke-dashoffset:0;stroke-opacity:1;paint-order:stroke fill markers"
         x="-211.74667"
         y="279.88037"
         id="text18040-0-1"
         transform="rotate(16.35372)"><tspan
           id="tspan18038-8-9"
           style="font-size:16.1267px;fill:#000000;fill-opacity:1;stroke:none;stroke-width:11.4283"
           x="-211.74667"
           y="279.88037">Rue de l'abbé de l'épée</tspan></text><text
         xml:space="preserve"
         style="font-size:56.4977px;font-family:'Comic Sans MS';-inkscape-font-specification:'Comic Sans MS';display:inline;opacity:1;fill:#000000;fill-opacity:1;stroke:none;stroke-width:40.0375;stroke-linecap:round;stroke-linejoin:round;stroke-dasharray:80.0754, 80.0754;stroke-dashoffset:0;stroke-opacity:1;paint-order:stroke fill markers"
         x="-6.580276"
         y="-86.818092"
         id="text18040-7"><tspan
           id="tspan18038-7"
           style="font-size:56.4977px;fill:#000000;fill-opacity:1;stroke:none;stroke-width:40.0375"
           x="-6.580276"
           y="-86.818092">Sous-sol</tspan></text></g><path
       style="display:inline;fill:#222222;fill-opacity:1;stroke:none;stroke-width:0.00771231;stroke-opacity:1"
       d="m -205.91227,-150.66008 c -2.40763,-0.002 -2.18758,0.007 -2.28423,-0.0833 -0.0928,-0.0856 -0.0854,0.0691 -0.0854,-1.78491 0,-1.87082 -0.008,-1.67488 0.0706,-1.76215 0.0946,-0.10526 -0.11063,-0.0965 2.29857,-0.0987 2.14637,-0.002 2.14637,-0.002 2.14637,1.86452 0,1.86647 0,1.86647 -2.14597,1.8645 z m 1.57446,-0.87548 c -0.44039,0.002 -0.44039,0.002 -0.47932,0.10225 -0.0215,0.0552 -0.0427,0.10291 -0.0473,0.10613 -0.0317,0.0219 -0.71187,0.002 -0.76348,-0.0233 -0.28761,-0.1362 -0.3502,-0.64584 -0.10992,-0.8949 0.10131,-0.10503 0.14805,-0.11112 0.72926,-0.0951 0.17287,0.005 0.17287,0.005 0.20371,0.11082 0.0308,0.10606 0.0308,0.10606 0.46921,0.10606 0.43833,0 0.43833,0 0.43833,-0.35868 0,-0.35869 0,-0.35869 -0.44476,-0.3567 -0.44478,0.002 -0.44478,0.002 -0.48243,0.0981 -0.0208,0.0528 -0.0415,0.10073 -0.0462,0.1064 -0.0202,0.0244 -0.71237,0.009 -0.76575,-0.0167 -0.29305,-0.14213 -0.35247,-0.65173 -0.10488,-0.89932 0.10256,-0.10257 0.0754,-0.0986 0.63864,-0.0943 0.28636,0.002 0.25052,-0.0173 0.30337,0.16388 0.0158,0.054 0.0158,0.054 0.45888,0.054 0.44312,0 0.44312,0 0.44312,-0.27379 0,-0.2738 0,-0.2738 -1.56174,-0.2738 -1.56174,0 -1.56174,0 -1.56174,1.45377 0,1.45379 0,1.45379 1.56174,1.45379 1.56174,0 1.56174,0 1.56174,-0.2353 0,-0.23528 0,-0.23528 -0.44038,-0.23329 z m -1.6118,-0.26442 c -0.0421,0.2146 -0.30609,0.28832 -0.4538,0.12669 -0.11497,-0.12579 -0.0806,-0.32369 0.0701,-0.40406 0.19265,-0.10269 0.42515,0.0654 0.38362,0.27737 z m -0.019,-1.26448 c -0.0336,0.10733 -0.14968,0.18377 -0.26645,0.1755 -0.33445,-0.0236 -0.31903,-0.51869 0.0162,-0.51869 0.18506,0 0.3059,0.16567 0.25025,0.34319 z m -1.43107,0.71811 c -0.0199,-0.011 -0.45045,0.33597 -0.46553,0.37524 -0.007,0.0192 0.007,0.0319 0.22935,0.21731 0.22405,0.186 0.22337,0.18555 0.2461,0.16499 0.0267,-0.0242 0.0172,-0.74232 -0.01,-0.75754 z m -0.21773,-0.90581 c -0.28036,-0.23888 -0.25192,-0.26311 -0.25192,0.21469 0,0.40334 3.1e-4,0.40633 0.0472,0.38124 0.0269,-0.0145 0.41224,-0.33608 0.43068,-0.35952 0.0209,-0.0266 0.0231,-0.0242 -0.22599,-0.23641 z"
       id="path3485-6-4" /><text
       xml:space="preserve"
       style="font-style:normal;font-variant:normal;font-weight:normal;font-stretch:normal;font-size:7.06805px;font-family:'Comic Sans MS';-inkscape-font-specification:'Comic Sans MS, Normal';font-variant-ligatures:normal;font-variant-caps:normal;font-variant-numeric:normal;font-variant-east-asian:normal;fill:#000000;fill-opacity:1;stroke:none;stroke-width:0.110456;stroke-linecap:round;stroke-linejoin:round;stroke-dasharray:none"
       x="-208.64755"
       y="-43.253666"
       id="text1489-6-9-3-6-0"><tspan
         style="font-style:normal;font-variant:normal;font-weight:normal;font-stretch:normal;font-size:7.06805px;font-family:'Comic Sans MS';-inkscape-font-specification:'Comic Sans MS, Normal';font-variant-ligatures:normal;font-variant-caps:normal;font-variant-numeric:normal;font-variant-east-asian:normal;fill:#000000;fill-opacity:1;stroke:none;stroke-width:0.110456;stroke-dasharray:none"
         x="-208.64755"
         y="-43.253666"
         id="tspan2508-40-8-5">Gymnase</tspan></text><text
       xml:space="preserve"
       style="font-style:normal;font-variant:normal;font-weight:normal;font-stretch:normal;font-size:4.13017px;font-family:'Comic Sans MS';-inkscape-font-specification:'Comic Sans MS, Normal';font-variant-ligatures:normal;font-variant-caps:normal;font-variant-numeric:normal;font-variant-east-asian:normal;fill:#000000;fill-opacity:1;stroke:none;stroke-width:0.0645443;stroke-linecap:round;stroke-linejoin:round;stroke-dasharray:none"
       x="34.239632"
       y="-242.604"
       id="text1489-6-9-3-6-9"
       transform="rotate(-60)"><tspan
         style="font-style:normal;font-variant:normal;font-weight:normal;font-stretch:normal;font-size:4.13017px;font-family:'Comic Sans MS';-inkscape-font-specification:'Comic Sans MS, Normal';font-variant-ligatures:normal;font-variant-caps:normal;font-variant-numeric:normal;font-variant-east-asian:normal;fill:#000000;fill-opacity:1;stroke:none;stroke-width:0.0645443;stroke-dasharray:none"
         x="34.239632"
         y="-242.604"
         id="tspan2508-40-8-1">Vestiaires</tspan></text><text
       xml:space="preserve"
       style="font-style:normal;font-variant:normal;font-weight:normal;font-stretch:normal;font-size:4.13017px;font-family:'Comic Sans MS';-inkscape-font-specification:'Comic Sans MS, Normal';font-variant-ligatures:normal;font-variant-caps:normal;font-variant-numeric:normal;font-variant-east-asian:normal;fill:#000000;fill-opacity:1;stroke:none;stroke-width:0.0645443;stroke-linecap:round;stroke-linejoin:round;stroke-dasharray:none"
       x="-139.81625"
       y="-152.33014"
       id="text1489-6-9-3-6-9-2"><tspan
         style="font-style:normal;font-variant:normal;font-weight:normal;font-stretch:normal;font-size:4.13017px;font-family:'Comic Sans MS';-inkscape-font-specification:'Comic Sans MS, Normal';font-variant-ligatures:normal;font-variant-caps:normal;font-variant-numeric:normal;font-variant-east-asian:normal;fill:#000000;fill-opacity:1;stroke:none;stroke-width:0.0645443;stroke-dasharray:none"
         x="-139.81625"
         y="-152.33014"
         id="tspan2508-40-8-1-7">Salle de sport</tspan></text><a
       id="a3894-3-7-7"
       xlink:href="#Change?General?433"
       transform="matrix(0,0.84766095,0.84766095,0,-280.67,-291.01277)"><path
         id="path1907-4-7-7-7-2-9"
         style="display:inline;fill:#222222;fill-opacity:1;stroke:#ffffff;stroke-width:0.359049;stroke-linecap:round;stroke-linejoin:miter;stroke-miterlimit:4;stroke-dasharray:none;stroke-opacity:1;paint-order:markers fill stroke"
         d="m 210.48958,142.914 v -0.94081 l 0.94079,1e-5 m 0.60645,1.53305 -1.54724,-1.53306 m -0.22678,-2.68494 1.10765,0.014 0.014,1.07997 1.12589,0.0187 v 1.1182 h 1.126 v 1.10836 l 1.117,0.002 0.014,1.07997 m -5.56166,0.57293 v -5.69832 c 0,-0.40432 0.32549,-0.72985 0.72984,-0.72985 h 5.42302 c 0.40432,0 0.72985,0.32553 0.72985,0.72985 v 5.69832 c 0,0.40434 -0.32553,0.72985 -0.72985,0.72985 h -5.42302 c -0.40435,0 -0.72984,-0.32551 -0.72984,-0.72985 z" /></a><a
       id="a3894-3-7-2"
       xlink:href="#Change?General?411"
       transform="matrix(0,-0.84766095,0.84766095,0,-279.09728,200.15921)"><path
         id="path1907-4-7-7-7-2-0-8"
         style="display:inline;fill:#222222;fill-opacity:1;stroke:#ffffff;stroke-width:0.359049;stroke-linecap:round;stroke-linejoin:miter;stroke-miterlimit:4;stroke-dasharray:none;stroke-opacity:1;paint-order:markers fill stroke"
         d="m 230.8096,139.27577 h 0.94081 l -10e-6,0.94079 m -1.53305,0.60645 1.53306,-1.54724 m 2.68494,-0.22678 -0.014,1.10765 -1.07997,0.014 -0.0187,1.12589 h -1.1182 v 1.126 h -1.10836 l -0.002,1.117 -1.07997,0.014 m -0.57293,-5.56166 h 5.69832 c 0.40432,0 0.72985,0.32549 0.72985,0.72984 v 5.42302 c 0,0.40432 -0.32553,0.72985 -0.72985,0.72985 h -5.69832 c -0.40434,0 -0.72985,-0.32553 -0.72985,-0.72985 v -5.42302 c 0,-0.40435 0.32551,-0.72984 0.72985,-0.72984 z" /></a><a
       id="a3894-3-9-9"
       xlink:href="#Change?E-0?424"
       transform="matrix(-1.1278773,0,0,1.1278773,754.13287,-105.32687)"><path
         id="path1907-4-7-7-7-24-9"
         style="display:inline;fill:#222222;fill-opacity:1;stroke:#ffffff;stroke-width:0.359049;stroke-linecap:round;stroke-linejoin:miter;stroke-miterlimit:4;stroke-dasharray:none;stroke-opacity:1;paint-order:markers fill stroke"
         d="m 211.16626,139.27577 h 0.94081 l -1e-5,0.94079 m -1.53305,0.60645 1.53306,-1.54724 m 2.68494,-0.22678 -0.014,1.10765 -1.07997,0.014 -0.0187,1.12589 h -1.1182 v 1.126 h -1.10836 l -0.002,1.117 -1.07997,0.014 m -0.57293,-5.56166 h 5.69832 c 0.40432,0 0.72985,0.32549 0.72985,0.72984 v 5.42302 c 0,0.40432 -0.32553,0.72985 -0.72985,0.72985 h -5.69832 c -0.40434,0 -0.72985,-0.32553 -0.72985,-0.72985 v -5.42302 c 0,-0.40435 0.32551,-0.72984 0.72985,-0.72984 z" /></a><a
       id="a3894-3-9-8"
       xlink:href="#Change?E-0?422"
       transform="matrix(-1.1278773,0,0,1.1278773,784.23217,-104.78583)"><path
         id="path1907-4-7-7-7-24-3"
         style="display:inline;fill:#222222;fill-opacity:1;stroke:#ffffff;stroke-width:0.359049;stroke-linecap:round;stroke-linejoin:miter;stroke-miterlimit:4;stroke-dasharray:none;stroke-opacity:1;paint-order:markers fill stroke"
         d="m 211.16626,139.27577 h 0.94081 l -1e-5,0.94079 m -1.53305,0.60645 1.53306,-1.54724 m 2.68494,-0.22678 -0.014,1.10765 -1.07997,0.014 -0.0187,1.12589 h -1.1182 v 1.126 h -1.10836 l -0.002,1.117 -1.07997,0.014 m -0.57293,-5.56166 h 5.69832 c 0.40432,0 0.72985,0.32549 0.72985,0.72984 v 5.42302 c 0,0.40432 -0.32553,0.72985 -0.72985,0.72985 h -5.69832 c -0.40434,0 -0.72985,-0.32553 -0.72985,-0.72985 v -5.42302 c 0,-0.40435 0.32551,-0.72984 0.72985,-0.72984 z" /></a><path
       style="display:inline;fill:#222222;fill-opacity:1;stroke:none;stroke-width:0.00789875;stroke-opacity:1"
       d="m 521.54717,52.535654 c 0.002,-2.465805 -0.007,-2.240456 0.0853,-2.33943 0.0876,-0.09502 -0.0708,-0.08742 1.82806,-0.08742 1.91602,0 1.71534,-0.0086 1.80472,0.07232 0.10781,0.0969 0.0988,-0.113302 0.10106,2.354134 0.002,2.198221 0.002,2.198221 -1.90957,2.198221 -1.91159,0 -1.91159,0 -1.90956,-2.197825 z m 0.89663,1.612506 c -0.002,-0.451042 -0.002,-0.451042 -0.10472,-0.490905 -0.0565,-0.02199 -0.10539,-0.0438 -0.1087,-0.04844 -0.0223,-0.03247 -0.002,-0.729078 0.0239,-0.781928 0.13949,-0.294562 0.66144,-0.358664 0.91653,-0.11258 0.10756,0.103767 0.11381,0.151627 0.0973,0.746892 -0.005,0.177035 -0.005,0.177035 -0.11352,0.208626 -0.10861,0.03161 -0.10861,0.03161 -0.10861,0.480547 0,0.448937 0,0.448937 0.36735,0.448937 0.36735,0 0.36735,0 0.36532,-0.455508 -0.002,-0.455526 -0.002,-0.455526 -0.10046,-0.494101 -0.0541,-0.02121 -0.10317,-0.04252 -0.10897,-0.04733 -0.0249,-0.0207 -0.009,-0.729585 0.0171,-0.784247 0.14558,-0.300137 0.66748,-0.361001 0.92105,-0.107418 0.10504,0.10503 0.10095,0.0773 0.0966,0.654068 -0.002,0.293282 0.0177,0.25658 -0.16783,0.310701 -0.0553,0.01615 -0.0553,0.01615 -0.0553,0.469973 0,0.453825 0,0.453825 0.28041,0.453825 0.2804,0 0.2804,0 0.2804,-1.599477 0,-1.599494 0,-1.599494 -1.4889,-1.599494 -1.48892,0 -1.48892,0 -1.48892,1.599494 0,1.599477 0,1.599477 0.24099,1.599477 0.24097,0 0.24097,0 0.23893,-0.451025 z m 0.27082,-1.650746 c -0.2198,-0.04312 -0.29528,-0.313493 -0.12975,-0.464777 0.12883,-0.117733 0.33151,-0.08254 0.41382,0.07189 0.10516,0.197305 -0.067,0.435427 -0.28407,0.392901 z m 1.29503,-0.01941 c -0.10993,-0.03436 -0.18819,-0.153293 -0.17973,-0.272865 0.0242,-0.342542 0.53123,-0.326755 0.53123,0.01649 0,0.189541 -0.1697,0.313304 -0.3515,0.256297 z m -0.73547,-1.465656 c 0.0113,-0.02036 -0.3441,-0.461324 -0.3843,-0.476759 -0.0197,-0.0077 -0.0326,0.0069 -0.22257,0.234892 -0.19048,0.229447 -0.19003,0.228751 -0.16897,0.252028 0.0246,0.02723 0.76025,0.01761 0.77584,-0.01022 z m 0.92771,-0.222987 c 0.24465,-0.287141 0.26948,-0.257998 -0.21987,-0.257998 -0.4131,0 -0.41616,3.01e-4 -0.39046,0.04836 0.0148,0.02749 0.3442,0.4222 0.3682,0.441087 0.0271,0.0213 0.0247,0.02362 0.24213,-0.231464 z"
       id="path3485-3-8" /><a
       id="a3894-3-98"
       xlink:href="#Change?E-0?423"
       transform="matrix(-1.0826499,0,0,1.0826499,601.10246,-96.764592)"><path
         id="path1907-4-7-7-7-0"
         style="display:inline;fill:#222222;fill-opacity:1;stroke:#ffffff;stroke-width:0.359049;stroke-linecap:round;stroke-linejoin:miter;stroke-miterlimit:4;stroke-dasharray:none;stroke-opacity:1;paint-order:markers fill stroke"
         d="m 211.16626,139.27577 h 0.94081 l -1e-5,0.94079 m -1.53305,0.60645 1.53306,-1.54724 m 2.68494,-0.22678 -0.014,1.10765 -1.07997,0.014 -0.0187,1.12589 h -1.1182 v 1.126 h -1.10836 l -0.002,1.117 -1.07997,0.014 m -0.57293,-5.56166 h 5.69832 c 0.40432,0 0.72985,0.32549 0.72985,0.72984 v 5.42302 c 0,0.40432 -0.32553,0.72985 -0.72985,0.72985 h -5.69832 c -0.40434,0 -0.72985,-0.32553 -0.72985,-0.72985 v -5.42302 c 0,-0.40435 0.32551,-0.72984 0.72985,-0.72984 z" /></a><path
       style="display:inline;fill:#222222;fill-opacity:1;stroke:none;stroke-width:0.00789875;stroke-opacity:1"
       d="m 372.97895,-163.29125 c 0.002,-2.46581 -0.007,-2.24046 0.0853,-2.33943 0.0876,-0.095 -0.0708,-0.0874 1.82806,-0.0874 1.91603,0 1.71535,-0.009 1.80473,0.0723 0.1078,0.0969 0.0988,-0.1133 0.10105,2.35413 0.002,2.19822 0.002,2.19822 -1.90957,2.19822 -1.91158,0 -1.91158,0 -1.90956,-2.19782 z m 0.89663,1.61251 c -0.002,-0.45105 -0.002,-0.45105 -0.10472,-0.49091 -0.0565,-0.022 -0.10539,-0.0438 -0.1087,-0.0484 -0.0223,-0.0325 -0.002,-0.72908 0.0239,-0.78193 0.13949,-0.29456 0.66144,-0.35867 0.91653,-0.11258 0.10757,0.10377 0.11381,0.15162 0.0973,0.74689 -0.005,0.17703 -0.005,0.17703 -0.11352,0.20863 -0.10861,0.0316 -0.10861,0.0316 -0.10861,0.48054 0,0.44894 0,0.44894 0.36735,0.44894 0.36736,0 0.36736,0 0.36532,-0.45551 -0.002,-0.45552 -0.002,-0.45552 -0.10046,-0.4941 -0.0541,-0.0212 -0.10317,-0.0425 -0.10896,-0.0473 -0.0249,-0.0207 -0.009,-0.72958 0.0171,-0.78424 0.14558,-0.30014 0.66748,-0.361 0.92106,-0.10742 0.10504,0.10503 0.10095,0.0773 0.0966,0.65407 -0.002,0.29328 0.0177,0.25658 -0.16783,0.3107 -0.0553,0.0162 -0.0553,0.0162 -0.0553,0.46997 0,0.45383 0,0.45383 0.28041,0.45383 0.28041,0 0.28041,0 0.28041,-1.59948 0,-1.59949 0,-1.59949 -1.48891,-1.59949 -1.48891,0 -1.48891,0 -1.48891,1.59949 0,1.59948 0,1.59948 0.24099,1.59948 0.24096,0 0.24096,0 0.23892,-0.45103 z m 0.27082,-1.65075 c -0.2198,-0.0431 -0.29529,-0.31349 -0.12975,-0.46478 0.12884,-0.11773 0.33151,-0.0825 0.41382,0.0719 0.10517,0.1973 -0.067,0.43542 -0.28407,0.3929 z m 1.29503,-0.0194 c -0.10992,-0.0344 -0.18819,-0.1533 -0.17973,-0.27287 0.0242,-0.34254 0.53123,-0.32675 0.53123,0.0165 0,0.18954 -0.1697,0.31331 -0.3515,0.2563 z m -0.73547,-1.46566 c 0.0113,-0.0204 -0.34409,-0.46132 -0.3843,-0.47676 -0.0197,-0.008 -0.0326,0.007 -0.22257,0.2349 -0.19048,0.22944 -0.19003,0.22875 -0.16896,0.25202 0.0247,0.0272 0.76024,0.0176 0.77583,-0.0102 z m 0.92771,-0.22299 c 0.24465,-0.28714 0.26948,-0.25799 -0.21987,-0.25799 -0.41309,0 -0.41615,3e-4 -0.39047,0.0484 0.0148,0.0275 0.34421,0.42219 0.36822,0.44108 0.0271,0.0213 0.0247,0.0236 0.24212,-0.23146 z"
       id="path3485-3-3-8" /><a
       id="a3894-3-3-8"
       xlink:href="#Change?E-0?427"
       transform="matrix(-1.0428242,0,0,1.0428242,589.22432,-310.89589)"><path
         id="path1907-4-7-7-7-4-7"
         style="display:inline;fill:#222222;fill-opacity:1;stroke:#ffffff;stroke-width:0.359049;stroke-linecap:round;stroke-linejoin:miter;stroke-miterlimit:4;stroke-dasharray:none;stroke-opacity:1;paint-order:markers fill stroke"
         d="m 211.16626,139.27577 h 0.94081 l -1e-5,0.94079 m -1.53305,0.60645 1.53306,-1.54724 m 2.68494,-0.22678 -0.014,1.10765 -1.07997,0.014 -0.0187,1.12589 h -1.1182 v 1.126 h -1.10836 l -0.002,1.117 -1.07997,0.014 m -0.57293,-5.56166 h 5.69832 c 0.40432,0 0.72985,0.32549 0.72985,0.72984 v 5.42302 c 0,0.40432 -0.32553,0.72985 -0.72985,0.72985 h -5.69832 c -0.40434,0 -0.72985,-0.32553 -0.72985,-0.72985 v -5.42302 c 0,-0.40435 0.32551,-0.72984 0.72985,-0.72984 z" /></a><text
       xml:space="preserve"
       style="font-style:normal;font-variant:normal;font-weight:normal;font-stretch:normal;font-size:4.24217px;font-family:'Comic Sans MS';-inkscape-font-specification:'Comic Sans MS, Normal';font-variant-ligatures:normal;font-variant-caps:normal;font-variant-numeric:normal;font-variant-east-asian:normal;fill:#000000;fill-opacity:1;stroke:none;stroke-width:0.0662947;stroke-linecap:round;stroke-linejoin:round;stroke-dasharray:none"
       x="522.52496"
       y="-15.902944"
       id="text1489-6-9-6-27"><tspan
         style="font-style:normal;font-variant:normal;font-weight:normal;font-stretch:normal;font-size:4.24217px;font-family:'Comic Sans MS';-inkscape-font-specification:'Comic Sans MS, Normal';font-variant-ligatures:normal;font-variant-caps:normal;font-variant-numeric:normal;font-variant-east-asian:normal;fill:#000000;fill-opacity:1;stroke:none;stroke-width:0.0662947;stroke-dasharray:none"
         x="522.52496"
         y="-15.902944"
         id="tspan2508-71-3">Amphithéâtre</tspan></text><text
       xml:space="preserve"
       style="font-style:normal;font-variant:normal;font-weight:normal;font-stretch:normal;font-size:4.24217px;font-family:'Comic Sans MS';-inkscape-font-specification:'Comic Sans MS, Normal';font-variant-ligatures:normal;font-variant-caps:normal;font-variant-numeric:normal;font-variant-east-asian:normal;fill:#000000;fill-opacity:1;stroke:none;stroke-width:0.0662947;stroke-linecap:round;stroke-linejoin:round;stroke-dasharray:none"
       x="495.58664"
       y="-6.498035"
       id="text1489-6-9-6-27-3"><tspan
         style="font-style:normal;font-variant:normal;font-weight:normal;font-stretch:normal;font-size:4.24217px;font-family:'Comic Sans MS';-inkscape-font-specification:'Comic Sans MS, Normal';font-variant-ligatures:normal;font-variant-caps:normal;font-variant-numeric:normal;font-variant-east-asian:normal;fill:#000000;fill-opacity:1;stroke:none;stroke-width:0.0662947;stroke-dasharray:none"
         x="495.58664"
         y="-6.498035"
         id="tspan2508-71-3-1">D039</tspan></text><text
       xml:space="preserve"
       style="font-style:normal;font-variant:normal;font-weight:normal;font-stretch:normal;font-size:4.24217px;font-family:'Comic Sans MS';-inkscape-font-specification:'Comic Sans MS, Normal';font-variant-ligatures:normal;font-variant-caps:normal;font-variant-numeric:normal;font-variant-east-asian:normal;fill:#000000;fill-opacity:1;stroke:none;stroke-width:0.0662947;stroke-linecap:round;stroke-linejoin:round;stroke-dasharray:none"
       x="497.11081"
       y="-34.132824"
       id="text1489-6-9-6-27-3-0"><tspan
         style="font-style:normal;font-variant:normal;font-weight:normal;font-stretch:normal;font-size:4.24217px;font-family:'Comic Sans MS';-inkscape-font-specification:'Comic Sans MS, Normal';font-variant-ligatures:normal;font-variant-caps:normal;font-variant-numeric:normal;font-variant-east-asian:normal;fill:#000000;fill-opacity:1;stroke:none;stroke-width:0.0662947;stroke-dasharray:none"
         x="497.11081"
         y="-34.132824"
         id="tspan2508-71-3-1-3">D038</tspan></text><text
       xml:space="preserve"
       style="font-style:normal;font-variant:normal;font-weight:normal;font-stretch:normal;font-size:4.24217px;font-family:'Comic Sans MS';-inkscape-font-specification:'Comic Sans MS, Normal';font-variant-ligatures:normal;font-variant-caps:normal;font-variant-numeric:normal;font-variant-east-asian:normal;fill:#000000;fill-opacity:1;stroke:none;stroke-width:0.0662947;stroke-linecap:round;stroke-linejoin:round;stroke-dasharray:none"
       x="496.06628"
       y="-60.888771"
       id="text1489-6-9-6-27-3-2"><tspan
         style="font-style:normal;font-variant:normal;font-weight:normal;font-stretch:normal;font-size:4.24217px;font-family:'Comic Sans MS';-inkscape-font-specification:'Comic Sans MS, Normal';font-variant-ligatures:normal;font-variant-caps:normal;font-variant-numeric:normal;font-variant-east-asian:normal;fill:#000000;fill-opacity:1;stroke:none;stroke-width:0.0662947;stroke-dasharray:none"
         x="496.06628"
         y="-60.888771"
         id="tspan2508-71-3-1-8">D037</tspan></text><text
       xml:space="preserve"
       style="font-style:normal;font-variant:normal;font-weight:normal;font-stretch:normal;font-size:4.24217px;font-family:'Comic Sans MS';-inkscape-font-specification:'Comic Sans MS, Normal';font-variant-ligatures:normal;font-variant-caps:normal;font-variant-numeric:normal;font-variant-east-asian:normal;fill:#000000;fill-opacity:1;stroke:none;stroke-width:0.0662947;stroke-linecap:round;stroke-linejoin:round;stroke-dasharray:none"
       x="493.01306"
       y="-88.367859"
       id="text1489-6-9-6-27-3-1"><tspan
         style="font-style:normal;font-variant:normal;font-weight:normal;font-stretch:normal;font-size:4.24217px;font-family:'Comic Sans MS';-inkscape-font-specification:'Comic Sans MS, Normal';font-variant-ligatures:normal;font-variant-caps:normal;font-variant-numeric:normal;font-variant-east-asian:normal;fill:#000000;fill-opacity:1;stroke:none;stroke-width:0.0662947;stroke-dasharray:none"
         x="493.01306"
         y="-88.367859"
         id="tspan2508-71-3-1-5">D036</tspan></text><text
       xml:space="preserve"
       style="font-style:normal;font-variant:normal;font-weight:normal;font-stretch:normal;font-size:4.24217px;font-family:'Comic Sans MS';-inkscape-font-specification:'Comic Sans MS, Normal';font-variant-ligatures:normal;font-variant-caps:normal;font-variant-numeric:normal;font-variant-east-asian:normal;fill:#000000;fill-opacity:1;stroke:none;stroke-width:0.0662947;stroke-linecap:round;stroke-linejoin:round;stroke-dasharray:none"
       x="493.01306"
       y="-107.089"
       id="text1489-6-9-6-27-3-29"><tspan
         style="font-style:normal;font-variant:normal;font-weight:normal;font-stretch:normal;font-size:4.24217px;font-family:'Comic Sans MS';-inkscape-font-specification:'Comic Sans MS, Normal';font-variant-ligatures:normal;font-variant-caps:normal;font-variant-numeric:normal;font-variant-east-asian:normal;fill:#000000;fill-opacity:1;stroke:none;stroke-width:0.0662947;stroke-dasharray:none"
         x="493.01306"
         y="-107.089"
         id="tspan2508-71-3-1-1">D035</tspan></text><text
       xml:space="preserve"
       style="font-style:normal;font-variant:normal;font-weight:normal;font-stretch:normal;font-size:4.24217px;font-family:'Comic Sans MS';-inkscape-font-specification:'Comic Sans MS, Normal';font-variant-ligatures:normal;font-variant-caps:normal;font-variant-numeric:normal;font-variant-east-asian:normal;fill:#000000;fill-opacity:1;stroke:none;stroke-width:0.0662947;stroke-linecap:round;stroke-linejoin:round;stroke-dasharray:none"
       x="493.9772"
       y="-122.59621"
       id="text1489-6-9-6-27-3-04"><tspan
         style="font-style:normal;font-variant:normal;font-weight:normal;font-stretch:normal;font-size:4.24217px;font-family:'Comic Sans MS';-inkscape-font-specification:'Comic Sans MS, Normal';font-variant-ligatures:normal;font-variant-caps:normal;font-variant-numeric:normal;font-variant-east-asian:normal;fill:#000000;fill-opacity:1;stroke:none;stroke-width:0.0662947;stroke-dasharray:none"
         x="493.9772"
         y="-122.59621"
         id="tspan2508-71-3-1-0">D034</tspan></text><text
       xml:space="preserve"
       style="font-style:normal;font-variant:normal;font-weight:normal;font-stretch:normal;font-size:4.24217px;font-family:'Comic Sans MS';-inkscape-font-specification:'Comic Sans MS, Normal';font-variant-ligatures:normal;font-variant-caps:normal;font-variant-numeric:normal;font-variant-east-asian:normal;fill:#000000;fill-opacity:1;stroke:none;stroke-width:0.0662947;stroke-linecap:round;stroke-linejoin:round;stroke-dasharray:none"
       x="495.42349"
       y="-134.56807"
       id="text1489-6-9-6-27-3-9"><tspan
         style="font-style:normal;font-variant:normal;font-weight:normal;font-stretch:normal;font-size:4.24217px;font-family:'Comic Sans MS';-inkscape-font-specification:'Comic Sans MS, Normal';font-variant-ligatures:normal;font-variant-caps:normal;font-variant-numeric:normal;font-variant-east-asian:normal;fill:#000000;fill-opacity:1;stroke:none;stroke-width:0.0662947;stroke-dasharray:none"
         x="495.42349"
         y="-134.56807"
         id="tspan2508-71-3-1-7">D031</tspan></text><text
       xml:space="preserve"
       style="font-style:normal;font-variant:normal;font-weight:normal;font-stretch:normal;font-size:4.24217px;font-family:'Comic Sans MS';-inkscape-font-specification:'Comic Sans MS, Normal';font-variant-ligatures:normal;font-variant-caps:normal;font-variant-numeric:normal;font-variant-east-asian:normal;fill:#000000;fill-opacity:1;stroke:none;stroke-width:0.0662947;stroke-linecap:round;stroke-linejoin:round;stroke-dasharray:none"
       x="529.00092"
       y="-121.5815"
       id="text1489-6-9-6-27-3-294"><tspan
         style="font-style:normal;font-variant:normal;font-weight:normal;font-stretch:normal;font-size:4.24217px;font-family:'Comic Sans MS';-inkscape-font-specification:'Comic Sans MS, Normal';font-variant-ligatures:normal;font-variant-caps:normal;font-variant-numeric:normal;font-variant-east-asian:normal;fill:#000000;fill-opacity:1;stroke:none;stroke-width:0.0662947;stroke-dasharray:none"
         x="529.00092"
         y="-121.5815"
         id="tspan2508-71-3-1-86">D033</tspan></text><text
       xml:space="preserve"
       style="font-style:normal;font-variant:normal;font-weight:normal;font-stretch:normal;font-size:4.24217px;font-family:'Comic Sans MS';-inkscape-font-specification:'Comic Sans MS, Normal';font-variant-ligatures:normal;font-variant-caps:normal;font-variant-numeric:normal;font-variant-east-asian:normal;fill:#000000;fill-opacity:1;stroke:none;stroke-width:0.0662947;stroke-linecap:round;stroke-linejoin:round;stroke-dasharray:none"
       x="526.50104"
       y="-70.220963"
       id="text1489-6-9-6-27-3-7"><tspan
         style="font-style:normal;font-variant:normal;font-weight:normal;font-stretch:normal;font-size:4.24217px;font-family:'Comic Sans MS';-inkscape-font-specification:'Comic Sans MS, Normal';font-variant-ligatures:normal;font-variant-caps:normal;font-variant-numeric:normal;font-variant-east-asian:normal;fill:#000000;fill-opacity:1;stroke:none;stroke-width:0.0662947;stroke-dasharray:none"
         x="526.50104"
         y="-70.220963"
         id="tspan2508-71-3-1-73">D040</tspan></text><text
       xml:space="preserve"
       style="font-style:normal;font-variant:normal;font-weight:normal;font-stretch:normal;font-size:4.24217px;font-family:'Comic Sans MS';-inkscape-font-specification:'Comic Sans MS, Normal';font-variant-ligatures:normal;font-variant-caps:normal;font-variant-numeric:normal;font-variant-east-asian:normal;fill:#000000;fill-opacity:1;stroke:none;stroke-width:0.0662947;stroke-linecap:round;stroke-linejoin:round;stroke-dasharray:none"
       x="468.55005"
       y="-64.53949"
       id="text1489-6-9-6-27-3-5"><tspan
         style="font-style:normal;font-variant:normal;font-weight:normal;font-stretch:normal;font-size:4.24217px;font-family:'Comic Sans MS';-inkscape-font-specification:'Comic Sans MS, Normal';font-variant-ligatures:normal;font-variant-caps:normal;font-variant-numeric:normal;font-variant-east-asian:normal;fill:#000000;fill-opacity:1;stroke:none;stroke-width:0.0662947;stroke-dasharray:none"
         x="468.55005"
         y="-64.53949"
         id="tspan2508-71-3-1-16">D012</tspan></text><text
       xml:space="preserve"
       style="font-style:normal;font-variant:normal;font-weight:normal;font-stretch:normal;font-size:4.24217px;font-family:'Comic Sans MS';-inkscape-font-specification:'Comic Sans MS, Normal';font-variant-ligatures:normal;font-variant-caps:normal;font-variant-numeric:normal;font-variant-east-asian:normal;fill:#000000;fill-opacity:1;stroke:none;stroke-width:0.0662947;stroke-linecap:round;stroke-linejoin:round;stroke-dasharray:none"
       x="469.62643"
       y="-32.492851"
       id="text1489-6-9-6-27-3-5-5"><tspan
         style="font-style:normal;font-variant:normal;font-weight:normal;font-stretch:normal;font-size:4.24217px;font-family:'Comic Sans MS';-inkscape-font-specification:'Comic Sans MS, Normal';font-variant-ligatures:normal;font-variant-caps:normal;font-variant-numeric:normal;font-variant-east-asian:normal;fill:#000000;fill-opacity:1;stroke:none;stroke-width:0.0662947;stroke-dasharray:none"
         x="469.62643"
         y="-32.492851"
         id="tspan2508-71-3-1-16-7">D011</tspan></text><text
       xml:space="preserve"
       style="font-style:normal;font-variant:normal;font-weight:normal;font-stretch:normal;font-size:4.24217px;font-family:'Comic Sans MS';-inkscape-font-specification:'Comic Sans MS, Normal';font-variant-ligatures:normal;font-variant-caps:normal;font-variant-numeric:normal;font-variant-east-asian:normal;fill:#000000;fill-opacity:1;stroke:none;stroke-width:0.0662947;stroke-linecap:round;stroke-linejoin:round;stroke-dasharray:none"
       x="469.8537"
       y="-4.8808732"
       id="text1489-6-9-6-27-3-5-9"><tspan
         style="font-style:normal;font-variant:normal;font-weight:normal;font-stretch:normal;font-size:4.24217px;font-family:'Comic Sans MS';-inkscape-font-specification:'Comic Sans MS, Normal';font-variant-ligatures:normal;font-variant-caps:normal;font-variant-numeric:normal;font-variant-east-asian:normal;fill:#000000;fill-opacity:1;stroke:none;stroke-width:0.0662947;stroke-dasharray:none"
         x="469.8537"
         y="-4.8808732"
         id="tspan2508-71-3-1-16-2">D010</tspan></text><path
       id="path3595-0"
       style="fill:#222222;fill-opacity:1;stroke-width:0.0205045"
       d="m 498.31784,14.214222 a 3.0660137,4.9057326 0 0 0 -3.06599,4.905677 3.0660137,4.9057326 0 0 0 3.06599,4.905686 3.0660137,4.9057326 0 0 0 3.06613,-4.905686 3.0660137,4.9057326 0 0 0 -3.06613,-4.905677 z m -0.003,2.182004 c 0.13758,-0.0017 0.26806,0.06399 0.33262,0.177362 0.0928,0.162974 0.0801,0.305737 -0.0388,0.441121 -0.12372,0.140728 -0.29801,0.173135 -0.46745,0.08682 -0.17896,-0.09117 -0.25366,-0.316387 -0.16284,-0.490913 0.0597,-0.114763 0.10239,-0.155648 0.19863,-0.189834 0.0453,-0.01598 0.092,-0.02405 0.13788,-0.02448 z m -0.008,0.867299 c 0.28255,0 0.48993,0.0086 0.54319,0.0219 0.12379,0.03161 0.24914,0.131107 0.31055,0.246624 0.0525,0.09866 0.0533,0.109668 0.06,0.778819 0.008,0.72785 0.002,0.773812 -0.10125,0.807069 -0.0694,0.02242 -0.16107,-0.01314 -0.19931,-0.07739 -0.0208,-0.03487 -0.0282,-0.194325 -0.0284,-0.609696 -2.7e-4,-0.549707 -0.002,-0.562377 -0.0447,-0.562377 -0.0442,0 -0.0444,0.01254 -0.0444,1.551875 0,1.426291 -0.003,1.556385 -0.0379,1.606341 -0.0758,0.109127 -0.26887,0.110467 -0.35509,0.0026 -0.0379,-0.0475 -0.0412,-0.115912 -0.0472,-0.98333 -0.006,-0.868579 -0.009,-0.931805 -0.0445,-0.92599 -0.0351,0.006 -0.039,0.07773 -0.0493,0.941768 -0.0121,1.021296 -0.009,0.99984 -0.14176,1.039153 -0.0811,0.02414 -0.0777,0.02422 -0.16104,-0.01065 -0.0381,-0.01598 -0.0806,-0.05033 -0.0945,-0.0761 -0.0181,-0.03376 -0.0253,-0.482402 -0.0253,-1.59618 0,-1.522499 -6.6e-4,-1.549272 -0.0433,-1.549272 -0.0418,0 -0.0436,0.02001 -0.0501,0.58556 -0.007,0.572813 -0.008,0.586375 -0.0551,0.626711 -0.064,0.05428 -0.18165,0.05257 -0.23497,-0.0034 -0.0357,-0.03745 -0.0392,-0.100736 -0.0392,-0.728202 0,-0.640171 0.003,-0.694077 0.0443,-0.787194 0.0548,-0.123592 0.15365,-0.215222 0.28311,-0.262394 0.0865,-0.03152 0.15594,-0.03608 0.55594,-0.03608 z m -0.94903,4.229044 c 0.028,0 0.0496,0.01512 0.0646,0.04535 0.008,0.01529 0.0235,0.05952 0.0472,0.132507 0.0254,0.07722 0.051,0.170309 0.0764,0.279127 l 0.0627,0.282838 c 0.0461,-0.105838 0.0921,-0.234617 0.13787,-0.386536 0.028,-0.09259 0.0494,-0.156867 0.0641,-0.192702 0.0389,-0.09432 0.0766,-0.141423 0.11332,-0.141423 0.0302,0 0.0516,0.01503 0.0641,0.04535 0.0155,0.03668 0.0313,0.124124 0.0472,0.262386 0.009,0.07 0.0233,0.154101 0.0441,0.252243 l 0.0557,0.251555 c 0.0578,-0.137395 0.13019,-0.323293 0.21693,-0.557575 0.004,-0.0128 0.0155,-0.05317 0.0323,-0.120972 0.0125,-0.0499 0.0278,-0.08871 0.0459,-0.116446 0.0155,-0.02353 0.0358,-0.03522 0.0609,-0.03522 0.0435,0 0.0653,0.02139 0.0653,0.06399 0,0.0069 -0.007,0.0286 -0.0207,0.06399 l -0.0259,0.06914 -0.0355,0.113843 -0.19225,0.462242 c -0.0177,0.05076 -0.0481,0.124502 -0.0913,0.221381 -0.0155,0.0286 -0.0389,0.04295 -0.0699,0.04295 -0.0199,0 -0.0374,-0.0052 -0.0525,-0.01658 -0.0172,-0.0128 -0.0258,-0.02869 -0.0258,-0.0475 -0.0198,-0.05162 -0.0325,-0.09363 -0.0376,-0.126057 -0.005,-0.03247 -0.0221,-0.124348 -0.051,-0.275846 -0.0221,-0.114796 -0.0368,-0.20696 -0.0442,-0.276525 -0.0384,0.140831 -0.0795,0.260008 -0.12359,0.35772 -0.0509,0.113087 -0.0839,0.201685 -0.099,0.265702 0.005,0.0098 0.008,0.01941 0.008,0.02877 0,0.01924 -0.009,0.03487 -0.0258,0.04733 -0.0155,0.01151 -0.0332,0.01726 -0.053,0.01726 -0.0582,0 -0.0874,-0.02568 -0.0874,-0.07739 l -0.0201,-0.08134 -0.0706,-0.313699 c -0.028,-0.10582 -0.0759,-0.257525 -0.1437,-0.455105 -0.003,-0.0094 -0.004,-0.01778 -0.004,-0.02551 0,-0.03968 0.0227,-0.05952 0.0679,-0.05952 z m 1.93219,0.0017 c 0.0298,0 0.0485,0.01933 0.0563,0.05815 0.007,0.03453 0.0102,0.07705 0.0102,0.127422 0,0.01752 -0.004,0.03281 -0.0142,0.04612 -0.0117,0.01658 -0.0283,0.025 -0.0499,0.025 -0.0276,0 -0.0483,-0.01598 -0.0622,-0.04801 -0.0121,-0.02731 -0.0233,-0.04398 -0.0336,-0.04999 -0.009,-0.0043 -0.0316,-0.0069 -0.0674,-0.0069 -0.0625,0 -0.13195,0.04733 -0.20834,0.142102 -0.10356,0.127165 -0.15535,0.247622 -0.15535,0.361559 0,0.05506 0.0178,0.102419 0.0537,0.14211 0.0367,0.04097 0.0809,0.0615 0.13274,0.0615 0.0444,0 0.0891,-0.01125 0.13399,-0.03384 0.025,-0.0128 0.0633,-0.03805 0.11513,-0.07559 0.0246,-0.01787 0.0433,-0.0268 0.0557,-0.0268 0.0186,0 0.0341,0.0069 0.0466,0.02113 0.0125,0.01366 0.0187,0.02903 0.0187,0.04612 0,0.01924 -0.008,0.03607 -0.0246,0.05059 -0.11393,0.09987 -0.22915,0.149789 -0.34566,0.149789 -0.0893,0 -0.16494,-0.03401 -0.22665,-0.101774 -0.0595,-0.06571 -0.0893,-0.143433 -0.0893,-0.233037 0,-0.14467 0.0614,-0.292913 0.18393,-0.444824 0.10227,-0.126744 0.20532,-0.190115 0.30932,-0.190115 0.0212,0 0.0402,0.0017 0.057,0.0034 0.0168,0.0017 0.0317,0.0043 0.0447,0.009 0.0152,-0.02182 0.0348,-0.03264 0.0589,-0.03264 z" /><path
       id="text3723-2"
       style="font-style:normal;font-variant:normal;font-weight:normal;font-stretch:normal;font-size:4.9389px;font-family:'Comic Sans MS';-inkscape-font-specification:'Comic Sans MS, Normal';font-variant-ligatures:normal;font-variant-caps:normal;font-variant-numeric:normal;font-variant-east-asian:normal;fill:#222222;fill-opacity:1;stroke:none;stroke-width:0.0173496;stroke-linecap:round;stroke-linejoin:round;stroke-dasharray:none"
       d="m 498.31784,25.744565 a 3.0660072,4.9057289 0 0 0 -3.06599,4.90567 3.0660072,4.9057289 0 0 0 3.06599,4.905677 3.0660072,4.9057289 0 0 0 3.06613,-4.905677 3.0660072,4.9057289 0 0 0 -3.06613,-4.90567 z m 0.007,2.167189 c 0.22481,2.57e-4 0.38824,0.161831 0.38824,0.383513 0,0.11209 -0.0271,0.182377 -0.10222,0.264585 -0.0826,0.0905 -0.23658,0.138004 -0.3648,0.112606 -0.0801,-0.01572 -0.12847,-0.04286 -0.19571,-0.109454 -0.24177,-0.239066 -0.0679,-0.651783 0.27449,-0.65125 z m -0.0952,0.886091 c 0.0403,8e-6 0.0849,5.24e-4 0.13469,6.1e-4 l 0.34316,0.0052 0.0923,0.04492 c 0.0925,0.04492 0.21243,0.156437 0.25301,0.234815 0.0103,0.01993 0.10138,0.304647 0.20237,0.632888 0.19434,0.631598 0.20136,0.667458 0.1437,0.731491 -0.0369,0.04097 -0.11189,0.06863 -0.15827,0.05858 -0.0883,-0.01924 -0.10653,-0.06056 -0.27616,-0.62836 l -0.15883,-0.531929 h -0.0459 c -0.0253,0 -0.046,0.0043 -0.046,0.0077 0,0.0052 0.0777,0.271603 0.17269,0.593934 0.095,0.322306 0.2106,0.715928 0.25703,0.874547 0.0465,0.158619 0.0878,0.299106 0.0921,0.312316 0.008,0.02225 -0.0105,0.02414 -0.24315,0.02414 h -0.25092 v 0.719158 c 0,0.708946 -5.4e-4,0.719622 -0.0291,0.755629 -0.0623,0.07842 -0.17782,0.09396 -0.25453,0.03427 -0.0789,-0.06141 -0.0774,-0.04681 -0.0774,-0.808032 v -0.701051 h -0.0557 -0.0554 l -1.3e-4,0.696945 c -1e-5,0.6364 -0.003,0.701104 -0.0242,0.744111 -0.0485,0.09396 -0.15074,0.131124 -0.23832,0.08663 -0.026,-0.01323 -0.0605,-0.0414 -0.0764,-0.0627 -0.0284,-0.03796 -0.029,-0.05334 -0.0329,-0.751944 l -0.004,-0.71312 h -0.24342 c -0.22546,0 -0.24293,-0.0026 -0.23608,-0.02414 0.017,-0.05549 0.45891,-1.571793 0.48824,-1.675457 l 0.0321,-0.113303 h -0.0446 -0.0446 l -0.15908,0.531791 c -0.1708,0.570992 -0.1876,0.608845 -0.27854,0.62684 -0.0849,0.01684 -0.17477,-0.0463 -0.1889,-0.132499 -0.008,-0.04801 -0.003,-0.06639 0.30889,-1.080984 0.0708,-0.230459 0.12405,-0.318423 0.24288,-0.400665 0.10807,-0.07473 0.17716,-0.09258 0.45939,-0.09248 z m -0.87178,4.22506 c 0.028,0 0.0495,0.01503 0.0647,0.04535 0.008,0.01537 0.0235,0.05961 0.0473,0.132499 0.0255,0.07722 0.051,0.170309 0.0764,0.279127 l 0.0627,0.282837 c 0.0461,-0.105846 0.0922,-0.234617 0.13787,-0.386536 0.028,-0.09258 0.0494,-0.156867 0.0641,-0.19271 0.0388,-0.09435 0.0766,-0.141423 0.11331,-0.141423 0.0302,0 0.0516,0.01512 0.0641,0.04535 0.0155,0.03676 0.0313,0.124124 0.0473,0.262395 0.009,0.07 0.0233,0.154083 0.044,0.252233 l 0.0557,0.251564 c 0.0578,-0.137412 0.1302,-0.323284 0.21694,-0.557567 0.005,-0.0128 0.0155,-0.05308 0.0324,-0.12098 0.0124,-0.04999 0.0278,-0.08871 0.0459,-0.116454 0.0155,-0.02345 0.0358,-0.03522 0.0609,-0.03522 0.0436,0 0.0653,0.02147 0.0653,0.06408 0,0.0069 -0.007,0.0286 -0.0207,0.06408 l -0.0258,0.06914 -0.0355,0.113843 -0.19225,0.462243 c -0.0177,0.05076 -0.0481,0.124519 -0.0913,0.221389 -0.0155,0.0286 -0.0388,0.04295 -0.0699,0.04295 -0.0198,0 -0.0374,-0.0052 -0.0525,-0.01649 -0.0174,-0.0128 -0.0259,-0.02869 -0.0259,-0.04741 -0.0199,-0.05171 -0.0325,-0.09367 -0.0375,-0.126056 -0.005,-0.03247 -0.0221,-0.124348 -0.0511,-0.275838 -0.022,-0.114796 -0.0368,-0.206976 -0.0441,-0.276533 -0.0384,0.140831 -0.0796,0.259999 -0.1236,0.357728 -0.0508,0.113096 -0.0839,0.201686 -0.099,0.265694 0.005,0.0099 0.008,0.01941 0.008,0.02877 0,0.01924 -0.009,0.03496 -0.0259,0.04733 -0.0155,0.01151 -0.0331,0.01735 -0.0531,0.01735 -0.0582,0 -0.0874,-0.02577 -0.0874,-0.0773 l -0.0201,-0.08143 -0.0706,-0.313699 c -0.028,-0.105821 -0.0759,-0.257525 -0.1437,-0.455114 -0.003,-0.0089 -0.005,-0.01787 -0.005,-0.02542 0,-0.03968 0.0227,-0.05961 0.0679,-0.05961 z m 1.9322,0.0026 c 0.0297,0 0.0486,0.01933 0.0563,0.05815 0.007,0.03453 0.0103,0.07705 0.0103,0.127422 0,0.01752 -0.005,0.0329 -0.0142,0.04604 -0.0117,0.01666 -0.0283,0.02508 -0.0499,0.02508 -0.0277,0 -0.0483,-0.01606 -0.0621,-0.04801 -0.0121,-0.02731 -0.0233,-0.04398 -0.0336,-0.0499 -0.009,-0.0052 -0.0316,-0.0069 -0.0674,-0.0069 -0.0624,0 -0.13196,0.04733 -0.20833,0.142093 -0.10358,0.127174 -0.15536,0.247639 -0.15536,0.361576 0,0.05506 0.0179,0.102419 0.0537,0.142102 0.0366,0.04089 0.081,0.06141 0.13274,0.06141 0.0445,0 0.0891,-0.01117 0.13399,-0.03384 0.0251,-0.0128 0.0634,-0.03796 0.11513,-0.0755 0.0246,-0.01795 0.0433,-0.02697 0.0557,-0.02697 0.0185,0 0.034,0.0069 0.0466,0.02113 0.0125,0.01366 0.0187,0.02912 0.0187,0.04612 0,0.01924 -0.008,0.03616 -0.0246,0.05059 -0.11392,0.09984 -0.22914,0.149772 -0.34566,0.149772 -0.0893,0 -0.16494,-0.03384 -0.22664,-0.101766 -0.0595,-0.06562 -0.0893,-0.143433 -0.0893,-0.233037 0,-0.14467 0.0612,-0.292913 0.18393,-0.444832 0.10227,-0.126744 0.20531,-0.190107 0.30932,-0.190107 0.021,0 0.0402,6.27e-4 0.057,0.0026 0.0168,8.59e-4 0.0317,0.0052 0.0448,0.0089 0.0151,-0.02164 0.0348,-0.03264 0.059,-0.03264 z" /><path
       id="path3595-7"
       style="fill:#222222;fill-opacity:1;stroke-width:0.0205045"
       d="m 468.67916,13.024292 a 3.0660137,4.9057326 0 0 0 -3.066,4.905677 3.0660137,4.9057326 0 0 0 3.066,4.905686 3.0660137,4.9057326 0 0 0 3.06612,-4.905686 3.0660137,4.9057326 0 0 0 -3.06612,-4.905677 z m -0.003,2.182005 c 0.13758,-0.0017 0.26806,0.06399 0.33262,0.177361 0.0928,0.162973 0.0801,0.305736 -0.0388,0.441121 -0.12372,0.140727 -0.29801,0.173135 -0.46746,0.08682 -0.17896,-0.09117 -0.25366,-0.316388 -0.16284,-0.490914 0.0597,-0.114762 0.10239,-0.155647 0.19863,-0.189832 0.0453,-0.01598 0.092,-0.02405 0.13789,-0.02448 z m -0.008,0.867297 c 0.28255,0 0.48993,0.0086 0.54319,0.0219 0.12379,0.03161 0.24914,0.131107 0.31055,0.246625 0.0525,0.09866 0.0533,0.109668 0.06,0.77882 0.008,0.72785 0.002,0.773811 -0.10125,0.807069 -0.0694,0.02242 -0.16106,-0.01314 -0.19931,-0.07739 -0.0208,-0.03487 -0.0282,-0.194324 -0.0284,-0.609695 -2.7e-4,-0.549707 -0.002,-0.562377 -0.0448,-0.562377 -0.0442,0 -0.0444,0.01254 -0.0444,1.551875 0,1.42629 -0.003,1.556385 -0.0379,1.60634 -0.0758,0.109127 -0.26887,0.110467 -0.35509,0.0026 -0.0379,-0.0475 -0.0412,-0.115914 -0.0472,-0.983332 -0.006,-0.868577 -0.009,-0.931803 -0.0445,-0.925988 -0.0351,0.006 -0.039,0.07773 -0.0493,0.941767 -0.0121,1.021296 -0.009,0.99984 -0.14176,1.039153 -0.0811,0.02414 -0.0777,0.02422 -0.16104,-0.01065 -0.0381,-0.01598 -0.0806,-0.05033 -0.0945,-0.0761 -0.0181,-0.03376 -0.0252,-0.482402 -0.0252,-1.596179 0,-1.522499 -6.6e-4,-1.549272 -0.0433,-1.549272 -0.0418,0 -0.0435,0.02001 -0.0501,0.58556 -0.007,0.572812 -0.008,0.586375 -0.0551,0.62671 -0.064,0.05429 -0.18165,0.05257 -0.23497,-0.0034 -0.0357,-0.03745 -0.0392,-0.100735 -0.0392,-0.728201 0,-0.640172 0.003,-0.694078 0.0443,-0.787195 0.0548,-0.123592 0.15364,-0.215222 0.2831,-0.262395 0.0865,-0.03152 0.15594,-0.03608 0.55595,-0.03608 z m -0.94904,4.229046 c 0.028,0 0.0496,0.01512 0.0646,0.04535 0.008,0.01529 0.0235,0.05952 0.0472,0.132507 0.0254,0.07722 0.051,0.170309 0.0764,0.279127 l 0.0627,0.282838 c 0.0461,-0.105838 0.0921,-0.234618 0.13787,-0.386537 0.028,-0.09259 0.0494,-0.156867 0.0641,-0.192701 0.0389,-0.09432 0.0766,-0.141423 0.11332,-0.141423 0.0302,0 0.0516,0.01503 0.0641,0.04535 0.0155,0.03668 0.0313,0.124125 0.0472,0.262387 0.009,0.07 0.0233,0.154101 0.0441,0.252242 l 0.0557,0.251556 c 0.0578,-0.137395 0.13019,-0.323294 0.21694,-0.557576 0.004,-0.0128 0.0155,-0.05317 0.0323,-0.120972 0.0125,-0.0499 0.0278,-0.08871 0.0459,-0.116445 0.0155,-0.02353 0.0358,-0.03522 0.0609,-0.03522 0.0436,0 0.0653,0.02139 0.0653,0.06399 0,0.0069 -0.007,0.0286 -0.0207,0.06399 l -0.0259,0.06914 -0.0355,0.113843 -0.19226,0.462243 c -0.0177,0.05076 -0.0481,0.124502 -0.0913,0.221381 -0.0155,0.0286 -0.0389,0.04295 -0.0699,0.04295 -0.0199,0 -0.0374,-0.0052 -0.0525,-0.01658 -0.0172,-0.0128 -0.0259,-0.02869 -0.0259,-0.0475 -0.0198,-0.05162 -0.0325,-0.09363 -0.0376,-0.126057 -0.005,-0.03247 -0.0221,-0.124347 -0.051,-0.275846 -0.0221,-0.114796 -0.0368,-0.206959 -0.0442,-0.276524 -0.0384,0.14083 -0.0795,0.260007 -0.12359,0.357719 -0.0509,0.113087 -0.0839,0.201686 -0.099,0.265702 0.005,0.0098 0.008,0.01941 0.008,0.02877 0,0.01924 -0.009,0.03487 -0.0258,0.04733 -0.0155,0.01151 -0.0331,0.01726 -0.053,0.01726 -0.0582,0 -0.0874,-0.02568 -0.0874,-0.07739 l -0.0201,-0.08134 -0.0706,-0.313699 c -0.028,-0.10582 -0.0759,-0.257524 -0.1437,-0.455104 -0.003,-0.0094 -0.004,-0.01778 -0.004,-0.02551 0,-0.03968 0.0227,-0.05952 0.0679,-0.05952 z m 1.9322,0.0017 c 0.0298,0 0.0485,0.01933 0.0563,0.05815 0.007,0.03453 0.0102,0.07705 0.0102,0.127422 0,0.01752 -0.004,0.03281 -0.0142,0.04612 -0.0117,0.01658 -0.0283,0.025 -0.0499,0.025 -0.0276,0 -0.0483,-0.01598 -0.0622,-0.04801 -0.0121,-0.02731 -0.0233,-0.04398 -0.0336,-0.04999 -0.009,-0.0043 -0.0316,-0.0069 -0.0674,-0.0069 -0.0625,0 -0.13195,0.04733 -0.20834,0.142102 -0.10356,0.127164 -0.15535,0.247621 -0.15535,0.361558 0,0.05506 0.0178,0.102419 0.0537,0.142111 0.0367,0.04097 0.0809,0.0615 0.13274,0.0615 0.0444,0 0.0891,-0.01125 0.13399,-0.03384 0.025,-0.0128 0.0633,-0.03805 0.11513,-0.07559 0.0246,-0.01787 0.0433,-0.0268 0.0557,-0.0268 0.0186,0 0.0341,0.0069 0.0466,0.02113 0.0125,0.01366 0.0187,0.02903 0.0187,0.04612 0,0.01924 -0.008,0.03608 -0.0246,0.05059 -0.11393,0.09987 -0.22915,0.149789 -0.34566,0.149789 -0.0893,0 -0.16494,-0.03401 -0.22665,-0.101775 -0.0595,-0.06571 -0.0893,-0.143433 -0.0893,-0.233037 0,-0.144669 0.0614,-0.292912 0.18392,-0.444823 0.10227,-0.126744 0.20532,-0.190116 0.30932,-0.190116 0.0212,0 0.0402,0.0017 0.057,0.0034 0.0168,0.0017 0.0317,0.0043 0.0447,0.009 0.0152,-0.02182 0.0348,-0.03264 0.0589,-0.03264 z" /><path
       id="text3723-9"
       style="font-style:normal;font-variant:normal;font-weight:normal;font-stretch:normal;font-size:4.9389px;font-family:'Comic Sans MS';-inkscape-font-specification:'Comic Sans MS, Normal';font-variant-ligatures:normal;font-variant-caps:normal;font-variant-numeric:normal;font-variant-east-asian:normal;fill:#222222;fill-opacity:1;stroke:none;stroke-width:0.0173496;stroke-linecap:round;stroke-linejoin:round;stroke-dasharray:none"
       d="m 468.67916,23.816041 a 3.0660072,4.9057289 0 0 0 -3.066,4.905668 3.0660072,4.9057289 0 0 0 3.066,4.905678 3.0660072,4.9057289 0 0 0 3.06612,-4.905678 3.0660072,4.9057289 0 0 0 -3.06612,-4.905668 z m 0.007,2.167187 c 0.22481,2.58e-4 0.38824,0.161832 0.38824,0.383514 0,0.112091 -0.0271,0.182377 -0.10222,0.264585 -0.0826,0.0905 -0.23658,0.138005 -0.36481,0.112606 -0.0801,-0.01572 -0.12847,-0.04286 -0.19571,-0.109454 -0.24177,-0.239066 -0.0679,-0.651784 0.2745,-0.651251 z m -0.0952,0.886092 c 0.0403,9e-6 0.085,5.24e-4 0.1347,6.1e-4 l 0.34316,0.0052 0.0923,0.04492 c 0.0925,0.04492 0.21243,0.156437 0.25301,0.234814 0.0103,0.01993 0.10138,0.304646 0.20237,0.632887 0.19434,0.631598 0.20136,0.667458 0.1437,0.731492 -0.0369,0.04097 -0.11189,0.06863 -0.15827,0.05858 -0.0883,-0.01924 -0.10653,-0.06056 -0.27616,-0.62836 l -0.15883,-0.531928 h -0.0459 c -0.0253,0 -0.046,0.0043 -0.046,0.0077 0,0.0052 0.0777,0.271603 0.17269,0.593935 0.095,0.322305 0.2106,0.715928 0.25703,0.874546 0.0465,0.158619 0.0878,0.299106 0.0921,0.312317 0.008,0.02225 -0.0105,0.02414 -0.24315,0.02414 h -0.25092 v 0.719158 c 0,0.708945 -5.4e-4,0.719622 -0.0291,0.755628 -0.0623,0.07842 -0.17782,0.09396 -0.25453,0.03427 -0.0789,-0.06141 -0.0774,-0.04681 -0.0774,-0.808031 v -0.701052 h -0.0557 -0.0554 l -1.3e-4,0.696946 c -1e-5,0.6364 -0.003,0.701103 -0.0242,0.74411 -0.0485,0.09396 -0.15074,0.131125 -0.23831,0.08663 -0.026,-0.01323 -0.0605,-0.0414 -0.0765,-0.0627 -0.0284,-0.03796 -0.029,-0.05334 -0.0329,-0.751943 l -0.004,-0.713121 h -0.24342 c -0.22546,0 -0.24293,-0.0026 -0.23608,-0.02413 0.017,-0.05549 0.45891,-1.571794 0.48824,-1.675458 l 0.0321,-0.113302 h -0.0446 -0.0446 l -0.15908,0.53179 c -0.1708,0.570992 -0.1876,0.608846 -0.27854,0.62684 -0.0849,0.01684 -0.17477,-0.0463 -0.1889,-0.132499 -0.008,-0.04801 -0.003,-0.06639 0.30889,-1.080982 0.0708,-0.23046 0.12405,-0.318423 0.24288,-0.400666 0.10807,-0.07473 0.17716,-0.09258 0.45939,-0.09248 z m -0.87178,4.22506 c 0.028,0 0.0495,0.01503 0.0647,0.04535 0.008,0.01537 0.0235,0.05961 0.0473,0.132499 0.0255,0.07722 0.051,0.170309 0.0764,0.279127 l 0.0627,0.282838 c 0.0461,-0.105847 0.0922,-0.234618 0.13787,-0.386537 0.028,-0.09258 0.0494,-0.156866 0.0641,-0.19271 0.0388,-0.09435 0.0766,-0.141423 0.11331,-0.141423 0.0302,0 0.0516,0.01512 0.0641,0.04535 0.0155,0.03676 0.0313,0.124124 0.0473,0.262395 0.009,0.07 0.0233,0.154084 0.044,0.252234 l 0.0557,0.251564 c 0.0578,-0.137412 0.1302,-0.323285 0.21695,-0.557567 0.005,-0.0128 0.0155,-0.05308 0.0324,-0.120981 0.0125,-0.04999 0.0278,-0.08871 0.0459,-0.116454 0.0155,-0.02345 0.0358,-0.03522 0.0609,-0.03522 0.0435,0 0.0653,0.02147 0.0653,0.06408 0,0.0069 -0.007,0.0286 -0.0207,0.06408 l -0.0258,0.06914 -0.0355,0.113842 -0.19227,0.462243 c -0.0177,0.05076 -0.0481,0.124519 -0.0913,0.22139 -0.0155,0.0286 -0.0388,0.04295 -0.0699,0.04295 -0.0198,0 -0.0374,-0.0052 -0.0525,-0.01649 -0.0174,-0.0128 -0.0259,-0.02869 -0.0259,-0.04741 -0.0199,-0.05171 -0.0325,-0.09367 -0.0375,-0.126057 -0.005,-0.03247 -0.0221,-0.124348 -0.0511,-0.275837 -0.022,-0.114797 -0.0368,-0.206977 -0.0441,-0.276533 -0.0384,0.14083 -0.0796,0.259998 -0.1236,0.357727 -0.0509,0.113096 -0.0839,0.201686 -0.099,0.265694 0.005,0.0099 0.008,0.01941 0.008,0.02877 0,0.01924 -0.009,0.03496 -0.0259,0.04733 -0.0155,0.01151 -0.0331,0.01735 -0.0531,0.01735 -0.0582,0 -0.0874,-0.02577 -0.0874,-0.0773 l -0.0201,-0.08143 -0.0706,-0.313699 c -0.028,-0.10582 -0.0759,-0.257525 -0.1437,-0.455113 -0.003,-0.0089 -0.005,-0.01787 -0.005,-0.02543 0,-0.03968 0.0227,-0.05961 0.0679,-0.05961 z m 1.93221,0.0026 c 0.0297,0 0.0486,0.01933 0.0564,0.05815 0.007,0.03453 0.0103,0.07705 0.0103,0.127423 0,0.01752 -0.005,0.0329 -0.0142,0.04604 -0.0117,0.01666 -0.0283,0.02508 -0.0499,0.02508 -0.0277,0 -0.0483,-0.01606 -0.0621,-0.04801 -0.0121,-0.02731 -0.0233,-0.04398 -0.0336,-0.0499 -0.009,-0.0052 -0.0316,-0.0069 -0.0674,-0.0069 -0.0624,0 -0.13196,0.04733 -0.20833,0.142093 -0.10358,0.127173 -0.15536,0.247638 -0.15536,0.361575 0,0.05506 0.0179,0.102419 0.0537,0.142102 0.0366,0.04088 0.081,0.06141 0.13274,0.06141 0.0445,0 0.0891,-0.01117 0.13399,-0.03384 0.0251,-0.0128 0.0634,-0.03796 0.11513,-0.0755 0.0246,-0.01795 0.0433,-0.02697 0.0557,-0.02697 0.0185,0 0.034,0.0069 0.0466,0.02113 0.0125,0.01366 0.0187,0.02912 0.0187,0.04612 0,0.01924 -0.008,0.03616 -0.0246,0.05059 -0.11392,0.09984 -0.22914,0.149772 -0.34566,0.149772 -0.0893,0 -0.16494,-0.03384 -0.22664,-0.101767 -0.0595,-0.06562 -0.0893,-0.143433 -0.0893,-0.233036 0,-0.14467 0.0613,-0.292913 0.18393,-0.444832 0.10227,-0.126744 0.20531,-0.190108 0.30932,-0.190108 0.021,0 0.0402,6.27e-4 0.057,0.0026 0.0168,8.59e-4 0.0317,0.0052 0.0448,0.0089 0.0151,-0.02164 0.0348,-0.03264 0.059,-0.03264 z" /><text
       xml:space="preserve"
       style="font-style:normal;font-variant:normal;font-weight:normal;font-stretch:normal;font-size:4.24217px;font-family:'Comic Sans MS';-inkscape-font-specification:'Comic Sans MS, Normal';font-variant-ligatures:normal;font-variant-caps:normal;font-variant-numeric:normal;font-variant-east-asian:normal;fill:#000000;fill-opacity:1;stroke:none;stroke-width:0.0662947;stroke-linecap:round;stroke-linejoin:round;stroke-dasharray:none"
       x="469.74005"
       y="-101.12511"
       id="text1489-6-9-6-27-3-5-6"><tspan
         style="font-style:normal;font-variant:normal;font-weight:normal;font-stretch:normal;font-size:4.24217px;font-family:'Comic Sans MS';-inkscape-font-specification:'Comic Sans MS, Normal';font-variant-ligatures:normal;font-variant-caps:normal;font-variant-numeric:normal;font-variant-east-asian:normal;fill:#000000;fill-opacity:1;stroke:none;stroke-width:0.0662947;stroke-dasharray:none"
         x="469.74005"
         y="-101.12511"
         id="tspan2508-71-3-1-16-22">D013</tspan></text><text
       xml:space="preserve"
       style="font-style:normal;font-variant:normal;font-weight:normal;font-stretch:normal;font-size:4.24217px;font-family:'Comic Sans MS';-inkscape-font-specification:'Comic Sans MS, Normal';font-variant-ligatures:normal;font-variant-caps:normal;font-variant-numeric:normal;font-variant-east-asian:normal;fill:#000000;fill-opacity:1;stroke:none;stroke-width:0.0662947;stroke-linecap:round;stroke-linejoin:round;stroke-dasharray:none"
       x="465.9903"
       y="-123.73736"
       id="text1489-6-9-6-27-3-5-1"><tspan
         style="font-style:normal;font-variant:normal;font-weight:normal;font-stretch:normal;font-size:4.24217px;font-family:'Comic Sans MS';-inkscape-font-specification:'Comic Sans MS, Normal';font-variant-ligatures:normal;font-variant-caps:normal;font-variant-numeric:normal;font-variant-east-asian:normal;fill:#000000;fill-opacity:1;stroke:none;stroke-width:0.0662947;stroke-dasharray:none"
         x="465.9903"
         y="-123.73736"
         id="tspan2508-71-3-1-16-70">D014</tspan></text><text
       xml:space="preserve"
       style="font-style:normal;font-variant:normal;font-weight:normal;font-stretch:normal;font-size:4.24217px;font-family:'Comic Sans MS';-inkscape-font-specification:'Comic Sans MS, Normal';font-variant-ligatures:normal;font-variant-caps:normal;font-variant-numeric:normal;font-variant-east-asian:normal;fill:#000000;fill-opacity:1;stroke:none;stroke-width:0.0662947;stroke-linecap:round;stroke-linejoin:round;stroke-dasharray:none"
       x="445.35947"
       y="-133.6008"
       id="text1489-6-9-6-27-3-5-52"><tspan
         style="font-style:normal;font-variant:normal;font-weight:normal;font-stretch:normal;font-size:4.24217px;font-family:'Comic Sans MS';-inkscape-font-specification:'Comic Sans MS, Normal';font-variant-ligatures:normal;font-variant-caps:normal;font-variant-numeric:normal;font-variant-east-asian:normal;fill:#000000;fill-opacity:1;stroke:none;stroke-width:0.0662947;stroke-dasharray:none"
         x="445.35947"
         y="-133.6008"
         id="tspan2508-71-3-1-16-4">D015</tspan></text><text
       xml:space="preserve"
       style="font-style:normal;font-variant:normal;font-weight:normal;font-stretch:normal;font-size:4.24217px;font-family:'Comic Sans MS';-inkscape-font-specification:'Comic Sans MS, Normal';font-variant-ligatures:normal;font-variant-caps:normal;font-variant-numeric:normal;font-variant-east-asian:normal;fill:#000000;fill-opacity:1;stroke:none;stroke-width:0.0662947;stroke-linecap:round;stroke-linejoin:round;stroke-dasharray:none"
       x="429.06067"
       y="-133.05498"
       id="text1489-6-9-6-27-3-5-3"><tspan
         style="font-style:normal;font-variant:normal;font-weight:normal;font-stretch:normal;font-size:4.24217px;font-family:'Comic Sans MS';-inkscape-font-specification:'Comic Sans MS, Normal';font-variant-ligatures:normal;font-variant-caps:normal;font-variant-numeric:normal;font-variant-east-asian:normal;fill:#000000;fill-opacity:1;stroke:none;stroke-width:0.0662947;stroke-dasharray:none"
         x="429.06067"
         y="-133.05498"
         id="tspan2508-71-3-1-16-8">D016</tspan></text><text
       xml:space="preserve"
       style="font-style:normal;font-variant:normal;font-weight:normal;font-stretch:normal;font-size:4.24217px;font-family:'Comic Sans MS';-inkscape-font-specification:'Comic Sans MS, Normal';font-variant-ligatures:normal;font-variant-caps:normal;font-variant-numeric:normal;font-variant-east-asian:normal;fill:#000000;fill-opacity:1;stroke:none;stroke-width:0.0662947;stroke-linecap:round;stroke-linejoin:round;stroke-dasharray:none"
       x="413.15256"
       y="-132.82773"
       id="text1489-6-9-6-27-3-5-66"><tspan
         style="font-style:normal;font-variant:normal;font-weight:normal;font-stretch:normal;font-size:4.24217px;font-family:'Comic Sans MS';-inkscape-font-specification:'Comic Sans MS, Normal';font-variant-ligatures:normal;font-variant-caps:normal;font-variant-numeric:normal;font-variant-east-asian:normal;fill:#000000;fill-opacity:1;stroke:none;stroke-width:0.0662947;stroke-dasharray:none"
         x="413.15256"
         y="-132.82773"
         id="tspan2508-71-3-1-16-81">D017</tspan></text><text
       xml:space="preserve"
       style="font-style:normal;font-variant:normal;font-weight:normal;font-stretch:normal;font-size:4.24217px;font-family:'Comic Sans MS';-inkscape-font-specification:'Comic Sans MS, Normal';font-variant-ligatures:normal;font-variant-caps:normal;font-variant-numeric:normal;font-variant-east-asian:normal;fill:#000000;fill-opacity:1;stroke:none;stroke-width:0.0662947;stroke-linecap:round;stroke-linejoin:round;stroke-dasharray:none"
       x="391.4458"
       y="-132.79732"
       id="text1489-6-9-6-27-3-5-90"><tspan
         style="font-style:normal;font-variant:normal;font-weight:normal;font-stretch:normal;font-size:4.24217px;font-family:'Comic Sans MS';-inkscape-font-specification:'Comic Sans MS, Normal';font-variant-ligatures:normal;font-variant-caps:normal;font-variant-numeric:normal;font-variant-east-asian:normal;fill:#000000;fill-opacity:1;stroke:none;stroke-width:0.0662947;stroke-dasharray:none"
         x="391.4458"
         y="-132.79732"
         id="tspan2508-71-3-1-16-5">D018</tspan></text><text
       xml:space="preserve"
       style="font-style:normal;font-variant:normal;font-weight:normal;font-stretch:normal;font-size:4.24217px;font-family:'Comic Sans MS';-inkscape-font-specification:'Comic Sans MS, Normal';font-variant-ligatures:normal;font-variant-caps:normal;font-variant-numeric:normal;font-variant-east-asian:normal;fill:#000000;fill-opacity:1;stroke:none;stroke-width:0.0662947;stroke-linecap:round;stroke-linejoin:round;stroke-dasharray:none"
       x="506.90616"
       y="-157.46422"
       id="text1489-6-9-6-27-3-5-63"><tspan
         style="font-style:normal;font-variant:normal;font-weight:normal;font-stretch:normal;font-size:4.24217px;font-family:'Comic Sans MS';-inkscape-font-specification:'Comic Sans MS, Normal';font-variant-ligatures:normal;font-variant-caps:normal;font-variant-numeric:normal;font-variant-east-asian:normal;fill:#000000;fill-opacity:1;stroke:none;stroke-width:0.0662947;stroke-dasharray:none"
         x="506.90616"
         y="-157.46422"
         id="tspan2508-71-3-1-16-21">D028</tspan></text><text
       xml:space="preserve"
       style="font-style:normal;font-variant:normal;font-weight:normal;font-stretch:normal;font-size:4.24217px;font-family:'Comic Sans MS';-inkscape-font-specification:'Comic Sans MS, Normal';font-variant-ligatures:normal;font-variant-caps:normal;font-variant-numeric:normal;font-variant-east-asian:normal;fill:#000000;fill-opacity:1;stroke:none;stroke-width:0.0662947;stroke-linecap:round;stroke-linejoin:round;stroke-dasharray:none"
       x="534.34204"
       y="-157.62804"
       id="text1489-6-9-6-27-3-5-63-1"><tspan
         style="font-style:normal;font-variant:normal;font-weight:normal;font-stretch:normal;font-size:4.24217px;font-family:'Comic Sans MS';-inkscape-font-specification:'Comic Sans MS, Normal';font-variant-ligatures:normal;font-variant-caps:normal;font-variant-numeric:normal;font-variant-east-asian:normal;fill:#000000;fill-opacity:1;stroke:none;stroke-width:0.0662947;stroke-dasharray:none"
         x="534.34204"
         y="-157.62804"
         id="tspan2508-71-3-1-16-21-2">D029</tspan></text><text
       xml:space="preserve"
       style="font-style:normal;font-variant:normal;font-weight:normal;font-stretch:normal;font-size:4.24217px;font-family:'Comic Sans MS';-inkscape-font-specification:'Comic Sans MS, Normal';font-variant-ligatures:normal;font-variant-caps:normal;font-variant-numeric:normal;font-variant-east-asian:normal;fill:#000000;fill-opacity:1;stroke:none;stroke-width:0.0662947;stroke-linecap:round;stroke-linejoin:round;stroke-dasharray:none"
       x="471.5098"
       y="-158.35117"
       id="text1489-6-9-6-27-3-5-63-0"><tspan
         style="font-style:normal;font-variant:normal;font-weight:normal;font-stretch:normal;font-size:4.24217px;font-family:'Comic Sans MS';-inkscape-font-specification:'Comic Sans MS, Normal';font-variant-ligatures:normal;font-variant-caps:normal;font-variant-numeric:normal;font-variant-east-asian:normal;fill:#000000;fill-opacity:1;stroke:none;stroke-width:0.0662947;stroke-dasharray:none"
         x="471.5098"
         y="-158.35117"
         id="tspan2508-71-3-1-16-21-0">D027</tspan></text><text
       xml:space="preserve"
       style="font-style:normal;font-variant:normal;font-weight:normal;font-stretch:normal;font-size:4.24217px;font-family:'Comic Sans MS';-inkscape-font-specification:'Comic Sans MS, Normal';font-variant-ligatures:normal;font-variant-caps:normal;font-variant-numeric:normal;font-variant-east-asian:normal;fill:#000000;fill-opacity:1;stroke:none;stroke-width:0.0662947;stroke-linecap:round;stroke-linejoin:round;stroke-dasharray:none"
       x="455.92224"
       y="-158.02977"
       id="text1489-6-9-6-27-3-5-63-6"><tspan
         style="font-style:normal;font-variant:normal;font-weight:normal;font-stretch:normal;font-size:4.24217px;font-family:'Comic Sans MS';-inkscape-font-specification:'Comic Sans MS, Normal';font-variant-ligatures:normal;font-variant-caps:normal;font-variant-numeric:normal;font-variant-east-asian:normal;fill:#000000;fill-opacity:1;stroke:none;stroke-width:0.0662947;stroke-dasharray:none"
         x="455.92224"
         y="-158.02977"
         id="tspan2508-71-3-1-16-21-1">D026</tspan></text><text
       xml:space="preserve"
       style="font-style:normal;font-variant:normal;font-weight:normal;font-stretch:normal;font-size:4.24217px;font-family:'Comic Sans MS';-inkscape-font-specification:'Comic Sans MS, Normal';font-variant-ligatures:normal;font-variant-caps:normal;font-variant-numeric:normal;font-variant-east-asian:normal;fill:#000000;fill-opacity:1;stroke:none;stroke-width:0.0662947;stroke-linecap:round;stroke-linejoin:round;stroke-dasharray:none"
       x="43.89241"
       y="-468.56369"
       id="text1489-6-9-6-27-3-5-63-11"
       transform="rotate(63.956238)"><tspan
         style="font-style:normal;font-variant:normal;font-weight:normal;font-stretch:normal;font-size:4.24217px;font-family:'Comic Sans MS';-inkscape-font-specification:'Comic Sans MS, Normal';font-variant-ligatures:normal;font-variant-caps:normal;font-variant-numeric:normal;font-variant-east-asian:normal;fill:#000000;fill-opacity:1;stroke:none;stroke-width:0.0662947;stroke-dasharray:none"
         x="43.89241"
         y="-468.56369"
         id="tspan2508-71-3-1-16-21-7">D025</tspan></text><text
       xml:space="preserve"
       style="font-style:normal;font-variant:normal;font-weight:normal;font-stretch:normal;font-size:4.24217px;font-family:'Comic Sans MS';-inkscape-font-specification:'Comic Sans MS, Normal';font-variant-ligatures:normal;font-variant-caps:normal;font-variant-numeric:normal;font-variant-east-asian:normal;fill:#000000;fill-opacity:1;stroke:none;stroke-width:0.0662947;stroke-linecap:round;stroke-linejoin:round;stroke-dasharray:none"
       x="53.370781"
       y="-456.85016"
       id="text1489-6-9-6-27-3-5-63-9"
       transform="rotate(62.663481)"><tspan
         style="font-style:normal;font-variant:normal;font-weight:normal;font-stretch:normal;font-size:4.24217px;font-family:'Comic Sans MS';-inkscape-font-specification:'Comic Sans MS, Normal';font-variant-ligatures:normal;font-variant-caps:normal;font-variant-numeric:normal;font-variant-east-asian:normal;fill:#000000;fill-opacity:1;stroke:none;stroke-width:0.0662947;stroke-dasharray:none"
         x="53.370781"
         y="-456.85016"
         id="tspan2508-71-3-1-16-21-3">D024</tspan></text><text
       xml:space="preserve"
       style="font-style:normal;font-variant:normal;font-weight:normal;font-stretch:normal;font-size:4.24217px;font-family:'Comic Sans MS';-inkscape-font-specification:'Comic Sans MS, Normal';font-variant-ligatures:normal;font-variant-caps:normal;font-variant-numeric:normal;font-variant-east-asian:normal;fill:#000000;fill-opacity:1;stroke:none;stroke-width:0.0662947;stroke-linecap:round;stroke-linejoin:round;stroke-dasharray:none"
       x="89.767754"
       y="-441.20673"
       id="text1489-6-9-6-27-3-5-63-8"
       transform="rotate(57.42011)"><tspan
         style="font-style:normal;font-variant:normal;font-weight:normal;font-stretch:normal;font-size:4.24217px;font-family:'Comic Sans MS';-inkscape-font-specification:'Comic Sans MS, Normal';font-variant-ligatures:normal;font-variant-caps:normal;font-variant-numeric:normal;font-variant-east-asian:normal;fill:#000000;fill-opacity:1;stroke:none;stroke-width:0.0662947;stroke-dasharray:none"
         x="89.767754"
         y="-441.20673"
         id="tspan2508-71-3-1-16-21-35">D023</tspan></text><text
       xml:space="preserve"
       style="font-style:normal;font-variant:normal;font-weight:normal;font-stretch:normal;font-size:4.24217px;font-family:'Comic Sans MS';-inkscape-font-specification:'Comic Sans MS, Normal';font-variant-ligatures:normal;font-variant-caps:normal;font-variant-numeric:normal;font-variant-east-asian:normal;fill:#000000;fill-opacity:1;stroke:none;stroke-width:0.0662947;stroke-linecap:round;stroke-linejoin:round;stroke-dasharray:none"
       x="42.321056"
       y="-440.43509"
       id="text1489-6-9-6-27-3-5-63-98"
       transform="rotate(62.464531)"><tspan
         style="font-style:normal;font-variant:normal;font-weight:normal;font-stretch:normal;font-size:4.24217px;font-family:'Comic Sans MS';-inkscape-font-specification:'Comic Sans MS, Normal';font-variant-ligatures:normal;font-variant-caps:normal;font-variant-numeric:normal;font-variant-east-asian:normal;fill:#000000;fill-opacity:1;stroke:none;stroke-width:0.0662947;stroke-dasharray:none"
         x="42.321056"
         y="-440.43509"
         id="tspan2508-71-3-1-16-21-31">D022</tspan></text><text
       xml:space="preserve"
       style="font-style:normal;font-variant:normal;font-weight:normal;font-stretch:normal;font-size:4.24217px;font-family:'Comic Sans MS';-inkscape-font-specification:'Comic Sans MS, Normal';font-variant-ligatures:normal;font-variant-caps:normal;font-variant-numeric:normal;font-variant-east-asian:normal;fill:#000000;fill-opacity:1;stroke:none;stroke-width:0.0662947;stroke-linecap:round;stroke-linejoin:round;stroke-dasharray:none"
       x="118.87847"
       y="-414.086"
       id="text1489-6-9-6-27-3-5-63-67"
       transform="rotate(51.846712)"><tspan
         style="font-style:normal;font-variant:normal;font-weight:normal;font-stretch:normal;font-size:4.24217px;font-family:'Comic Sans MS';-inkscape-font-specification:'Comic Sans MS, Normal';font-variant-ligatures:normal;font-variant-caps:normal;font-variant-numeric:normal;font-variant-east-asian:normal;fill:#000000;fill-opacity:1;stroke:none;stroke-width:0.0662947;stroke-dasharray:none"
         x="118.87847"
         y="-414.086"
         id="tspan2508-71-3-1-16-21-6">D021</tspan></text><text
       xml:space="preserve"
       style="font-style:normal;font-variant:normal;font-weight:normal;font-stretch:normal;font-size:4.24217px;font-family:'Comic Sans MS';-inkscape-font-specification:'Comic Sans MS, Normal';font-variant-ligatures:normal;font-variant-caps:normal;font-variant-numeric:normal;font-variant-east-asian:normal;fill:#000000;fill-opacity:1;stroke:none;stroke-width:0.0662947;stroke-linecap:round;stroke-linejoin:round;stroke-dasharray:none"
       x="235.60916"
       y="-347.73657"
       id="text1489-6-9-6-27-3-5-63-7"
       transform="rotate(33.338727)"><tspan
         style="font-style:normal;font-variant:normal;font-weight:normal;font-stretch:normal;font-size:4.24217px;font-family:'Comic Sans MS';-inkscape-font-specification:'Comic Sans MS, Normal';font-variant-ligatures:normal;font-variant-caps:normal;font-variant-numeric:normal;font-variant-east-asian:normal;fill:#000000;fill-opacity:1;stroke:none;stroke-width:0.0662947;stroke-dasharray:none"
         x="235.60916"
         y="-347.73657"
         id="tspan2508-71-3-1-16-21-64">D020</tspan></text><text
       xml:space="preserve"
       style="font-style:normal;font-variant:normal;font-weight:normal;font-stretch:normal;font-size:3.042px;font-family:'Comic Sans MS';-inkscape-font-specification:'Comic Sans MS, Normal';font-variant-ligatures:normal;font-variant-caps:normal;font-variant-numeric:normal;font-variant-east-asian:normal;fill:#000000;fill-opacity:1;stroke:none;stroke-width:0.047539;stroke-linecap:round;stroke-linejoin:round;stroke-dasharray:none"
       x="378.96393"
       y="-164.63406"
       id="text1489-6-9-6-27-3-5-63-2"><tspan
         style="font-style:normal;font-variant:normal;font-weight:normal;font-stretch:normal;font-size:3.042px;font-family:'Comic Sans MS';-inkscape-font-specification:'Comic Sans MS, Normal';font-variant-ligatures:normal;font-variant-caps:normal;font-variant-numeric:normal;font-variant-east-asian:normal;fill:#000000;fill-opacity:1;stroke:none;stroke-width:0.047539;stroke-dasharray:none"
         x="378.96393"
         y="-164.63406"
         id="tspan2508-71-3-1-16-21-09">D019</tspan></text><text
       xml:space="preserve"
       style="font-style:normal;font-variant:normal;font-weight:normal;font-stretch:normal;font-size:4.24217px;font-family:'Comic Sans MS';-inkscape-font-specification:'Comic Sans MS, Normal';font-variant-ligatures:normal;font-variant-caps:normal;font-variant-numeric:normal;font-variant-east-asian:normal;fill:#000000;fill-opacity:1;stroke:none;stroke-width:0.0662947;stroke-linecap:round;stroke-linejoin:round;stroke-dasharray:none"
       x="360.38821"
       y="-117.13253"
       id="text1489-6-9-6-27-3-5-63-4"><tspan
         style="font-style:normal;font-variant:normal;font-weight:normal;font-stretch:normal;font-size:4.24217px;font-family:'Comic Sans MS';-inkscape-font-specification:'Comic Sans MS, Normal';font-variant-ligatures:normal;font-variant-caps:normal;font-variant-numeric:normal;font-variant-east-asian:normal;fill:#000000;fill-opacity:1;stroke:none;stroke-width:0.0662947;stroke-dasharray:none"
         x="360.38821"
         y="-117.13253"
         id="tspan2508-71-3-1-16-21-05">D001</tspan></text><text
       xml:space="preserve"
       style="font-style:normal;font-variant:normal;font-weight:normal;font-stretch:normal;font-size:4.24217px;font-family:'Comic Sans MS';-inkscape-font-specification:'Comic Sans MS, Normal';font-variant-ligatures:normal;font-variant-caps:normal;font-variant-numeric:normal;font-variant-east-asian:normal;fill:#000000;fill-opacity:1;stroke:none;stroke-width:0.0662947;stroke-linecap:round;stroke-linejoin:round;stroke-dasharray:none"
       x="363.1319"
       y="-72.493553"
       id="text1489-6-9-6-27-3-5-63-95"><tspan
         style="font-style:normal;font-variant:normal;font-weight:normal;font-stretch:normal;font-size:4.24217px;font-family:'Comic Sans MS';-inkscape-font-specification:'Comic Sans MS, Normal';font-variant-ligatures:normal;font-variant-caps:normal;font-variant-numeric:normal;font-variant-east-asian:normal;fill:#000000;fill-opacity:1;stroke:none;stroke-width:0.0662947;stroke-dasharray:none"
         x="363.1319"
         y="-72.493553"
         id="tspan2508-71-3-1-16-21-4">D002</tspan></text><text
       xml:space="preserve"
       style="font-style:normal;font-variant:normal;font-weight:normal;font-stretch:normal;font-size:4.24217px;font-family:'Comic Sans MS';-inkscape-font-specification:'Comic Sans MS, Normal';font-variant-ligatures:normal;font-variant-caps:normal;font-variant-numeric:normal;font-variant-east-asian:normal;fill:#000000;fill-opacity:1;stroke:none;stroke-width:0.0662947;stroke-linecap:round;stroke-linejoin:round;stroke-dasharray:none"
       x="364.26819"
       y="-40.336395"
       id="text1489-6-9-6-27-3-5-63-3"><tspan
         style="font-style:normal;font-variant:normal;font-weight:normal;font-stretch:normal;font-size:4.24217px;font-family:'Comic Sans MS';-inkscape-font-specification:'Comic Sans MS, Normal';font-variant-ligatures:normal;font-variant-caps:normal;font-variant-numeric:normal;font-variant-east-asian:normal;fill:#000000;fill-opacity:1;stroke:none;stroke-width:0.0662947;stroke-dasharray:none"
         x="364.26819"
         y="-40.336395"
         id="tspan2508-71-3-1-16-21-76">D003</tspan></text><text
       xml:space="preserve"
       style="font-style:normal;font-variant:normal;font-weight:normal;font-stretch:normal;font-size:4.24217px;font-family:'Comic Sans MS';-inkscape-font-specification:'Comic Sans MS, Normal';font-variant-ligatures:normal;font-variant-caps:normal;font-variant-numeric:normal;font-variant-east-asian:normal;fill:#000000;fill-opacity:1;stroke:none;stroke-width:0.0662947;stroke-linecap:round;stroke-linejoin:round;stroke-dasharray:none"
       x="360.0639"
       y="-12.497164"
       id="text1489-6-9-6-27-3-5-63-45"><tspan
         style="font-style:normal;font-variant:normal;font-weight:normal;font-stretch:normal;font-size:4.24217px;font-family:'Comic Sans MS';-inkscape-font-specification:'Comic Sans MS, Normal';font-variant-ligatures:normal;font-variant-caps:normal;font-variant-numeric:normal;font-variant-east-asian:normal;fill:#000000;fill-opacity:1;stroke:none;stroke-width:0.0662947;stroke-dasharray:none"
         x="360.0639"
         y="-12.497164"
         id="tspan2508-71-3-1-16-21-02">D004</tspan></text><text
       xml:space="preserve"
       style="font-style:normal;font-variant:normal;font-weight:normal;font-stretch:normal;font-size:4.24217px;font-family:'Comic Sans MS';-inkscape-font-specification:'Comic Sans MS, Normal';font-variant-ligatures:normal;font-variant-caps:normal;font-variant-numeric:normal;font-variant-east-asian:normal;fill:#000000;fill-opacity:1;stroke:none;stroke-width:0.0662947;stroke-linecap:round;stroke-linejoin:round;stroke-dasharray:none"
       x="365.40448"
       y="4.4336472"
       id="text1489-6-9-6-27-3-5-63-03"><tspan
         style="font-style:normal;font-variant:normal;font-weight:normal;font-stretch:normal;font-size:4.24217px;font-family:'Comic Sans MS';-inkscape-font-specification:'Comic Sans MS, Normal';font-variant-ligatures:normal;font-variant-caps:normal;font-variant-numeric:normal;font-variant-east-asian:normal;fill:#000000;fill-opacity:1;stroke:none;stroke-width:0.0662947;stroke-dasharray:none"
         x="365.40448"
         y="4.4336472"
         id="tspan2508-71-3-1-16-21-44">D005</tspan></text><text
       xml:space="preserve"
       style="font-style:normal;font-variant:normal;font-weight:normal;font-stretch:normal;font-size:4.24217px;font-family:'Comic Sans MS';-inkscape-font-specification:'Comic Sans MS, Normal';font-variant-ligatures:normal;font-variant-caps:normal;font-variant-numeric:normal;font-variant-east-asian:normal;fill:#000000;fill-opacity:1;stroke:none;stroke-width:0.0662947;stroke-linecap:round;stroke-linejoin:round;stroke-dasharray:none"
       x="390.97113"
       y="26.591379"
       id="text1489-6-9-6-27-3-5-63-79"><tspan
         style="font-style:normal;font-variant:normal;font-weight:normal;font-stretch:normal;font-size:4.24217px;font-family:'Comic Sans MS';-inkscape-font-specification:'Comic Sans MS, Normal';font-variant-ligatures:normal;font-variant-caps:normal;font-variant-numeric:normal;font-variant-east-asian:normal;fill:#000000;fill-opacity:1;stroke:none;stroke-width:0.0662947;stroke-dasharray:none"
         x="390.97113"
         y="26.591379"
         id="tspan2508-71-3-1-16-21-25">D006</tspan></text><text
       xml:space="preserve"
       style="font-style:normal;font-variant:normal;font-weight:normal;font-stretch:normal;font-size:4.24217px;font-family:'Comic Sans MS';-inkscape-font-specification:'Comic Sans MS, Normal';font-variant-ligatures:normal;font-variant-caps:normal;font-variant-numeric:normal;font-variant-east-asian:normal;fill:#000000;fill-opacity:1;stroke:none;stroke-width:0.0662947;stroke-linecap:round;stroke-linejoin:round;stroke-dasharray:none"
       x="406.42474"
       y="25.227831"
       id="text1489-6-9-6-27-3-5-63-22"><tspan
         style="font-style:normal;font-variant:normal;font-weight:normal;font-stretch:normal;font-size:4.24217px;font-family:'Comic Sans MS';-inkscape-font-specification:'Comic Sans MS, Normal';font-variant-ligatures:normal;font-variant-caps:normal;font-variant-numeric:normal;font-variant-east-asian:normal;fill:#000000;fill-opacity:1;stroke:none;stroke-width:0.0662947;stroke-dasharray:none"
         x="406.42474"
         y="25.227831"
         id="tspan2508-71-3-1-16-21-39">D007</tspan></text><text
       xml:space="preserve"
       style="font-style:normal;font-variant:normal;font-weight:normal;font-stretch:normal;font-size:4.24217px;font-family:'Comic Sans MS';-inkscape-font-specification:'Comic Sans MS, Normal';font-variant-ligatures:normal;font-variant-caps:normal;font-variant-numeric:normal;font-variant-east-asian:normal;fill:#000000;fill-opacity:1;stroke:none;stroke-width:0.0662947;stroke-linecap:round;stroke-linejoin:round;stroke-dasharray:none"
       x="427.07724"
       y="26.128336"
       id="text1489-6-9-6-27-3-5-63-17"><tspan
         style="font-style:normal;font-variant:normal;font-weight:normal;font-stretch:normal;font-size:4.24217px;font-family:'Comic Sans MS';-inkscape-font-specification:'Comic Sans MS, Normal';font-variant-ligatures:normal;font-variant-caps:normal;font-variant-numeric:normal;font-variant-east-asian:normal;fill:#000000;fill-opacity:1;stroke:none;stroke-width:0.0662947;stroke-dasharray:none"
         x="427.07724"
         y="26.128336"
         id="tspan2508-71-3-1-16-21-26">D008</tspan></text><text
       xml:space="preserve"
       style="font-style:normal;font-variant:normal;font-weight:normal;font-stretch:normal;font-size:4.24217px;font-family:'Comic Sans MS';-inkscape-font-specification:'Comic Sans MS, Normal';font-variant-ligatures:normal;font-variant-caps:normal;font-variant-numeric:normal;font-variant-east-asian:normal;fill:#000000;fill-opacity:1;stroke:none;stroke-width:0.0662947;stroke-linecap:round;stroke-linejoin:round;stroke-dasharray:none"
       x="441.13818"
       y="28.516636"
       id="text1489-6-9-6-27-3-5-63-10"><tspan
         style="font-style:normal;font-variant:normal;font-weight:normal;font-stretch:normal;font-size:4.24217px;font-family:'Comic Sans MS';-inkscape-font-specification:'Comic Sans MS, Normal';font-variant-ligatures:normal;font-variant-caps:normal;font-variant-numeric:normal;font-variant-east-asian:normal;fill:#000000;fill-opacity:1;stroke:none;stroke-width:0.0662947;stroke-dasharray:none"
         x="441.13818"
         y="28.516636"
         id="tspan2508-71-3-1-16-21-77">D009</tspan></text><path
       id="path2106"
       style="fill:none;stroke:#000000;stroke-width:0.75;stroke-linecap:round;stroke-linejoin:round;stroke-dasharray:none;paint-order:stroke fill markers"
       d="m 377.67508,-170.70128 v 10.72061 h 10.19268 m 102.20975,60.127401 h 23.38582 m 11.57035,7.244575 -0.48209,9.159692 28.2943,0.316225 m -13.84981,-46.032593 h -19.94304 v 14.93796 h 39.14074 m -96.86183,-16.41988 h 24.04956 M 404.17359,19.718093 v 14.170581 m 17.04443,-14.170581 v 14.170581 m 16.98762,-14.170581 v 14.170581 m 69.63353,-9.349679 h -17.76166 m -4.69575,-140.287975 h -24.05252 m 28.74827,41.781066 h 23.38582 m -52.13409,-9.32039 h 24.05252 m 0,33.264164 h -24.05252 m 28.74827,3.053227 h 23.38582 m -23.38582,16.715733 h 23.38582 m -52.13409,10.340285 h 24.05252 m -24.05252,32.482003 h 24.05252 m 4.69575,1.124875 h 23.38582 M 490.07751,-130.13554 h 23.38582 m -23.38582,12.55606 h 23.38582 m 0,-23.30837 V 21.485758 h -5.62416 v 14.618694 m 12.89952,0 H 490.07751 V -141.39498 m -10.32835,164.875161 0.0886,3.710302 h 5.34316 v 6.690761 l -23.65974,0.0077 m 23.86052,-175.385784 -0.003,162.149842 h -5.54394 l -0.0852,2.827148 -18.42001,-0.025 m 56.87157,-79.987522 h 34.35261 m -34.35261,9.857703 v -45.934025 h 34.74886 M 518.20081,26.587986 V -46.67465 h 34.24423 m -8.62077,66.302822 v 7.158665 h -19.43064 v -7.385922 z m 7.15867,-190.329452 v 23.86219 m -22.38502,-23.86219 v 23.86219 m -58.28136,-23.86219 v 22.10094 m -21.14567,-22.10094 v 22.10094 m -10.11303,-22.10094 v 22.10094 m -10.28133,-22.10094 v 22.10094 m -9.88283,-22.10094 v 22.10094 m -10.5256,-22.10094 v 22.10094 m -9.76236,0 v -22.10094 m 27.55843,28.72755 v 14.62211 m -20.39928,-14.64748 v 14.64748 m 35.70666,0 v -14.60307 m -54.79747,21.02314 h 10.56811 v -6.42007 h 64.08705 M 354.53479,22.77133 h 7.55273 v -1.526622 h 17.48529 m 7.10127,-7.954474 h 9.32038 v 6.427859 h 60.26116 v 14.170581 m -151.21533,9.210754 v -8.982939 m 203.48184,8.982939 H 376.34487 m 132.17726,19.59434 v -19.59434 h 2.65149 m 9.24297,19.59434 V 43.149487 h -3.18162 m 9.3655,6.05571 v 8.075694 m 10.96754,5.412877 V 49.527288 M 498.48609,-170.70128 v 23.86219 h 102.83472 v -23.86219 m -213.45305,0 v 22.10094 h 101.81271 v -22.10094 m -135.14568,78.17293 h 25.03802 m 0,38.567141 h -25.03802 m 0,29.736461 25.03802,0.160697 m 0,20.5816051 H 354.53479 M 386.67408,-142.02285 c 50.79642,-0.55543 101.48636,0.5863 152.25988,1.68734 m -152.25988,-1.68734 V 33.888674 h 74.84716 m 0,0 c -0.29919,-63.134575 -0.39935,-120.358745 -0.14094,-176.072214 m -84.9908,204.877308 -0.0447,-19.59434 m -21.81008,-8.918657 h 25.03802 V -142.10319 H 354.53479 M 550.02197,62.693768 V 50.170069 l 11.3291,0.05901 0.48992,-22.718239 -9.70095,0.07584 0.29514,-73.363791 0.56956,-51.803537 4.89138,0.05695 0.56245,-31.563062 -19.46249,-0.0786 -0.0621,-11.17014 78.90195,-0.40174 v -29.96402 H 354.53479 V 34.180771 c -20.64279,-0.02663 -41.28558,-0.0536 -61.92838,-0.08048 V 62.69377 Z m -184.48238,0 0.0426,-19.59434 h -60.5419 v 19.59434 m -503.5469,-211.136228 h 22.86433 m -4.77081,14.59481 h -6.13058 v -9.00674 m 85.09925,8.94382 h -46.75643 v -1.99734 m -33.23149,-12.53455 v -24.094 m -35.26787,196.120611 h 5.56039 m -6.44927,17.704285 v 21.862272 m 21.82994,-0.046 V 41.28843 m 20.44467,0 V 63.061635 M -225.3748,34.001909 v 7.286521 h 58.30136 m -5.43304,-7.148369 v 2.746353 h 5.43304 v 26.157864 m 12.961,-38.739596 v 9.845204 m 31.89287,0 v -9.845204 h -37.65344 m -20.54008,-167.109412 v 8.95707 h 11.66569 m -47.95281,-9.24756 V 34.024586 m 18.1936,-182.467046 v -24.09401 m 29.75921,29.75579 h 31.20493 m 36.09805,8.8701 v -38.62589 h -99.74395 v 5.03269 h -15.51184 v 24.40856 c 14.0875,0 25.68572,0.24527 39.04455,0.30558 m 4.96036,0.0131 c 1.2949,6.8e-4 2.60972,-3.9e-4 3.9479,-0.004 v 1.68826 m 0,172.327611 v 2.914645 h 66.72471 v 28.757343 l -123.24839,0.266902 m 56.52368,-29.024335 -3.75908,-0.0098 m -4.49254,-0.01176 h -48.37578 m 56.6274,-168.904076 V 24.206887 h -12.85562 v 9.909382 m -27.40161,-189.176399 v 4.9312 h 5.68272 v 7.09918 m -13.3783,-12.03038 h 12.90011 v -6.93935 h 1.73485 v -5.50429 m 32.22382,-5.03269 v 24.094 h -5.80085" /></g></svg>
