<?xml version="1.0" encoding="UTF-8" standalone="no"?>
<!-- Created with Inkscape (http://www.inkscape.org/) -->

<svg
   width="968.6048mm"
   height="988.06927mm"
   viewBox="0 0 968.6048 988.06927"
   version="1.1"
   id="svg5"
   xml:space="preserve"
   xmlns:xlink="http://www.w3.org/1999/xlink"
   xmlns="http://www.w3.org/2000/svg"
   xmlns:svg="http://www.w3.org/2000/svg"><defs
     id="defs2" /><g
     id="layer1"
     transform="translate(280.2699,360.6971)"><path
       id="path17704"
       style="display:inline;fill:none;fill-opacity:1;stroke:#000000;stroke-width:5;stroke-linecap:round;stroke-linejoin:round;stroke-dasharray:10, 10;stroke-dashoffset:0;stroke-opacity:1;paint-order:stroke fill markers"
       d="M -128.69418,608.39825 V 265.49826 L -276.07349,226.00808 M 685.83494,-294.16746 V 458.11491 M 638.20967,-358.1971 h -897.58646 m 2.646,63.06206 h 897.58644 v 752.28241 l -720.57387,166.97943 -23.94725,-6.73519 2.81275,-383.18656 -121.09277,-30.94995 -45.287,-12.13463" /><path
       style="display:inline;fill:none;fill-opacity:1;stroke:#000000;stroke-width:7.908;stroke-linecap:round;stroke-linejoin:round;stroke-dasharray:none;stroke-opacity:1;paint-order:stroke fill markers"
       d="m -214.82729,-206.52697 522.67153,9e-5 v -87.64058 l 55.44503,-8e-5 v 87.17862 H 640.30474 V 118.01292 H 509.05213 v 153.32906 l -125.18922,6e-5 v 77.46147 h -88.74669 -88.7466 v 159.55515 l -46.7628,30.3287 -0.24329,30.39111 -126.833865,29.39137 0.529178,-61.31631 -46.024083,-46.02444 V 279.52735 h -9.16905 v -15.58262 h -51.86182 l -28.50486,-28.5048 -122.09052,-32.71404 v -409.19125 z"
       id="path15494-2" /><path
       style="display:inline;fill:#f1f1f1;fill-opacity:1;stroke:none;stroke-width:7.908;stroke-linecap:round;stroke-linejoin:round;stroke-dasharray:none;stroke-opacity:1;paint-order:stroke fill markers"
       d="m -214.82729,-206.52697 522.67153,9e-5 v -87.64058 l 55.44503,-8e-5 v 87.17862 H 640.30474 V 118.01292 H 509.05213 v 153.32906 l -125.18922,6e-5 v 77.46147 h -88.74669 -88.7466 v 159.55515 l -46.7628,30.3287 -0.24329,30.39111 -126.833865,29.39137 0.529178,-61.31631 -46.024083,-46.02444 V 279.52735 h -9.16905 v -15.58262 h -51.86182 l -28.50486,-28.5048 -122.09052,-32.71404 v -409.19125 z"
       id="path2236" /><g
       id="g4877"
       style="opacity:0.1"
       transform="translate(0.057,0.00465)"><path
         id="path16386"
         style="display:inline;opacity:1;fill:#97d175;fill-opacity:1;stroke:none;stroke-width:7.908;stroke-linecap:round;stroke-linejoin:round;stroke-dasharray:none;stroke-opacity:1;paint-order:stroke fill markers"
         d="M 80.948212,397.58987 H 9.8545445 V 289.45259 H 58.12347 c 0,0 7.011827,10.15199 10.816036,13.02069 3.804124,2.8687 12.008706,4.19148 12.008706,4.19148 z m 0,117.49166 V 405.82177 H 9.8545445 v 61.36507 c 0,0 14.2851515,-1.37521 29.8157865,14.15547 15.530721,15.53068 17.330631,32.99087 17.330631,32.99087 z M 106.16413,397.58987 h 71.09376 V 289.45259 h -48.26893 c 0,0 -7.01191,10.15199 -10.81612,13.02069 -3.80413,2.8687 -12.00871,4.19148 -12.00871,4.19148 z m 0,117.49166 V 405.82177 h 71.09376 v 61.36507 c 0,0 -14.28524,-1.37521 -29.81588,14.15547 -15.53063,15.53068 -17.33054,32.99087 -17.33054,32.99087 z M 384.09402,100.88064 h -69.45237 v 36.0326 h 69.45237 V 118.00827 H 484.45738 V 100.88064 Z M 570.51816,-55.164927 V 62.993038 l -19.70095,1.722214 h -18.9094 v 28.780052 l -31.47993,3.439643 V 118.00827 H 640.24774 V -55.164927 Z M 345.01513,16.302949 H 306.53609 V -133.49825 h 38.47904 z m 166.00602,47.366618 v 12.35843 H 384.09402 v 6.094831 l -79.19347,0.139031 -0.92602,65.145481 h -11.47438 l -0.36524,-65.123092 0.0244,-19.60072 m 91.68278,79.943762 h -69.45237 v 91.37845 h 69.45237 z m -170.22253,33.70153 h 87.04003 v 82.28559 H 220.4987 l -6.61464,-6.61464 z m 170.18638,66.1969 h -69.38015 v 106.27314 h 69.38015 z M 390.2587,31.073881 h 57.14842 V -137.46522 H 390.25867 Z M 13.754765,224.21251 c 13.989475,6.9e-4 27.979035,0 41.968681,0 -4.218054,-5.92888 -4.452242,-14.52935 -0.163597,-20.48754 1.611581,-2.31415 3.818809,-4.21547 6.360874,-5.44018 -0.03006,-1.98686 -0.01031,-3.97398 -0.01374,-5.96093 -5.165113,-2.67322 -9.077958,-7.91813 -9.572528,-13.78498 -0.379665,-3.77726 0.48332,-7.69724 2.550997,-10.89471 -13.710201,-0.053 -27.420487,-0.0427 -41.130773,-0.047 v 56.61328 z m 127.289015,-56.60346 -8.07224,0.0333 c 3.36228,5.05521 3.71155,12.00004 0.64185,17.27666 -1.73052,3.15722 -4.4379,5.78037 -7.66725,7.37765 0,2.0072 -0.0103,4.01431 -0.0103,6.02151 6.00697,3.17671 10.00956,9.88825 9.69559,16.71122 -0.093,3.24661 -1.05089,6.49244 -2.88309,9.18719 13.77985,6.9e-4 27.55987,0 41.3398,0 v -56.61909 c -11.01493,0 -22.02994,0.009 -33.04496,0.0102 z M -17.7316,180.163 h -62.865555 l -22.958535,13.25517 v 41.74972 l 29.817071,29.81715 h 51.641427 v 0 l -0.09412,-37.27657 h 4.459714 z M 59.670154,64.855434 V 91.10113 h 23.895164 l 5.514384,-5.07937 V 64.855434 Z m 38.599939,0 V 86.02176 l 5.514387,5.07937 h 23.89516 V 64.855434 Z M 59.670154,99.56766 v 27.93996 h 29.409548 v -22.85991 l -5.514384,-5.08005 z m 44.114326,0 -5.514387,5.08005 v 22.85991 H 127.67964 V 99.56766 Z M -43.298037,64.855349 V 91.10109 h 22.013155 l 5.080065,-5.07938 V 64.855349 Z m 35.559765,0 V 86.02171 l 5.080064,5.07938 H 19.35495 V 64.855349 Z M -43.298037,99.56763 v 27.94001 h 27.09322 V 104.6477 l -5.080065,-5.08007 z m 40.639829,0 -5.080064,5.08007 v 22.85994 H 19.35495 V 99.56763 Z M 167.97111,64.855299 V 91.10104 h 22.01315 l 5.08007,-5.07938 V 64.855299 Z m 35.55976,0 V 86.02166 l 5.08007,5.07938 h 22.01315 V 64.855299 Z M 167.97111,99.56758 v 27.94001 h 27.09322 v -22.85994 l -5.08007,-5.08007 z m 40.63983,0 -5.08007,5.08007 v 22.85994 h 27.09322 V 99.56758 Z M -79.647777,8.16443 V 29.6898 H -45.5558 v 20.302631 l 66.885747,-8.5e-5 V 29.6898 H 165.71361 v 20.302546 h 28.65755 V 8.16443 H -6.23782 V 49.992346 H -17.318789 V 8.16443 Z m 285.023907,0 v 41.827916 l 27.22322,8.5e-5 V 29.6898 h 34.09198 V 8.16443 Z m 8.2434,168.16439 h 87.04003 v 82.28559 h -80.16089 l -6.61464,-6.61464 z M 13.754765,224.21251 c 13.989475,6.9e-4 27.979035,0 41.968681,0 -4.218054,-5.92888 -4.452242,-14.52935 -0.163597,-20.48754 1.611581,-2.31415 3.818809,-4.21547 6.360874,-5.44018 -0.03006,-1.98686 -0.01031,-3.97398 -0.01374,-5.96093 -5.165113,-2.67322 -9.077958,-7.91813 -9.572528,-13.78498 -0.379665,-3.77726 0.48332,-7.69724 2.550997,-10.89471 -13.710201,-0.053 -27.420487,-0.0427 -41.130773,-0.047 v 56.61328 z m 127.289015,-56.60346 -8.07224,0.0333 c 3.36228,5.05521 3.71155,12.00004 0.64185,17.27666 -1.73052,3.15722 -4.4379,5.78037 -7.66725,7.37765 0,2.0072 -0.0103,4.01431 -0.0103,6.02151 6.00697,3.17671 10.00956,9.88825 9.69559,16.71122 -0.093,3.24661 -1.05089,6.49244 -2.88309,9.18719 13.77985,6.9e-4 27.55987,0 41.3398,0 v -56.61909 c -11.01493,0 -22.02994,0.009 -33.04496,0.0102 z M -17.7316,180.163 h -62.865557 l -22.958533,13.25517 v 41.74972 l 29.817073,29.81715 h 51.641425 v 0 l -0.09412,-37.27657 h 4.459714 z" /></g><path
       id="path13677"
       style="display:inline;opacity:1;fill:#9799ab;fill-opacity:1;stroke:none;stroke-width:1;stroke-linecap:round;stroke-linejoin:round;stroke-opacity:1;paint-order:stroke fill markers"
       d="M 384.09402,100.88064 V 76.027997 h 152.31713 c 6.60837,0 14.37283,-4.704428 14.40606,-11.312745 V -102.63657 h 4.49879 v -12.09993 h -21.50583 v -27.20832 l 54.38637,-1.7e-4 v 2.31918 h 29.60676 v -30.65112 l -231.97173,-1.7e-4 5e-5,-2.19366 -22.72258,-0.18432 v -11.90775 h 277.1387 V -55.164927 H 570.51816 V 73.935089 c -2.23755,11.309156 -12.11468,26.366871 -22.43864,26.554521 l -47.65164,0.39103 v 17.12763 h -15.9705 v -17.12763 z m 0,170.45673 124.90111,-4e-5 V 118.00827 H 384.09402 Z"
       transform="translate(0.057,0.00465)" /><path
       id="path3729"
       style="display:inline;opacity:1;fill:#99bcae;stroke:#000000;stroke-width:1;stroke-linejoin:bevel;paint-order:stroke fill markers"
       d="M 33.913521,-67.46072 H 149.90851 v 53.133224 H 33.913521 Z m 133.402219,5.66449 h 79.11043 v 41.804244 h -79.11043 z m -223.30662,0 h 79.110349 v 41.804244 H -55.99088 Z m 30.211597,-135.59536 c 0,0 -37.873003,6.72854 -37.604978,53.28875 0.26811,46.560196 37.604978,52.007124 37.604978,52.007124 49.657224,-0.284472 191.244963,-0.525791 240.897893,0 0,0 37.33687,-5.446928 37.60498,-52.007124 0.26802,-46.56021 -37.60498,-53.28875 -37.60498,-53.28875 z m 0,13.48392 H 215.11861 c 0,0 -23.90904,15.09566 -23.90904,38.87365 0,23.7779 23.90904,39.45438 23.90904,39.45438 H -25.779283 c 0,0 23.9091193,-15.67648 23.9091193,-39.45438 0,-23.77799 -23.9091193,-38.87365 -23.9091193,-38.87365 z m 60.015446,10.51983 v 57.28845 H 155.10265 v -57.28845 z"
       transform="translate(0.057,0.00465)" /><path
       id="path3726"
       style="display:inline;opacity:1;fill:#97d175;fill-opacity:1;stroke:none;stroke-width:7.908;stroke-linecap:round;stroke-linejoin:round;stroke-dasharray:none;stroke-opacity:1;paint-order:stroke fill markers"
       d="m 384.09402,100.88064 h -69.45237 v 36.0326 h 69.45237 V 118.00827 H 484.45738 V 100.88064 Z M 570.51816,-55.164927 V 62.993038 l -19.70095,1.722214 h -18.9094 v 28.780052 l -31.47993,3.439643 V 118.00827 H 640.24774 V -55.164927 Z M 345.01513,16.302949 H 306.53609 V -133.49825 h 38.47904 z m 166.00602,47.366618 v 12.35843 H 384.09402 v 6.094831 l -79.19347,0.139031 -0.92602,65.145481 h -11.47438 l -0.36524,-65.123092 0.0244,-19.60072 m 91.68278,79.943762 h -69.45237 v 91.37845 h 69.45237 z m -0.0361,99.89843 h -69.38015 v 106.27314 h 69.38015 z M 390.2587,31.073881 h 57.14842 V -137.46522 H 390.25867 Z M -17.7316,180.163 h -62.865555 l -22.958535,13.25517 v 41.74972 l 29.817071,29.81715 h 51.641427 v 0 l -0.09412,-37.27657 h 4.459714 z m 0,0 h -62.865557 l -22.958533,13.25517 v 41.74972 l 29.817073,29.81715 h 51.641425 v 0 l -0.09412,-37.27657 h 4.459714 z"
       transform="translate(0.057,0.00465)" /><g
       id="g4166"
       transform="translate(0.90837,1.52017)"><text
         xml:space="preserve"
         style="font-size:20.4684px;font-family:'Comic Sans MS';-inkscape-font-specification:'Comic Sans MS';display:inline;opacity:1;fill:#000000;fill-opacity:1;stroke:none;stroke-width:14.5051;stroke-linecap:round;stroke-linejoin:round;stroke-dasharray:29.0103, 29.0103;stroke-dashoffset:0;stroke-opacity:1;paint-order:stroke fill markers"
         x="-6.1774592"
         y="-322.15366"
         id="text18040"><tspan
           id="tspan18038"
           style="font-size:20.4684px;fill:#000000;fill-opacity:1;stroke:none;stroke-width:14.5051"
           x="-6.1774592"
           y="-322.15366">Boulevard de la Reine</tspan></text><text
         xml:space="preserve"
         style="font-size:20.4684px;font-family:'Comic Sans MS';-inkscape-font-specification:'Comic Sans MS';display:inline;opacity:1;fill:#000000;fill-opacity:1;stroke:none;stroke-width:14.5051;stroke-linecap:round;stroke-linejoin:round;stroke-dasharray:29.0103, 29.0103;stroke-dashoffset:0;stroke-opacity:1;paint-order:stroke fill markers"
         x="-105.31647"
         y="668.60071"
         id="text18040-8"
         transform="rotate(-90)"><tspan
           id="tspan18038-2"
           style="font-size:20.4684px;fill:#000000;fill-opacity:1;stroke:none;stroke-width:14.5051"
           x="-105.31647"
           y="668.60071">Rue de Provence</tspan></text><text
         xml:space="preserve"
         style="font-size:20.4684px;font-family:'Comic Sans MS';-inkscape-font-specification:'Comic Sans MS';display:inline;opacity:1;fill:#000000;fill-opacity:1;stroke:none;stroke-width:14.5051;stroke-linecap:round;stroke-linejoin:round;stroke-dasharray:29.0103, 29.0103;stroke-dashoffset:0;stroke-opacity:1;paint-order:stroke fill markers"
         x="-87.258568"
         y="622.86591"
         id="text18040-0"
         transform="rotate(-13.646281)"><tspan
           id="tspan18038-8"
           style="font-size:20.4684px;fill:#000000;fill-opacity:1;stroke:none;stroke-width:14.5051"
           x="-87.258568"
           y="622.86591">Avenue de Saint-Cloud</tspan></text><text
         xml:space="preserve"
         style="font-size:16.1267px;font-family:'Comic Sans MS';-inkscape-font-specification:'Comic Sans MS';display:inline;opacity:1;fill:#000000;fill-opacity:1;stroke:none;stroke-width:11.4283;stroke-linecap:round;stroke-linejoin:round;stroke-dasharray:22.8567, 22.8567;stroke-dashoffset:0;stroke-opacity:1;paint-order:stroke fill markers"
         x="-211.74667"
         y="279.88037"
         id="text18040-0-1"
         transform="rotate(16.35372)"><tspan
           id="tspan18038-8-9"
           style="font-size:16.1267px;fill:#000000;fill-opacity:1;stroke:none;stroke-width:11.4283"
           x="-211.74667"
           y="279.88037">Rue de l'abbé de l'épée</tspan></text><text
         xml:space="preserve"
         style="font-size:56.4977px;font-family:'Comic Sans MS';-inkscape-font-specification:'Comic Sans MS';display:inline;opacity:1;fill:#000000;fill-opacity:1;stroke:none;stroke-width:40.0375;stroke-linecap:round;stroke-linejoin:round;stroke-dasharray:80.0754, 80.0754;stroke-dashoffset:0;stroke-opacity:1;paint-order:stroke fill markers"
         x="23.582226"
         y="-86.818092"
         id="text18040-7"><tspan
           id="tspan18038-7"
           style="font-size:56.4977px;fill:#000000;fill-opacity:1;stroke:none;stroke-width:40.0375"
           x="23.582226"
           y="-86.818092">RDC</tspan></text></g><a
       id="a1473-8-3-4"
       xlink:href="#Change?General?385"
       transform="matrix(0.4844205,0.4844205,-0.4844205,0.4844205,326.15442,-176.64893)"><path
         id="path892-5-0-48"
         style="fill:#222222;fill-opacity:1;stroke:#ffffff;stroke-width:0.765;stroke-linecap:round;stroke-linejoin:round;stroke-opacity:1"
         d="m 190.24877,260.40647 a 4.3892446,4.3892446 0 0 1 -4.38925,4.38924 4.3892446,4.3892446 0 0 1 -4.38924,-4.38924 4.3892446,4.3892446 0 0 1 4.38924,-4.38925 4.3892446,4.3892446 0 0 1 4.38925,4.38925 z m -6.35371,1.96447 3.68189,0.0673 m 0.24703,-3.99622 -3.92892,3.92892 v -3.61459" /></a><a
       id="a1473-8-3-4-0"
       xlink:href="#Change?General?385"
       transform="matrix(-0.4844205,0.4844205,-0.4844205,-0.4844205,566.89441,67.645886)"><path
         id="path892-5-0-48-6"
         style="fill:#222222;fill-opacity:1;stroke:#ffffff;stroke-width:0.765;stroke-linecap:round;stroke-linejoin:round;stroke-opacity:1"
         d="m 190.24877,260.40647 a 4.3892446,4.3892446 0 0 1 -4.38925,4.38924 4.3892446,4.3892446 0 0 1 -4.38924,-4.38924 4.3892446,4.3892446 0 0 1 4.38924,-4.38925 4.3892446,4.3892446 0 0 1 4.38925,4.38925 z m -6.35371,1.96447 3.68189,0.0673 m 0.24703,-3.99622 -3.92892,3.92892 v -3.61459" /></a><a
       id="a1473-8-3-4-5"
       xlink:href="#Change?General?395"
       transform="matrix(0.4844205,0.4844205,-0.4844205,0.4844205,387.7496,-363.2697)"><path
         id="path892-5-0-48-2"
         style="fill:#222222;fill-opacity:1;stroke:#ffffff;stroke-width:0.765;stroke-linecap:round;stroke-linejoin:round;stroke-opacity:1"
         d="m 190.24877,260.40647 a 4.3892446,4.3892446 0 0 1 -4.38925,4.38924 4.3892446,4.3892446 0 0 1 -4.38924,-4.38924 4.3892446,4.3892446 0 0 1 4.38924,-4.38925 4.3892446,4.3892446 0 0 1 4.38925,4.38925 z m -6.35371,1.96447 3.68189,0.0673 m 0.24703,-3.99622 -3.92892,3.92892 v -3.61459" /></a><a
       id="a1473-8-3-4-5-3"
       xlink:href="#Change?General?379"
       transform="matrix(0.4844205,-0.4844205,0.4844205,0.4844205,315.08178,26.41429)"><path
         id="path892-5-0-48-2-6"
         style="fill:#222222;fill-opacity:1;stroke:#ffffff;stroke-width:0.765;stroke-linecap:round;stroke-linejoin:round;stroke-opacity:1"
         d="m 190.24877,260.40647 a 4.3892446,4.3892446 0 0 1 -4.38925,4.38924 4.3892446,4.3892446 0 0 1 -4.38924,-4.38924 4.3892446,4.3892446 0 0 1 4.38924,-4.38925 4.3892446,4.3892446 0 0 1 4.38925,4.38925 z m -6.35371,1.96447 3.68189,0.0673 m 0.24703,-3.99622 -3.92892,3.92892 v -3.61459" /></a><a
       id="a3894-3-9"
       xlink:href="#Change?E-1?391"
       transform="matrix(-1.1281329,0,0,1.1281329,752.39398,-111.09477)"><path
         id="path1907-4-7-7-7-24"
         style="display:inline;fill:#222222;fill-opacity:1;stroke:#ffffff;stroke-width:0.359049;stroke-linecap:round;stroke-linejoin:miter;stroke-miterlimit:4;stroke-dasharray:none;stroke-opacity:1;paint-order:markers fill stroke"
         d="m 211.16626,139.27577 h 0.94081 l -1e-5,0.94079 m -1.53305,0.60645 1.53306,-1.54724 m 2.68494,-0.22678 -0.014,1.10765 -1.07997,0.014 -0.0187,1.12589 h -1.1182 v 1.126 h -1.10836 l -0.002,1.117 -1.07997,0.014 m -0.57293,-5.56166 h 5.69832 c 0.40432,0 0.72985,0.32549 0.72985,0.72984 v 5.42302 c 0,0.40432 -0.32553,0.72985 -0.72985,0.72985 h -5.69832 c -0.40434,0 -0.72985,-0.32553 -0.72985,-0.72985 v -5.42302 c 0,-0.40435 0.32551,-0.72984 0.72985,-0.72984 z" /></a><a
       id="a3894-3-7-6"
       xlink:href="#Change?E--1?392"
       transform="matrix(1.1281314,0,0,-1.1281314,272.60607,217.15299)"><path
         id="path1907-4-7-7-7-2-0"
         style="display:inline;fill:#222222;fill-opacity:1;stroke:#ffffff;stroke-width:0.359049;stroke-linecap:round;stroke-linejoin:miter;stroke-miterlimit:4;stroke-dasharray:none;stroke-opacity:1;paint-order:markers fill stroke"
         d="m 211.16626,139.27577 h 0.94081 l -1e-5,0.94079 m -1.53305,0.60645 1.53306,-1.54724 m 2.68494,-0.22678 -0.014,1.10765 -1.07997,0.014 -0.0187,1.12589 h -1.1182 v 1.126 h -1.10836 l -0.002,1.117 -1.07997,0.014 m -0.57293,-5.56166 h 5.69832 c 0.40432,0 0.72985,0.32549 0.72985,0.72984 v 5.42302 c 0,0.40432 -0.32553,0.72985 -0.72985,0.72985 h -5.69832 c -0.40434,0 -0.72985,-0.32553 -0.72985,-0.72985 v -5.42302 c 0,-0.40435 0.32551,-0.72984 0.72985,-0.72984 z" /></a><path
       style="display:inline;fill:#222222;fill-opacity:1;stroke:none;stroke-width:0.00790054;stroke-opacity:1"
       d="m 520.34097,52.706692 c 0.002,-2.466364 -0.007,-2.240964 0.0853,-2.33996 0.0876,-0.09505 -0.0708,-0.08744 1.82847,-0.08744 1.91646,0 1.71573,-0.0086 1.80514,0.07234 0.10782,0.09692 0.0988,-0.113328 0.10107,2.354668 0.002,2.19872 0.002,2.19872 -1.91,2.19872 -1.91202,0 -1.91202,0 -1.91,-2.198324 z m 0.89684,1.612872 c -0.002,-0.451145 -0.002,-0.451145 -0.10474,-0.491016 -0.0565,-0.02199 -0.10542,-0.04381 -0.10873,-0.04845 -0.0223,-0.03247 -0.002,-0.729244 0.0239,-0.782107 0.13952,-0.294629 0.66159,-0.358745 0.91674,-0.112605 0.10759,0.103791 0.11384,0.151661 0.0973,0.747062 -0.005,0.177075 -0.005,0.177075 -0.11354,0.208674 -0.10863,0.03161 -0.10863,0.03161 -0.10863,0.480655 0,0.44904 0,0.44904 0.36742,0.44904 0.36744,0 0.36744,0 0.36541,-0.455612 -0.002,-0.455629 -0.002,-0.455629 -0.10048,-0.494213 -0.0541,-0.02122 -0.10319,-0.04252 -0.10899,-0.04734 -0.0249,-0.0207 -0.009,-0.729751 0.0171,-0.784425 0.14561,-0.300205 0.66764,-0.361083 0.92127,-0.107443 0.10506,0.105054 0.10097,0.07732 0.0966,0.654217 -0.002,0.293349 0.0177,0.256638 -0.16788,0.310771 -0.0553,0.01615 -0.0553,0.01615 -0.0553,0.47008 0,0.453929 0,0.453929 0.28047,0.453929 0.28046,0 0.28046,0 0.28046,-1.59984 0,-1.599857 0,-1.599857 -1.48923,-1.599857 -1.48926,0 -1.48926,0 -1.48926,1.599857 0,1.59984 0,1.59984 0.24104,1.59984 0.24103,0 0.24103,0 0.23899,-0.451128 z m 0.27088,-1.651121 c -0.21985,-0.04312 -0.29536,-0.313564 -0.12978,-0.464882 0.12886,-0.117761 0.33158,-0.08256 0.41391,0.07191 0.10519,0.19735 -0.067,0.435525 -0.28413,0.39299 z m 1.29532,-0.01941 c -0.10995,-0.03436 -0.18824,-0.153329 -0.17977,-0.272928 0.0242,-0.34262 0.53136,-0.326828 0.53136,0.01649 0,0.189583 -0.16975,0.313375 -0.35159,0.256354 z m -0.73563,-1.465988 c 0.0113,-0.02036 -0.34418,-0.461427 -0.3844,-0.476866 -0.0197,-0.0077 -0.0326,0.0069 -0.22261,0.234945 -0.19053,0.229499 -0.19008,0.228803 -0.16901,0.252085 0.0247,0.02723 0.76042,0.01761 0.77602,-0.01022 z m 0.92791,-0.223037 c 0.2447,-0.287206 0.26955,-0.258056 -0.21992,-0.258056 -0.41318,0 -0.41624,3.01e-4 -0.39055,0.04837 0.0148,0.02749 0.34428,0.422295 0.3683,0.441187 0.0271,0.0213 0.0247,0.02362 0.24217,-0.231518 z"
       id="path3485-3" /><path
       id="path13128"
       style="fill:#6c3900;fill-opacity:1;stroke:#6c3900;stroke-width:0.644346;stroke-linecap:round;stroke-linejoin:round;stroke-dasharray:none;stroke-opacity:1;paint-order:stroke fill markers"
       d="m 386.6428,-120.62185 h 8.27773 v -6.52664 h 66.39436 v -4.01831 h 4.32601 v -10.75122 h -78.9981 z m 0,133.652374 h 8.69965 v 6.470269 h 65.97244 v 5.284936 h 5.11448 v 9.149202 H 386.6428 Z" /><a
       id="a3894-3"
       xlink:href="#Change?E-1?388"
       transform="matrix(-1.0828953,0,0,1.0828953,601.11978,-96.747814)"><path
         id="path1907-4-7-7-7"
         style="display:inline;fill:#222222;fill-opacity:1;stroke:#ffffff;stroke-width:0.359049;stroke-linecap:round;stroke-linejoin:miter;stroke-miterlimit:4;stroke-dasharray:none;stroke-opacity:1;paint-order:markers fill stroke"
         d="m 211.16626,139.27577 h 0.94081 l -1e-5,0.94079 m -1.53305,0.60645 1.53306,-1.54724 m 2.68494,-0.22678 -0.014,1.10765 -1.07997,0.014 -0.0187,1.12589 h -1.1182 v 1.126 h -1.10836 l -0.002,1.117 -1.07997,0.014 m -0.57293,-5.56166 h 5.69832 c 0.40432,0 0.72985,0.32549 0.72985,0.72984 v 5.42302 c 0,0.40432 -0.32553,0.72985 -0.72985,0.72985 h -5.69832 c -0.40434,0 -0.72985,-0.32553 -0.72985,-0.72985 v -5.42302 c 0,-0.40435 0.32551,-0.72984 0.72985,-0.72984 z" /></a><path
       style="display:inline;fill:#222222;fill-opacity:1;stroke:none;stroke-width:0.00790054;stroke-opacity:1"
       d="m 370.2121,-163.2895 c 0.002,-2.46636 -0.007,-2.24096 0.0853,-2.33996 0.0876,-0.095 -0.0708,-0.0874 1.82847,-0.0874 1.91647,0 1.71574,-0.009 1.80514,0.0723 0.10783,0.0969 0.0988,-0.11333 0.10108,2.35466 0.002,2.19873 0.002,2.19873 -1.91,2.19873 -1.91202,0 -1.91202,0 -1.91,-2.19833 z m 0.89684,1.61287 c -0.002,-0.45114 -0.002,-0.45114 -0.10474,-0.49102 -0.0565,-0.022 -0.10541,-0.0438 -0.10872,-0.0485 -0.0223,-0.0325 -0.002,-0.72924 0.0239,-0.7821 0.13952,-0.29463 0.66158,-0.35874 0.91673,-0.11261 0.10759,0.10379 0.11383,0.15167 0.0973,0.74707 -0.005,0.17707 -0.005,0.17707 -0.11354,0.20867 -0.10864,0.0316 -0.10864,0.0316 -0.10864,0.48065 0,0.44905 0,0.44905 0.36745,0.44905 0.36742,0 0.36742,0 0.36539,-0.45562 -0.002,-0.45563 -0.002,-0.45563 -0.10049,-0.49422 -0.0541,-0.0212 -0.10318,-0.0425 -0.10899,-0.0473 -0.0249,-0.0207 -0.009,-0.72975 0.0171,-0.78443 0.14562,-0.3002 0.66765,-0.36107 0.92128,-0.10744 0.10506,0.10505 0.10097,0.0773 0.0966,0.65422 -0.002,0.29334 0.0177,0.25664 -0.16786,0.31077 -0.0553,0.0161 -0.0553,0.0161 -0.0553,0.47008 0,0.45393 0,0.45393 0.28047,0.45393 0.28047,0 0.28047,0 0.28047,-1.59984 0,-1.59986 0,-1.59986 -1.48924,-1.59986 -1.48926,0 -1.48926,0 -1.48926,1.59986 0,1.59984 0,1.59984 0.24105,1.59984 0.24101,0 0.24101,0 0.23898,-0.45113 z m 0.27088,-1.65112 c -0.21985,-0.0431 -0.29535,-0.31356 -0.12978,-0.46488 0.12886,-0.11776 0.33158,-0.0826 0.41391,0.0719 0.1052,0.19735 -0.067,0.43552 -0.28413,0.39299 z m 1.29533,-0.0194 c -0.10995,-0.0344 -0.18823,-0.15333 -0.17978,-0.27293 0.0242,-0.34262 0.53135,-0.32683 0.53135,0.0165 0,0.18959 -0.16973,0.31338 -0.35157,0.25636 z m -0.73565,-1.46599 c 0.0113,-0.0204 -0.34417,-0.46143 -0.38438,-0.47686 -0.0197,-0.008 -0.0326,0.007 -0.22262,0.23494 -0.19053,0.2295 -0.19008,0.2288 -0.16901,0.25208 0.0247,0.0272 0.76042,0.0176 0.77601,-0.0102 z m 0.92793,-0.22304 c 0.2447,-0.28721 0.26954,-0.25805 -0.21993,-0.25805 -0.41319,0 -0.41625,3e-4 -0.39055,0.0484 0.0148,0.0275 0.34428,0.4223 0.36829,0.44119 0.0272,0.0213 0.0247,0.0236 0.24219,-0.23152 z"
       id="path3485-3-3" /><a
       id="a3894-3-3"
       xlink:href="#Change?E-1?397"
       transform="matrix(-1.0430606,0,0,1.0430606,582.30107,-313.24058)"><path
         id="path1907-4-7-7-7-4"
         style="display:inline;fill:#222222;fill-opacity:1;stroke:#ffffff;stroke-width:0.359049;stroke-linecap:round;stroke-linejoin:miter;stroke-miterlimit:4;stroke-dasharray:none;stroke-opacity:1;paint-order:markers fill stroke"
         d="m 211.16626,139.27577 h 0.94081 l -1e-5,0.94079 m -1.53305,0.60645 1.53306,-1.54724 m 2.68494,-0.22678 -0.014,1.10765 -1.07997,0.014 -0.0187,1.12589 h -1.1182 v 1.126 h -1.10836 l -0.002,1.117 -1.07997,0.014 m -0.57293,-5.56166 h 5.69832 c 0.40432,0 0.72985,0.32549 0.72985,0.72984 v 5.42302 c 0,0.40432 -0.32553,0.72985 -0.72985,0.72985 h -5.69832 c -0.40434,0 -0.72985,-0.32553 -0.72985,-0.72985 v -5.42302 c 0,-0.40435 0.32551,-0.72984 0.72985,-0.72984 z" /></a><a
       id="a3894-3-7-1"
       xlink:href="#Change?E--1?396"
       transform="matrix(1.0934333,0,0,-1.0934333,130.95385,-3.7170381)"><path
         id="path1907-4-7-7-7-2-02"
         style="display:inline;fill:#222222;fill-opacity:1;stroke:#ffffff;stroke-width:0.359049;stroke-linecap:round;stroke-linejoin:miter;stroke-miterlimit:4;stroke-dasharray:none;stroke-opacity:1;paint-order:markers fill stroke"
         d="m 211.16626,139.27577 h 0.94081 l -1e-5,0.94079 m -1.53305,0.60645 1.53306,-1.54724 m 2.68494,-0.22678 -0.014,1.10765 -1.07997,0.014 -0.0187,1.12589 h -1.1182 v 1.126 h -1.10836 l -0.002,1.117 -1.07997,0.014 m -0.57293,-5.56166 h 5.69832 c 0.40432,0 0.72985,0.32549 0.72985,0.72984 v 5.42302 c 0,0.40432 -0.32553,0.72985 -0.72985,0.72985 h -5.69832 c -0.40434,0 -0.72985,-0.32553 -0.72985,-0.72985 v -5.42302 c 0,-0.40435 0.32551,-0.72984 0.72985,-0.72984 z" /></a><a
       id="a3894-3-7"
       xlink:href="#Change?E--1?387"
       transform="matrix(1.0828952,0,0,-1.0828952,140.57083,198.60097)"><path
         id="path1907-4-7-7-7-2"
         style="display:inline;fill:#222222;fill-opacity:1;stroke:#ffffff;stroke-width:0.359049;stroke-linecap:round;stroke-linejoin:miter;stroke-miterlimit:4;stroke-dasharray:none;stroke-opacity:1;paint-order:markers fill stroke"
         d="m 211.16626,139.27577 h 0.94081 l -1e-5,0.94079 m -1.53305,0.60645 1.53306,-1.54724 m 2.68494,-0.22678 -0.014,1.10765 -1.07997,0.014 -0.0187,1.12589 h -1.1182 v 1.126 h -1.10836 l -0.002,1.117 -1.07997,0.014 m -0.57293,-5.56166 h 5.69832 c 0.40432,0 0.72985,0.32549 0.72985,0.72984 v 5.42302 c 0,0.40432 -0.32553,0.72985 -0.72985,0.72985 h -5.69832 c -0.40434,0 -0.72985,-0.32553 -0.72985,-0.72985 v -5.42302 c 0,-0.40435 0.32551,-0.72984 0.72985,-0.72984 z" /></a><path
       id="path3595"
       style="fill:#222222;fill-opacity:1;stroke-width:0.028907"
       d="m 442.12778,44.806044 a 4.3224186,6.916026 0 0 0 -4.32236,6.91595 4.3224186,6.916026 0 0 0 4.32236,6.91596 4.3224186,6.916026 0 0 0 4.32258,-6.91596 4.3224186,6.916026 0 0 0 -4.32258,-6.91595 z m -0.005,3.076153 c 0.19396,-0.0026 0.3779,0.09022 0.46893,0.250041 0.13085,0.229765 0.11297,0.431024 -0.0547,0.621886 -0.17443,0.198399 -0.42013,0.244088 -0.65901,0.1224 -0.25229,-0.128524 -0.35761,-0.446033 -0.22956,-0.692077 0.0842,-0.161791 0.14433,-0.21943 0.28001,-0.267627 0.0638,-0.02251 0.12973,-0.03393 0.19438,-0.03453 z m -0.0109,1.222709 c 0.39835,0 0.6907,0.01211 0.76579,0.03084 0.17452,0.04458 0.35123,0.184832 0.43782,0.347688 0.074,0.139084 0.0752,0.154609 0.0846,1.097965 0.0109,1.026114 0.003,1.09091 -0.14274,1.137792 -0.0978,0.03161 -0.22707,-0.01856 -0.28099,-0.109101 -0.0293,-0.04914 -0.0397,-0.273957 -0.04,-0.859537 -3.7e-4,-0.774968 -0.003,-0.792829 -0.0631,-0.792829 -0.0623,0 -0.0626,0.0177 -0.0626,2.187808 0,2.010761 -0.005,2.194167 -0.0534,2.264589 -0.10692,0.153853 -0.37905,0.155743 -0.5006,0.0034 -0.0534,-0.06693 -0.0581,-0.163406 -0.0665,-1.386287 -0.009,-1.224505 -0.0127,-1.313638 -0.0627,-1.305443 -0.0496,0.0086 -0.055,0.10959 -0.0695,1.327695 -0.0171,1.439802 -0.0128,1.409552 -0.19985,1.464982 -0.11431,0.03402 -0.10947,0.0341 -0.22703,-0.01503 -0.0538,-0.02251 -0.11359,-0.07097 -0.13317,-0.107288 -0.0255,-0.0476 -0.0356,-0.680085 -0.0356,-2.250267 0,-2.146399 -8.6e-4,-2.184141 -0.061,-2.184141 -0.0589,0 -0.0614,0.02818 -0.0706,0.82551 -0.01,0.807544 -0.0109,0.826668 -0.0777,0.883525 -0.0902,0.07655 -0.2561,0.07415 -0.33125,-0.0052 -0.0503,-0.05284 -0.0552,-0.142023 -0.0552,-1.026613 0,-0.902505 0.005,-0.978494 0.0625,-1.109769 0.0772,-0.17424 0.2166,-0.303417 0.39912,-0.369923 0.12192,-0.04441 0.21983,-0.05085 0.78375,-0.05085 z m -1.33791,5.962038 c 0.0394,0 0.0698,0.0213 0.091,0.06392 0.0109,0.02156 0.0332,0.08394 0.0666,0.186809 0.0358,0.108859 0.0719,0.240099 0.10778,0.393513 l 0.0884,0.398738 c 0.065,-0.149213 0.12986,-0.330763 0.19436,-0.544935 0.0395,-0.130536 0.0697,-0.221148 0.0903,-0.271664 0.0549,-0.132976 0.10802,-0.199378 0.15977,-0.199378 0.0426,0 0.0728,0.02122 0.0903,0.06392 0.0218,0.05172 0.0442,0.174987 0.0666,0.369905 0.0121,0.09869 0.0328,0.217248 0.0621,0.35561 l 0.0784,0.354638 c 0.0815,-0.193698 0.18356,-0.455774 0.30583,-0.786056 0.006,-0.01804 0.0218,-0.07492 0.0455,-0.170546 0.0177,-0.07036 0.0393,-0.125062 0.0647,-0.164161 0.0218,-0.03316 0.0505,-0.04966 0.0858,-0.04966 0.0614,0 0.092,0.03015 0.092,0.09021 0,0.0097 -0.01,0.04029 -0.0292,0.09022 l -0.0364,0.09748 -0.05,0.160494 -0.27102,0.651664 c -0.0249,0.07157 -0.0678,0.175519 -0.12866,0.312094 -0.0218,0.04029 -0.0549,0.06057 -0.0986,0.06057 -0.028,0 -0.0527,-0.0069 -0.074,-0.02337 -0.0242,-0.01804 -0.0364,-0.04046 -0.0364,-0.06693 -0.028,-0.07277 -0.0458,-0.132004 -0.053,-0.177709 -0.008,-0.04579 -0.0311,-0.175304 -0.0719,-0.388884 -0.0311,-0.161842 -0.0518,-0.291767 -0.0623,-0.389845 -0.0541,0.198544 -0.11213,0.366555 -0.17425,0.504307 -0.0718,0.159427 -0.1183,0.284336 -0.13961,0.374587 0.008,0.01383 0.0109,0.02732 0.0109,0.04055 0,0.02715 -0.0122,0.04915 -0.0364,0.06676 -0.0218,0.01623 -0.0467,0.02431 -0.0747,0.02431 -0.0821,0 -0.12319,-0.03617 -0.12319,-0.109109 l -0.0283,-0.114667 -0.0995,-0.442252 c -0.0395,-0.149179 -0.10704,-0.36305 -0.20258,-0.641596 -0.005,-0.01323 -0.006,-0.02508 -0.006,-0.03599 0,-0.05592 0.032,-0.08394 0.0958,-0.08394 z m 2.72396,0.0026 c 0.042,0 0.0684,0.02723 0.0793,0.08196 0.01,0.04872 0.0144,0.108619 0.0144,0.179643 0,0.02474 -0.006,0.04622 -0.02,0.06504 -0.0165,0.02337 -0.04,0.03522 -0.0704,0.03522 -0.0388,0 -0.0681,-0.02251 -0.0877,-0.0677 -0.0171,-0.03849 -0.0328,-0.06203 -0.0473,-0.07045 -0.0128,-0.006 -0.0446,-0.0097 -0.0951,-0.0097 -0.0881,0 -0.18602,0.06676 -0.2937,0.200332 -0.14601,0.179274 -0.21902,0.349088 -0.21902,0.509719 0,0.07758 0.0251,0.144385 0.0757,0.200339 0.0517,0.05774 0.11407,0.0867 0.18713,0.0867 0.0626,0 0.12564,-0.01589 0.1889,-0.04768 0.0352,-0.01804 0.0892,-0.05361 0.1623,-0.106558 0.0346,-0.02517 0.061,-0.0378 0.0786,-0.0378 0.0261,0 0.0481,0.0097 0.0657,0.02981 0.0177,0.01924 0.0264,0.04089 0.0264,0.06504 0,0.02715 -0.0109,0.05086 -0.0346,0.07131 -0.1606,0.140794 -0.32304,0.211173 -0.4873,0.211173 -0.12593,0 -0.23253,-0.04794 -0.31952,-0.143482 -0.0839,-0.09264 -0.12594,-0.202213 -0.12594,-0.32853 0,-0.203956 0.0866,-0.412947 0.25929,-0.627111 0.14419,-0.17868 0.28946,-0.268021 0.43608,-0.268021 0.0299,0 0.0567,0.0026 0.0804,0.0052 0.0237,0.0026 0.0447,0.006 0.063,0.01271 0.0214,-0.03075 0.0491,-0.04604 0.0831,-0.04604 z" /><path
       id="text3723"
       style="font-style:normal;font-variant:normal;font-weight:normal;font-stretch:normal;font-size:4.9389px;font-family:'Comic Sans MS';-inkscape-font-specification:'Comic Sans MS, Normal';font-variant-ligatures:normal;font-variant-caps:normal;font-variant-numeric:normal;font-variant-east-asian:normal;fill:#222222;fill-opacity:1;stroke:none;stroke-width:0.0256845;stroke-linecap:round;stroke-linejoin:round;stroke-dasharray:none"
       d="m 431.43582,44.397786 a 4.5389401,7.2624781 0 0 0 -4.53891,7.262394 4.5389401,7.2624781 0 0 0 4.53891,7.262404 4.5389401,7.2624781 0 0 0 4.53911,-7.262404 4.5389401,7.2624781 0 0 0 -4.53911,-7.262394 z m 0.0103,3.208331 c 0.3328,3.78e-4 0.57477,0.239568 0.57477,0.567745 0,0.16594 -0.0401,0.26999 -0.15133,0.391711 -0.1224,0.133972 -0.35025,0.2043 -0.54006,0.166695 -0.11858,-0.02328 -0.19019,-0.06349 -0.28973,-0.162039 -0.35794,-0.353926 -0.1004,-0.964902 0.40635,-0.964112 z m -0.14086,1.311758 c 0.0596,2.6e-5 0.12576,7.9e-4 0.19938,8.59e-4 l 0.50803,0.0077 0.13661,0.06659 c 0.1369,0.06659 0.31448,0.231603 0.37455,0.347637 0.0152,0.02946 0.15008,0.450999 0.2996,0.936921 0.28769,0.93503 0.2981,0.988124 0.21273,1.082912 -0.0546,0.06066 -0.16566,0.101626 -0.2343,0.08674 -0.13075,-0.02843 -0.15772,-0.08976 -0.40884,-0.930229 l -0.23513,-0.787474 h -0.0679 c -0.0375,0 -0.068,0.006 -0.068,0.01177 0,0.0077 0.11506,0.40208 0.25565,0.879248 0.14057,0.47715 0.31177,1.059877 0.38051,1.294694 0.0687,0.234825 0.13001,0.442811 0.13631,0.462356 0.0117,0.03299 -0.0156,0.03582 -0.35997,0.03582 h -0.37146 v 1.064655 c 0,1.049527 -7.9e-4,1.065343 -0.0431,1.118643 -0.0922,0.116085 -0.26325,0.139092 -0.3768,0.05069 -0.11683,-0.09088 -0.11463,-0.06942 -0.11463,-1.196222 v -1.037842 h -0.0824 -0.082 l -2e-4,1.031769 c -2e-5,0.942135 -0.004,1.037919 -0.0359,1.10158 -0.0718,0.13911 -0.22314,0.19412 -0.35279,0.128259 -0.0386,-0.01967 -0.0895,-0.06135 -0.11316,-0.09278 -0.0421,-0.05619 -0.0429,-0.07904 -0.0486,-1.113188 l -0.006,-1.055703 h -0.36036 c -0.33378,0 -0.35962,-0.0043 -0.34949,-0.03582 0.0253,-0.08205 0.67937,-2.326893 0.7228,-2.480358 l 0.0475,-0.167727 h -0.066 -0.066 l -0.2355,0.78726 c -0.25286,0.845313 -0.27773,0.901353 -0.41234,0.927978 -0.12563,0.025 -0.25875,-0.06865 -0.27967,-0.196155 -0.0117,-0.07105 -0.004,-0.09838 0.45729,-1.600296 0.1048,-0.341168 0.18364,-0.471395 0.35955,-0.593142 0.15999,-0.11069 0.26227,-0.137047 0.68009,-0.136901 z m -1.29059,6.254828 c 0.0415,0 0.0733,0.02225 0.0957,0.06719 0.0117,0.02268 0.0349,0.08819 0.07,0.196155 0.0378,0.114325 0.0755,0.252128 0.11317,0.413215 l 0.0928,0.41872 c 0.0683,-0.156687 0.13646,-0.347336 0.20411,-0.572237 0.0415,-0.137049 0.0731,-0.232222 0.0948,-0.285282 0.0575,-0.139694 0.11345,-0.209378 0.16774,-0.209378 0.0448,0 0.0764,0.02242 0.0948,0.06719 0.0229,0.05438 0.0463,0.183741 0.07,0.388445 0.0132,0.103636 0.0344,0.228107 0.065,0.373403 l 0.0824,0.372422 c 0.0856,-0.203433 0.19275,-0.478602 0.32115,-0.82544 0.008,-0.0189 0.0229,-0.07861 0.0479,-0.179085 0.0185,-0.07397 0.0412,-0.131334 0.0679,-0.17241 0.0229,-0.03471 0.0531,-0.05215 0.0901,-0.05215 0.0645,0 0.0966,0.03178 0.0966,0.0948 0,0.01005 -0.0103,0.04227 -0.0307,0.0948 l -0.0382,0.102296 -0.0525,0.168544 -0.28461,0.684301 c -0.0262,0.07526 -0.0712,0.184335 -0.13515,0.327757 -0.0229,0.04227 -0.0575,0.06358 -0.10348,0.06358 -0.0293,0 -0.0552,-0.0077 -0.0777,-0.02448 -0.0257,-0.0189 -0.0384,-0.04253 -0.0384,-0.07019 -0.0295,-0.07655 -0.0481,-0.138672 -0.0556,-0.186629 -0.008,-0.04812 -0.0327,-0.184076 -0.0756,-0.408333 -0.0326,-0.169944 -0.0544,-0.306415 -0.0652,-0.409391 -0.0569,0.208484 -0.11785,0.384914 -0.18298,0.529582 -0.0753,0.167427 -0.1243,0.298581 -0.1466,0.393326 0.008,0.01469 0.0117,0.02878 0.0117,0.04261 0,0.02844 -0.0132,0.05172 -0.0384,0.07011 -0.0229,0.01701 -0.049,0.0256 -0.0786,0.0256 -0.0862,0 -0.12944,-0.03806 -0.12944,-0.114479 l -0.0297,-0.120484 -0.10451,-0.4644 c -0.0415,-0.156661 -0.11243,-0.381245 -0.21273,-0.673761 -0.004,-0.01323 -0.008,-0.02637 -0.008,-0.03771 0,-0.05877 0.0336,-0.0882 0.10055,-0.0882 z m 2.86044,0.0043 c 0.044,0 0.072,0.02852 0.0834,0.08608 0.0103,0.05112 0.0152,0.114031 0.0152,0.18863 0,0.02594 -0.008,0.04872 -0.021,0.06813 -0.0173,0.02465 -0.0419,0.03702 -0.0739,0.03702 -0.0411,0 -0.0716,-0.02371 -0.0919,-0.07105 -0.0179,-0.04055 -0.0344,-0.06513 -0.0496,-0.07389 -0.0132,-0.0077 -0.0467,-0.01005 -0.0998,-0.01005 -0.0925,0 -0.19535,0.07002 -0.30842,0.210358 -0.15334,0.188268 -0.22999,0.366606 -0.22999,0.535278 0,0.08145 0.0264,0.151617 0.0795,0.210373 0.0542,0.06057 0.1199,0.09089 0.19651,0.09089 0.0658,0 0.13192,-0.01658 0.19835,-0.05017 0.0371,-0.0189 0.0938,-0.05618 0.17044,-0.111806 0.0363,-0.02654 0.0641,-0.03986 0.0825,-0.03986 0.0274,0 0.0504,0.01005 0.0691,0.03118 0.0185,0.02027 0.0277,0.04313 0.0277,0.0683 0,0.02843 -0.0117,0.05353 -0.0363,0.07492 -0.16865,0.147812 -0.33922,0.221713 -0.51172,0.221713 -0.13221,0 -0.24417,-0.05017 -0.33552,-0.150647 -0.0881,-0.09715 -0.13221,-0.212333 -0.13221,-0.345 0,-0.214162 0.0907,-0.433617 0.27228,-0.658511 0.15141,-0.187641 0.30395,-0.281449 0.45792,-0.281449 0.0312,0 0.0595,8.59e-4 0.0844,0.0043 0.0249,8.59e-4 0.0469,0.0077 0.0662,0.01323 0.0224,-0.03213 0.0515,-0.04836 0.0874,-0.04836 z" /><text
       xml:space="preserve"
       style="font-style:normal;font-variant:normal;font-weight:normal;font-stretch:normal;font-size:4.24313px;font-family:'Comic Sans MS';-inkscape-font-specification:'Comic Sans MS, Normal';font-variant-ligatures:normal;font-variant-caps:normal;font-variant-numeric:normal;font-variant-east-asian:normal;fill:#000000;fill-opacity:1;stroke:none;stroke-width:0.0663098;stroke-linecap:round;stroke-linejoin:round;stroke-dasharray:none"
       x="318.25446"
       y="53.613338"
       id="text1489-6-9-6-57"><tspan
         style="font-style:normal;font-variant:normal;font-weight:normal;font-stretch:normal;font-size:4.24313px;font-family:'Comic Sans MS';-inkscape-font-specification:'Comic Sans MS, Normal';font-variant-ligatures:normal;font-variant-caps:normal;font-variant-numeric:normal;font-variant-east-asian:normal;fill:#000000;fill-opacity:1;stroke:none;stroke-width:0.0663098;stroke-dasharray:none"
         x="318.25446"
         y="53.613338"
         id="tspan2508-71-02">Foyer lycée</tspan></text><text
       xml:space="preserve"
       style="font-style:normal;font-variant:normal;font-weight:normal;font-stretch:normal;font-size:4.24313px;font-family:'Comic Sans MS';-inkscape-font-specification:'Comic Sans MS, Normal';font-variant-ligatures:normal;font-variant-caps:normal;font-variant-numeric:normal;font-variant-east-asian:normal;fill:#000000;fill-opacity:1;stroke:none;stroke-width:0.0663098;stroke-linecap:round;stroke-linejoin:round;stroke-dasharray:none"
       x="377.97998"
       y="51.028492"
       id="text1489-6-9-6-57-0"><tspan
         style="font-style:normal;font-variant:normal;font-weight:normal;font-stretch:normal;font-size:4.24313px;font-family:'Comic Sans MS';-inkscape-font-specification:'Comic Sans MS, Normal';font-variant-ligatures:normal;font-variant-caps:normal;font-variant-numeric:normal;font-variant-east-asian:normal;fill:#000000;fill-opacity:1;stroke:none;stroke-width:0.0663098;stroke-dasharray:none"
         x="377.97998"
         y="51.028492"
         id="tspan2508-71-02-8">D9</tspan></text><text
       xml:space="preserve"
       style="font-style:normal;font-variant:normal;font-weight:normal;font-stretch:normal;font-size:4.24313px;font-family:'Comic Sans MS';-inkscape-font-specification:'Comic Sans MS, Normal';font-variant-ligatures:normal;font-variant-caps:normal;font-variant-numeric:normal;font-variant-east-asian:normal;fill:#000000;fill-opacity:1;stroke:none;stroke-width:0.0663098;stroke-linecap:round;stroke-linejoin:round;stroke-dasharray:none"
       x="387.05511"
       y="54.918232"
       id="text1489-6-9-6-57-0-5"><tspan
         style="font-style:normal;font-variant:normal;font-weight:normal;font-stretch:normal;font-size:4.24313px;font-family:'Comic Sans MS';-inkscape-font-specification:'Comic Sans MS, Normal';font-variant-ligatures:normal;font-variant-caps:normal;font-variant-numeric:normal;font-variant-east-asian:normal;fill:#000000;fill-opacity:1;stroke:none;stroke-width:0.0663098;stroke-dasharray:none"
         x="387.05511"
         y="54.918232"
         id="tspan2508-71-02-8-8">D10</tspan></text><text
       xml:space="preserve"
       style="font-style:normal;font-variant:normal;font-weight:normal;font-stretch:normal;font-size:4.24313px;font-family:'Comic Sans MS';-inkscape-font-specification:'Comic Sans MS, Normal';font-variant-ligatures:normal;font-variant-caps:normal;font-variant-numeric:normal;font-variant-east-asian:normal;fill:#000000;fill-opacity:1;stroke:none;stroke-width:0.0663098;stroke-linecap:round;stroke-linejoin:round;stroke-dasharray:none"
       x="397.82492"
       y="52.878067"
       id="text1489-6-9-6-57-0-5-9"><tspan
         style="font-style:normal;font-variant:normal;font-weight:normal;font-stretch:normal;font-size:4.24313px;font-family:'Comic Sans MS';-inkscape-font-specification:'Comic Sans MS, Normal';font-variant-ligatures:normal;font-variant-caps:normal;font-variant-numeric:normal;font-variant-east-asian:normal;fill:#000000;fill-opacity:1;stroke:none;stroke-width:0.0663098;stroke-dasharray:none"
         x="397.82492"
         y="52.878067"
         id="tspan2508-71-02-8-8-4">D11</tspan></text><text
       xml:space="preserve"
       style="font-style:normal;font-variant:normal;font-weight:normal;font-stretch:normal;font-size:4.24313px;font-family:'Comic Sans MS';-inkscape-font-specification:'Comic Sans MS, Normal';font-variant-ligatures:normal;font-variant-caps:normal;font-variant-numeric:normal;font-variant-east-asian:normal;fill:#000000;fill-opacity:1;stroke:none;stroke-width:0.0663098;stroke-linecap:round;stroke-linejoin:round;stroke-dasharray:none"
       x="408.06372"
       y="52.21225"
       id="text1489-6-9-6-57-0-5-6"><tspan
         style="font-style:normal;font-variant:normal;font-weight:normal;font-stretch:normal;font-size:4.24313px;font-family:'Comic Sans MS';-inkscape-font-specification:'Comic Sans MS, Normal';font-variant-ligatures:normal;font-variant-caps:normal;font-variant-numeric:normal;font-variant-east-asian:normal;fill:#000000;fill-opacity:1;stroke:none;stroke-width:0.0663098;stroke-dasharray:none"
         x="408.06372"
         y="52.21225"
         id="tspan2508-71-02-8-8-5">D12</tspan></text><text
       xml:space="preserve"
       style="font-style:normal;font-variant:normal;font-weight:normal;font-stretch:normal;font-size:4.24313px;font-family:'Comic Sans MS';-inkscape-font-specification:'Comic Sans MS, Normal';font-variant-ligatures:normal;font-variant-caps:normal;font-variant-numeric:normal;font-variant-east-asian:normal;fill:#000000;fill-opacity:1;stroke:none;stroke-width:0.0663098;stroke-linecap:round;stroke-linejoin:round;stroke-dasharray:none"
       x="418.13235"
       y="52.855183"
       id="text1489-6-9-6-57-0-5-7"><tspan
         style="font-style:normal;font-variant:normal;font-weight:normal;font-stretch:normal;font-size:4.24313px;font-family:'Comic Sans MS';-inkscape-font-specification:'Comic Sans MS, Normal';font-variant-ligatures:normal;font-variant-caps:normal;font-variant-numeric:normal;font-variant-east-asian:normal;fill:#000000;fill-opacity:1;stroke:none;stroke-width:0.0663098;stroke-dasharray:none"
         x="418.13235"
         y="52.855183"
         id="tspan2508-71-02-8-8-1">D13</tspan></text><text
       xml:space="preserve"
       style="font-style:normal;font-variant:normal;font-weight:normal;font-stretch:normal;font-size:4.24313px;font-family:'Comic Sans MS';-inkscape-font-specification:'Comic Sans MS, Normal';font-variant-ligatures:normal;font-variant-caps:normal;font-variant-numeric:normal;font-variant-east-asian:normal;fill:#000000;fill-opacity:1;stroke:none;stroke-width:0.0663098;stroke-linecap:round;stroke-linejoin:round;stroke-dasharray:none"
       x="520.4809"
       y="-19.614628"
       id="text1489-6-9-6-57-0-5-7-5"><tspan
         style="font-style:normal;font-variant:normal;font-weight:normal;font-stretch:normal;font-size:4.24313px;font-family:'Comic Sans MS';-inkscape-font-specification:'Comic Sans MS, Normal';font-variant-ligatures:normal;font-variant-caps:normal;font-variant-numeric:normal;font-variant-east-asian:normal;fill:#000000;fill-opacity:1;stroke:none;stroke-width:0.0663098;stroke-dasharray:none"
         x="520.4809"
         y="-19.614628"
         id="tspan2508-71-02-8-8-1-1">Cuisines</tspan></text><text
       xml:space="preserve"
       style="font-style:normal;font-variant:normal;font-weight:normal;font-stretch:normal;font-size:7.45463px;font-family:'Comic Sans MS';-inkscape-font-specification:'Comic Sans MS, Normal';font-variant-ligatures:normal;font-variant-caps:normal;font-variant-numeric:normal;font-variant-east-asian:normal;fill:#000000;fill-opacity:1;stroke:none;stroke-width:0.116498;stroke-linecap:round;stroke-linejoin:round;stroke-dasharray:none"
       x="477.19608"
       y="-34.792892"
       id="text1489-6-9-6-57-0-5-96"><tspan
         style="font-style:normal;font-variant:normal;font-weight:normal;font-stretch:normal;font-size:7.45463px;font-family:'Comic Sans MS';-inkscape-font-specification:'Comic Sans MS, Normal';font-variant-ligatures:normal;font-variant-caps:normal;font-variant-numeric:normal;font-variant-east-asian:normal;fill:#000000;fill-opacity:1;stroke:none;stroke-width:0.116498;stroke-dasharray:none"
         x="477.19608"
         y="-34.792892"
         id="tspan2508-71-02-8-8-3">Cantine</tspan></text><path
       style="fill:none;stroke:#0066ff;stroke-width:0.514196;stroke-linecap:round;stroke-linejoin:round;stroke-opacity:1"
       d="m -129.32031,-144.17765 1.6881,-1.91021 c -0.47116,-0.52614 -1.11232,-0.60257 -1.6881,-0.56318"
       id="path1061-2-9-6" /><path
       style="fill:none;stroke:#0066ff;stroke-width:0.514196;stroke-linecap:round;stroke-linejoin:round;stroke-opacity:1"
       d="m -140.90614,-148.45498 -1.9102,-1.6881 c -0.52615,0.47116 -0.60257,1.11231 -0.56318,1.6881"
       id="path1061-2-9-8" /><path
       style="fill:none;stroke:#0066ff;stroke-width:0.514196;stroke-linecap:round;stroke-linejoin:round;stroke-opacity:1"
       d="m -200.35609,36.102625 -1.6881,1.910208 c 0.47116,0.526139 1.11232,0.602563 1.6881,0.563182"
       id="path1061-2-9-9" /><path
       style="fill:none;stroke:#0066ff;stroke-width:0.514196;stroke-linecap:round;stroke-linejoin:round;stroke-opacity:1"
       d="m -150.67479,40.554903 1.91021,1.688102 c 0.52614,-0.471165 0.60256,-1.112317 0.56318,-1.688102"
       id="path1061-2-9" /><path
       style="fill:none;stroke:#0066ff;stroke-width:0.514196;stroke-linecap:round;stroke-linejoin:round;stroke-opacity:1"
       d="m -185.38589,40.554903 1.9102,1.688102 c 0.52615,-0.471165 0.60257,-1.112317 0.56318,-1.688102"
       id="path1061-2-9-5" /><path
       style="fill:none;stroke:#0066ff;stroke-width:0.514196;stroke-linecap:round;stroke-linejoin:round;stroke-opacity:1"
       d="m -173.35013,-148.63853 -1.91021,-1.68809 c -0.52614,0.47115 -0.60256,1.11231 -0.56318,1.68809"
       id="path1061-2-9-5-9" /><a
       id="a3894-3-2-0"
       xlink:href="#Change?E-1?352"
       transform="matrix(0,-0.83655705,0.83655705,0,-323.71719,31.328534)"><path
         id="path1907-4-7-7-7-9-1"
         style="display:inline;fill:#222222;fill-opacity:1;stroke:#ffffff;stroke-width:0.359049;stroke-linecap:round;stroke-linejoin:miter;stroke-miterlimit:4;stroke-dasharray:none;stroke-opacity:1;paint-order:markers fill stroke"
         d="m 211.16626,139.27577 h 0.94081 l -1e-5,0.94079 m -1.53305,0.60645 1.53306,-1.54724 m 2.68494,-0.22678 -0.014,1.10765 -1.07997,0.014 -0.0187,1.12589 h -1.1182 v 1.126 h -1.10836 l -0.002,1.117 -1.07997,0.014 m -0.57293,-5.56166 h 5.69832 c 0.40432,0 0.72985,0.32549 0.72985,0.72984 v 5.42302 c 0,0.40432 -0.32553,0.72985 -0.72985,0.72985 h -5.69832 c -0.40434,0 -0.72985,-0.32553 -0.72985,-0.72985 v -5.42302 c 0,-0.40435 0.32551,-0.72984 0.72985,-0.72984 z" /></a><a
       id="a3894-3-2-0-53"
       xlink:href="#Change?E-1?346"
       transform="matrix(0,-0.83655705,0.83655705,0,-252.53718,22.822121)"><path
         id="path1907-4-7-7-7-9-1-92"
         style="display:inline;fill:#222222;fill-opacity:1;stroke:#ffffff;stroke-width:0.359049;stroke-linecap:round;stroke-linejoin:miter;stroke-miterlimit:4;stroke-dasharray:none;stroke-opacity:1;paint-order:markers fill stroke"
         d="m 211.16626,139.27577 h 0.94081 l -1e-5,0.94079 m -1.53305,0.60645 1.53306,-1.54724 m 2.68494,-0.22678 -0.014,1.10765 -1.07997,0.014 -0.0187,1.12589 h -1.1182 v 1.126 h -1.10836 l -0.002,1.117 -1.07997,0.014 m -0.57293,-5.56166 h 5.69832 c 0.40432,0 0.72985,0.32549 0.72985,0.72984 v 5.42302 c 0,0.40432 -0.32553,0.72985 -0.72985,0.72985 h -5.69832 c -0.40434,0 -0.72985,-0.32553 -0.72985,-0.72985 v -5.42302 c 0,-0.40435 0.32551,-0.72984 0.72985,-0.72984 z" /></a><a
       id="a3894-3-2-0-4"
       xlink:href="#Change?E-1?365"
       transform="matrix(0,-0.94074604,0.94074604,0,-243.38451,257.38491)"><path
         id="path1907-4-7-7-7-9-1-0"
         style="display:inline;fill:#222222;fill-opacity:1;stroke:#ffffff;stroke-width:0.359049;stroke-linecap:round;stroke-linejoin:miter;stroke-miterlimit:4;stroke-dasharray:none;stroke-opacity:1;paint-order:markers fill stroke"
         d="m 211.16626,139.27577 h 0.94081 l -1e-5,0.94079 m -1.53305,0.60645 1.53306,-1.54724 m 2.68494,-0.22678 -0.014,1.10765 -1.07997,0.014 -0.0187,1.12589 h -1.1182 v 1.126 h -1.10836 l -0.002,1.117 -1.07997,0.014 m -0.57293,-5.56166 h 5.69832 c 0.40432,0 0.72985,0.32549 0.72985,0.72984 v 5.42302 c 0,0.40432 -0.32553,0.72985 -0.72985,0.72985 h -5.69832 c -0.40434,0 -0.72985,-0.32553 -0.72985,-0.72985 v -5.42302 c 0,-0.40435 0.32551,-0.72984 0.72985,-0.72984 z" /></a><a
       id="a3894-3-2-0-5-8-6"
       xlink:href="#Change?E-1?353"
       transform="matrix(-0.95365901,0,0,0.95365901,17.730925,-106.28391)"><path
         id="path1907-4-7-7-7-9-1-9-4-2"
         style="display:inline;fill:#222222;fill-opacity:1;stroke:#ffffff;stroke-width:0.359049;stroke-linecap:round;stroke-linejoin:miter;stroke-miterlimit:4;stroke-dasharray:none;stroke-opacity:1;paint-order:markers fill stroke"
         d="m 211.16626,139.27577 h 0.94081 l -1e-5,0.94079 m -1.53305,0.60645 1.53306,-1.54724 m 2.68494,-0.22678 -0.014,1.10765 -1.07997,0.014 -0.0187,1.12589 h -1.1182 v 1.126 h -1.10836 l -0.002,1.117 -1.07997,0.014 m -0.57293,-5.56166 h 5.69832 c 0.40432,0 0.72985,0.32549 0.72985,0.72984 v 5.42302 c 0,0.40432 -0.32553,0.72985 -0.72985,0.72985 h -5.69832 c -0.40434,0 -0.72985,-0.32553 -0.72985,-0.72985 v -5.42302 c 0,-0.40435 0.32551,-0.72984 0.72985,-0.72984 z" /></a><text
       xml:space="preserve"
       style="font-style:normal;font-variant:normal;font-weight:normal;font-stretch:normal;font-size:3.31969px;font-family:'Comic Sans MS';-inkscape-font-specification:'Comic Sans MS, Normal';font-variant-ligatures:normal;font-variant-caps:normal;font-variant-numeric:normal;font-variant-east-asian:normal;fill:#000000;fill-opacity:1;stroke:none;stroke-width:0.0518785;stroke-linecap:round;stroke-linejoin:round;stroke-dasharray:none"
       x="-189.12381"
       y="-159.38097"
       id="text1489-6-9-3-6-5"><tspan
         style="font-style:normal;font-variant:normal;font-weight:normal;font-stretch:normal;font-size:3.31969px;font-family:'Comic Sans MS';-inkscape-font-specification:'Comic Sans MS, Normal';font-variant-ligatures:normal;font-variant-caps:normal;font-variant-numeric:normal;font-variant-east-asian:normal;fill:#000000;fill-opacity:1;stroke:none;stroke-width:0.0518785;stroke-dasharray:none"
         x="-189.12381"
         y="-159.38097"
         id="tspan2508-40-8-0">S003</tspan></text><text
       xml:space="preserve"
       style="font-style:normal;font-variant:normal;font-weight:normal;font-stretch:normal;font-size:3.31969px;font-family:'Comic Sans MS';-inkscape-font-specification:'Comic Sans MS, Normal';font-variant-ligatures:normal;font-variant-caps:normal;font-variant-numeric:normal;font-variant-east-asian:normal;fill:#000000;fill-opacity:1;stroke:none;stroke-width:0.0518785;stroke-linecap:round;stroke-linejoin:round;stroke-dasharray:none"
       x="-159.52974"
       y="-158.45303"
       id="text1489-6-9-3-6-5-1"><tspan
         style="font-style:normal;font-variant:normal;font-weight:normal;font-stretch:normal;font-size:3.31969px;font-family:'Comic Sans MS';-inkscape-font-specification:'Comic Sans MS, Normal';font-variant-ligatures:normal;font-variant-caps:normal;font-variant-numeric:normal;font-variant-east-asian:normal;fill:#000000;fill-opacity:1;stroke:none;stroke-width:0.0518785;stroke-dasharray:none"
         x="-159.52974"
         y="-158.45303"
         id="tspan2508-40-8-0-0">S002</tspan></text><text
       xml:space="preserve"
       style="font-style:normal;font-variant:normal;font-weight:normal;font-stretch:normal;font-size:3.31969px;font-family:'Comic Sans MS';-inkscape-font-specification:'Comic Sans MS, Normal';font-variant-ligatures:normal;font-variant-caps:normal;font-variant-numeric:normal;font-variant-east-asian:normal;fill:#000000;fill-opacity:1;stroke:none;stroke-width:0.0518785;stroke-linecap:round;stroke-linejoin:round;stroke-dasharray:none"
       x="-119.37553"
       y="-155.9352"
       id="text1489-6-9-3-6-5-5"><tspan
         style="font-style:normal;font-variant:normal;font-weight:normal;font-stretch:normal;font-size:3.31969px;font-family:'Comic Sans MS';-inkscape-font-specification:'Comic Sans MS, Normal';font-variant-ligatures:normal;font-variant-caps:normal;font-variant-numeric:normal;font-variant-east-asian:normal;fill:#000000;fill-opacity:1;stroke:none;stroke-width:0.0518785;stroke-dasharray:none"
         x="-119.37553"
         y="-155.9352"
         id="tspan2508-40-8-0-3">S001</tspan></text><text
       xml:space="preserve"
       style="font-style:normal;font-variant:normal;font-weight:normal;font-stretch:normal;font-size:3.31969px;font-family:'Comic Sans MS';-inkscape-font-specification:'Comic Sans MS, Normal';font-variant-ligatures:normal;font-variant-caps:normal;font-variant-numeric:normal;font-variant-east-asian:normal;fill:#000000;fill-opacity:1;stroke:none;stroke-width:0.0518785;stroke-linecap:round;stroke-linejoin:round;stroke-dasharray:none"
       x="-140.15108"
       y="53.474014"
       id="text1489-6-9-3-6-5-57"><tspan
         style="font-style:normal;font-variant:normal;font-weight:normal;font-stretch:normal;font-size:3.31969px;font-family:'Comic Sans MS';-inkscape-font-specification:'Comic Sans MS, Normal';font-variant-ligatures:normal;font-variant-caps:normal;font-variant-numeric:normal;font-variant-east-asian:normal;fill:#000000;fill-opacity:1;stroke:none;stroke-width:0.0518785;stroke-dasharray:none"
         x="-140.15108"
         y="53.474014"
         id="tspan2508-40-8-0-4">S006</tspan></text><text
       xml:space="preserve"
       style="font-style:normal;font-variant:normal;font-weight:normal;font-stretch:normal;font-size:3.31969px;font-family:'Comic Sans MS';-inkscape-font-specification:'Comic Sans MS, Normal';font-variant-ligatures:normal;font-variant-caps:normal;font-variant-numeric:normal;font-variant-east-asian:normal;fill:#000000;fill-opacity:1;stroke:none;stroke-width:0.0518785;stroke-linecap:round;stroke-linejoin:round;stroke-dasharray:none"
       x="-177.05304"
       y="52.94838"
       id="text1489-6-9-3-6-5-9"><tspan
         style="font-style:normal;font-variant:normal;font-weight:normal;font-stretch:normal;font-size:3.31969px;font-family:'Comic Sans MS';-inkscape-font-specification:'Comic Sans MS, Normal';font-variant-ligatures:normal;font-variant-caps:normal;font-variant-numeric:normal;font-variant-east-asian:normal;fill:#000000;fill-opacity:1;stroke:none;stroke-width:0.0518785;stroke-dasharray:none"
         x="-177.05304"
         y="52.94838"
         id="tspan2508-40-8-0-5">S007</tspan></text><text
       xml:space="preserve"
       style="font-style:normal;font-variant:normal;font-weight:normal;font-stretch:normal;font-size:3.31969px;font-family:'Comic Sans MS';-inkscape-font-specification:'Comic Sans MS, Normal';font-variant-ligatures:normal;font-variant-caps:normal;font-variant-numeric:normal;font-variant-east-asian:normal;fill:#000000;fill-opacity:1;stroke:none;stroke-width:0.0518785;stroke-linecap:round;stroke-linejoin:round;stroke-dasharray:none"
       x="-219.39665"
       y="51.69297"
       id="text1489-6-9-3-6-5-6"><tspan
         style="font-style:normal;font-variant:normal;font-weight:normal;font-stretch:normal;font-size:3.31969px;font-family:'Comic Sans MS';-inkscape-font-specification:'Comic Sans MS, Normal';font-variant-ligatures:normal;font-variant-caps:normal;font-variant-numeric:normal;font-variant-east-asian:normal;fill:#000000;fill-opacity:1;stroke:none;stroke-width:0.0518785;stroke-dasharray:none"
         x="-219.39665"
         y="51.69297"
         id="tspan2508-40-8-0-6">S009</tspan></text><path
       style="display:inline;fill:#222222;fill-opacity:1;stroke:none;stroke-width:0.0071618;stroke-opacity:1"
       d="m -207.64497,-152.43093 c 0.002,-2.23577 -0.006,-2.03143 0.0773,-2.12118 0.0794,-0.0861 -0.0641,-0.0793 1.65751,-0.0793 1.73728,0 1.55532,-0.007 1.63636,0.0656 0.0977,0.0879 0.0896,-0.10273 0.0916,2.13449 0.002,1.99315 0.002,1.99315 -1.73141,1.99315 -1.73326,0 -1.73326,0 -1.73142,-1.99278 z m 0.81298,1.46207 c -0.002,-0.40896 -0.002,-0.40896 -0.095,-0.4451 -0.0513,-0.02 -0.0956,-0.0397 -0.0986,-0.044 -0.0202,-0.0293 -0.002,-0.66105 0.0216,-0.70898 0.12648,-0.26707 0.59972,-0.32519 0.83102,-0.10207 0.0975,0.0941 0.1032,0.13749 0.0883,0.67721 -0.004,0.16053 -0.004,0.16053 -0.10291,0.18918 -0.0985,0.0286 -0.0985,0.0286 -0.0985,0.4357 0,0.40706 0,0.40706 0.33308,0.40706 0.33309,0 0.33309,0 0.33124,-0.41302 -0.002,-0.41303 -0.002,-0.41303 -0.091,-0.44799 -0.049,-0.0194 -0.0935,-0.0386 -0.0988,-0.0429 -0.0227,-0.0187 -0.009,-0.66151 0.0155,-0.71107 0.132,-0.27214 0.60522,-0.32732 0.83514,-0.0974 0.0953,0.0952 0.0915,0.0701 0.0876,0.59306 -0.002,0.26591 0.0161,0.23264 -0.15218,0.28172 -0.0502,0.0146 -0.0502,0.0146 -0.0502,0.42612 0,0.4115 0,0.4115 0.25425,0.4115 0.25425,0 0.25425,0 0.25425,-1.45028 0,-1.45026 0,-1.45026 -1.35,-1.45026 -1.34999,0 -1.34999,0 -1.34999,1.45026 0,1.45028 0,1.45028 0.21849,1.45028 0.21848,0 0.21848,0 0.21664,-0.40896 z m 0.24554,-1.49674 c -0.19928,-0.0391 -0.26773,-0.28424 -0.11764,-0.42142 0.11682,-0.10675 0.30057,-0.0749 0.37523,0.0652 0.0953,0.17889 -0.0607,0.39479 -0.25759,0.35623 z m 1.17423,-0.0175 c -0.0997,-0.0313 -0.17065,-0.13899 -0.16297,-0.24741 0.0219,-0.31059 0.48167,-0.29627 0.48167,0.015 0,0.17185 -0.15386,0.28407 -0.3187,0.23238 z m -0.66686,-1.32892 c 0.0103,-0.0185 -0.31198,-0.41828 -0.34844,-0.4323 -0.0178,-0.007 -0.0295,0.006 -0.2018,0.21298 -0.17272,0.20806 -0.17231,0.20743 -0.15322,0.22853 0.0224,0.0247 0.68933,0.0159 0.70346,-0.009 z m 0.84116,-0.20219 c 0.22183,-0.26033 0.24433,-0.23392 -0.19936,-0.23392 -0.37455,0 -0.37733,2.9e-4 -0.35404,0.044 0.0135,0.025 0.3121,0.3828 0.33388,0.39993 0.0246,0.0194 0.0224,0.0214 0.21952,-0.20987 z"
       id="path3485-6" /><a
       id="a1473-8-3"
       xlink:href="#Change?General?361"
       transform="matrix(-0.37899419,-0.37899419,0.37899419,-0.37899419,-126.26197,227.44983)"><path
         id="path892-5-0"
         style="fill:#222222;fill-opacity:1;stroke:#ffffff;stroke-width:0.765;stroke-linecap:round;stroke-linejoin:round;stroke-opacity:1"
         d="m 190.24877,260.40647 a 4.3892446,4.3892446 0 0 1 -4.38925,4.38924 4.3892446,4.3892446 0 0 1 -4.38924,-4.38924 4.3892446,4.3892446 0 0 1 4.38924,-4.38925 4.3892446,4.3892446 0 0 1 4.38925,4.38925 z m -6.35371,1.96447 3.68189,0.0673 m 0.24703,-3.99622 -3.92892,3.92892 v -3.61459" /></a><a
       id="a1473-8-3-56"
       xlink:href="#Change?General?347"
       transform="matrix(0.37899419,-0.37899419,0.37899419,0.37899419,-303.02058,-167.93888)"><path
         id="path892-5-0-4"
         style="fill:#222222;fill-opacity:1;stroke:#ffffff;stroke-width:0.765;stroke-linecap:round;stroke-linejoin:round;stroke-opacity:1"
         d="m 190.24877,260.40647 a 4.3892446,4.3892446 0 0 1 -4.38925,4.38924 4.3892446,4.3892446 0 0 1 -4.38924,-4.38924 4.3892446,4.3892446 0 0 1 4.38924,-4.38925 4.3892446,4.3892446 0 0 1 4.38925,4.38925 z m -6.35371,1.96447 3.68189,0.0673 m 0.24703,-3.99622 -3.92892,3.92892 v -3.61459" /></a><a
       id="a1473-8-3-6"
       xlink:href="#Change?General?347"
       transform="matrix(-0.37899419,-0.37899419,0.37899419,-0.37899419,-194.10063,31.246821)"><path
         id="path892-5-0-2"
         style="fill:#222222;fill-opacity:1;stroke:#ffffff;stroke-width:0.765;stroke-linecap:round;stroke-linejoin:round;stroke-opacity:1"
         d="m 190.24877,260.40647 a 4.3892446,4.3892446 0 0 1 -4.38925,4.38924 4.3892446,4.3892446 0 0 1 -4.38924,-4.38924 4.3892446,4.3892446 0 0 1 4.38924,-4.38925 4.3892446,4.3892446 0 0 1 4.38925,4.38925 z m -6.35371,1.96447 3.68189,0.0673 m 0.24703,-3.99622 -3.92892,3.92892 v -3.61459" /></a><a
       id="a1473-8-3-5"
       xlink:href="#Change?General?362"
       transform="matrix(-0.53597873,0,0,-0.53597873,-62.414799,168.03411)"><path
         id="path892-5-0-5"
         style="fill:#222222;fill-opacity:1;stroke:#ffffff;stroke-width:0.765;stroke-linecap:round;stroke-linejoin:round;stroke-opacity:1"
         d="m 190.24877,260.40647 a 4.3892446,4.3892446 0 0 1 -4.38925,4.38924 4.3892446,4.3892446 0 0 1 -4.38924,-4.38924 4.3892446,4.3892446 0 0 1 4.38924,-4.38925 4.3892446,4.3892446 0 0 1 4.38925,4.38925 z m -6.35371,1.96447 3.68189,0.0673 m 0.24703,-3.99622 -3.92892,3.92892 v -3.61459" /></a><rect
       style="fill:none;fill-opacity:1;stroke:none;stroke-width:0.162975;stroke-linecap:round;stroke-linejoin:round;stroke-dasharray:none;stroke-opacity:1"
       id="rect2840"
       width="10.101665"
       height="1.1676676"
       x="-61.997456"
       y="-94.51815"
       transform="rotate(-90)" /><text
       xml:space="preserve"
       style="font-style:normal;font-variant:normal;font-weight:normal;font-stretch:normal;font-size:7.06438px;font-family:'Comic Sans MS';-inkscape-font-specification:'Comic Sans MS, Normal';font-variant-ligatures:normal;font-variant-caps:normal;font-variant-numeric:normal;font-variant-east-asian:normal;fill:#000000;fill-opacity:1;stroke:none;stroke-width:0.110399;stroke-linecap:round;stroke-linejoin:round;stroke-dasharray:none"
       x="-208.53552"
       y="-44.908344"
       id="text1489-6-9-3-6"><tspan
         style="font-style:normal;font-variant:normal;font-weight:normal;font-stretch:normal;font-size:7.06438px;font-family:'Comic Sans MS';-inkscape-font-specification:'Comic Sans MS, Normal';font-variant-ligatures:normal;font-variant-caps:normal;font-variant-numeric:normal;font-variant-east-asian:normal;fill:#000000;fill-opacity:1;stroke:none;stroke-width:0.110399;stroke-dasharray:none"
         x="-208.53552"
         y="-44.908344"
         id="tspan2508-40-8">Vide sur</tspan><tspan
         style="font-style:normal;font-variant:normal;font-weight:normal;font-stretch:normal;font-size:7.06438px;font-family:'Comic Sans MS';-inkscape-font-specification:'Comic Sans MS, Normal';font-variant-ligatures:normal;font-variant-caps:normal;font-variant-numeric:normal;font-variant-east-asian:normal;fill:#000000;fill-opacity:1;stroke:none;stroke-width:0.110399;stroke-dasharray:none"
         x="-208.53552"
         y="-36.077869"
         id="tspan13619">Gymnase</tspan></text><path
       id="path1911"
       style="fill:none;stroke:#000000;stroke-width:0.75;stroke-linecap:round;stroke-linejoin:round;stroke-dasharray:none"
       d="m -201.75343,-155.06919 v -12.43721 m 11.22283,230.477893 v -22.41659 m 20.78104,-189.009883 v -24.08149 m -10.56618,38.66871 v -8.95241 m -28.57668,-12.24902 v 4.92863 h 5.67977 m 9.5076,184.117613 V 23.070655 m 25.04896,0 H -216.584 m 0,-156.938415 h 47.92791 m -47.92791,-9.24277 V 33.917272 m 96.70055,6.637631 h 5.842 v 16.028643 m -39.75603,-16.028643 v 22.339205 m 15.34174,-211.349088 h -59.94411 v -6.61421 H -216.584 m 78.12826,-13.44323 v -4.02405 m 0,24.08149 v -20.05744 h 9.17989 m 0,-4.02405 v 29.74032 m -39.38024,0 h 31.18871 m 6.75791,0 h 29.32139 v -29.74032 h -99.69213 v 5.03007 H -216.584 v 24.39587 c 14.08019,0 25.67238,0.24516 39.02427,0.30543 m 4.95779,0.013 c 1.29423,6.7e-4 2.60835,-4e-4 3.94585,-0.004 v 1.68739 m 0,6.31332 V 24.104693 m 0,7.024683 v 2.913131 h 4.02363 m -4.02363,0 -58.38863,-0.156605 m 26.73309,6.669001 v 22.437198 m 98.34557,-1.074159 v 0.866967 l -124.47062,0.266764 m 69.51804,-29.009166 h 54.95258 v 20.961906 m -17.87293,7.818151 V 40.554903 h -80.47264 V 33.959792 M 369.53825,-170.70121 v 21.5725 m 10.00166,95.193959 h -25.04369 m 0,28.93953 h 25.04369 m 0,29.4265454 h -25.04369 m 32.14658,-146.4476044 78.9981,0.0982 m 76.14193,177.852902 v 21.697182 h 2.61406 v -8.666158 m -28.84636,-23.33793 h 26.2323 m -22.49527,9.643934 v 0.663022 h 22.49527 V 25.297173 h 8.24489 M 536.2047,62.746596 V 48.251029 m -17.295,14.495567 v -19.77606 m -3.35917,-7.698676 h 3.73703 m -12.22642,0 H 477.79491 V 62.746596 M 386.6428,-142.01628 V 33.934931 h 79.78657 v -2.386747 m 0,-3.977913 v -2.784542 h -5.11448 V -131.1668 h 4.32601 v -2.36914 m 0,-5.37021 v -3.01187 h 62.27598 v 10.31422 H 511.0959 v 117.519472 l -1.81033,0.485072 v 39.227182 h 6.26496 v 9.643934 h -8.48939 V 62.746596 M 447.35962,40.697434 h 5.11857 m -15.68675,0 v 22.049162 m -10.528,-22.049162 V 62.746596 M 417.10166,45.357113 V 62.746596 M 406.6467,40.697434 v 22.049162 m -15.34346,-17.067293 -0.007,-4.981869 h 23.45486 l 0.0402,4.659679 h 4.58089 l -0.0201,-4.659679 h 28.00739 V 62.746596 M 386.28115,45.679303 v 17.067293 m -9.92526,0 -0.0503,-22.049162 h 9.9805 l -0.005,4.981869 h 9.05684 v 17.067293 m -29.79188,-22.049162 -0.0426,22.049162 m -51.11011,0 V 40.697434 h 13.44755 l -0.0426,2.812969 5.32968,-7.7e-5 -0.0163,-2.812892 h 20.48037 l -0.0224,5.00083 h 4.3189 l 0.0634,-5.00083 h 7.59412 m -19.81865,0 v 22.049162 m 28.92528,-233.447806 v 21.48084 H 587.7999 v -21.48084 M 354.496,34.227094 h 25.04369 V -142.09664 H 354.496 M 292.55358,43.425152 v 19.321444 h 234.64986 m 7.83573,0 h 14.98833 v -37.051633 -59.782607 -60.009953 -5.284339 h 4.74162 v -31.543774 h -18.32354 v -9.80471 h 81.41119 v -29.97079 H 354.49622 v 20.68526 m 0,5.89747 V 34.227094 l -0.75607,-8.59e-4 m -5.78234,-0.0077 -55.40401,-0.07191 v 2.11815 m 63.17533,9.433391 V 62.7465" /><a
       id="a3894-3-7-6-3"
       xlink:href="#Change?E--1?380"
       transform="matrix(1.1281314,0,0,-1.1281314,303.33852,217.03329)"><path
         id="path1907-4-7-7-7-2-0-6"
         style="display:inline;fill:#222222;fill-opacity:1;stroke:#ffffff;stroke-width:0.359049;stroke-linecap:round;stroke-linejoin:miter;stroke-miterlimit:4;stroke-dasharray:none;stroke-opacity:1;paint-order:markers fill stroke"
         d="m 211.16626,139.27577 h 0.94081 l -1e-5,0.94079 m -1.53305,0.60645 1.53306,-1.54724 m 2.68494,-0.22678 -0.014,1.10765 -1.07997,0.014 -0.0187,1.12589 h -1.1182 v 1.126 h -1.10836 l -0.002,1.117 -1.07997,0.014 m -0.57293,-5.56166 h 5.69832 c 0.40432,0 0.72985,0.32549 0.72985,0.72984 v 5.42302 c 0,0.40432 -0.32553,0.72985 -0.72985,0.72985 h -5.69832 c -0.40434,0 -0.72985,-0.32553 -0.72985,-0.72985 v -5.42302 c 0,-0.40435 0.32551,-0.72984 0.72985,-0.72984 z" /></a><text
       xml:space="preserve"
       style="font-style:normal;font-variant:normal;font-weight:normal;font-stretch:normal;font-size:3.28985px;font-family:'Comic Sans MS';-inkscape-font-specification:'Comic Sans MS, Normal';font-variant-ligatures:normal;font-variant-caps:normal;font-variant-numeric:normal;font-variant-east-asian:normal;fill:#000000;fill-opacity:1;stroke:none;stroke-width:0.0514123;stroke-linecap:round;stroke-linejoin:round;stroke-dasharray:none"
       x="252.55353"
       y="95.776436"
       id="text1489-6-9-3-1"><tspan
         style="font-style:normal;font-variant:normal;font-weight:normal;font-stretch:normal;font-size:3.28985px;font-family:'Comic Sans MS';-inkscape-font-specification:'Comic Sans MS, Normal';font-variant-ligatures:normal;font-variant-caps:normal;font-variant-numeric:normal;font-variant-east-asian:normal;fill:#000000;fill-opacity:1;stroke:none;stroke-width:0.0514123;stroke-dasharray:none"
         x="252.55353"
         y="95.776436"
         id="tspan2508-40-9">C009</tspan></text><text
       xml:space="preserve"
       style="font-style:normal;font-variant:normal;font-weight:normal;font-stretch:normal;font-size:3.28985px;font-family:'Comic Sans MS';-inkscape-font-specification:'Comic Sans MS, Normal';font-variant-ligatures:normal;font-variant-caps:normal;font-variant-numeric:normal;font-variant-east-asian:normal;fill:#000000;fill-opacity:1;stroke:none;stroke-width:0.0514123;stroke-linecap:round;stroke-linejoin:round;stroke-dasharray:none"
       x="-77.533516"
       y="102.10673"
       id="text1489-6-9-3-1-3"><tspan
         style="font-style:normal;font-variant:normal;font-weight:normal;font-stretch:normal;font-size:3.28985px;font-family:'Comic Sans MS';-inkscape-font-specification:'Comic Sans MS, Normal';font-variant-ligatures:normal;font-variant-caps:normal;font-variant-numeric:normal;font-variant-east-asian:normal;fill:#000000;fill-opacity:1;stroke:none;stroke-width:0.0514123;stroke-dasharray:none"
         x="-77.533516"
         y="102.10673"
         id="tspan2508-40-9-4">Musculation</tspan></text><path
       id="path464"
       style="fill:none;fill-opacity:1;stroke:#000000;stroke-width:0.75;stroke-linecap:round;stroke-linejoin:round;stroke-dasharray:none;stroke-opacity:1;paint-order:stroke fill markers"
       d="M -79.473465,62.787873 V 163.76572 H 65.318969 c 0,0 -9.702977,2.846 -9.722727,12.97883 -0.01992,10.13289 9.722727,13.08571 9.722727,13.08571 v 10.7533 c 0,0 -9.722727,3.50262 -9.722727,13.32305 0,9.82035 9.722727,13.33314 9.722727,13.33314 v 13.54776 h 11.137899 v 22.91834 H 110.9352 v -22.91834 h 11.13799 v -13.54776 c 0,0 9.71345,-2.28022 9.71345,-12.71702 0,-10.43689 -9.71345,-13.93917 -9.71345,-13.93917 v -10.7533 c 0,0 9.72273,-3.16576 9.72273,-13.08571 0,-9.91988 -9.72273,-12.97883 -9.72273,-12.97883 51.38572,2e-5 92.92556,1.7e-4 144.79243,1.7e-4 V 62.78804 m -324.922307,66.88552 h -21.416778 m 21.416778,0 V 62.788552 l -21.416778,-5.98e-4 m 312.247105,0 V 129.67382 H 165.8879 V 62.787954 h 66.88574 m -175.379635,0 v 66.885866 l 72.604065,-2.6e-4 V 62.788211 Z m -102.775232,2.57e-4 V 129.67356 H 21.504004 V 62.788211 Z M -79.473465,29.810209 v 20.302543 4.236506 m 0,4.396584 v 4.042112 m 0,-32.97783 h 34.09198 v 20.302543 h 66.885747 m 0,0 V 29.810124 H 165.8879 v 20.302543 h 66.88574 V 29.810124 h 34.09198 v 20.302543 4.517224 m 0,3.64823 v 4.509833 H 245.4491 v 66.885866 h 21.41652" /></g></svg>
