<?xml version="1.0" encoding="UTF-8" standalone="no"?>
<!-- Created with Inkscape (http://www.inkscape.org/) -->

<svg
   width="968.60486mm"
   height="988.06934mm"
   viewBox="0 0 968.60486 988.06934"
   version="1.1"
   id="svg5"
   xml:space="preserve"
   xmlns:xlink="http://www.w3.org/1999/xlink"
   xmlns="http://www.w3.org/2000/svg"
   xmlns:svg="http://www.w3.org/2000/svg"><defs
     id="defs2" /><g
     id="layer1"
     transform="translate(279.92286,360.70546)"><path
       id="path17704"
       style="display:inline;fill:none;fill-opacity:1;stroke:#000000;stroke-width:5;stroke-linecap:round;stroke-linejoin:round;stroke-dasharray:10, 10;stroke-dashoffset:0;stroke-opacity:1;paint-order:stroke fill markers"
       d="M -128.34713,608.38988 V 265.48989 l -147.37931,-39.49018 m 961.90842,-520.17554 v 752.28237 m -47.62526,-816.31201 h -897.58646 m 2.64601,63.06206 H 641.2027 V 457.139 l -720.573875,166.97943 -23.947245,-6.73519 2.81275,-383.18656 -121.09277,-30.94995 -45.28701,-12.13463" /><path
       style="display:inline;fill:none;fill-opacity:1;stroke:#000000;stroke-width:7.908;stroke-linecap:round;stroke-linejoin:round;stroke-dasharray:none;stroke-opacity:1;paint-order:stroke fill markers"
       d="m -214.48023,-206.53534 522.67152,9e-5 v -87.64058 l 55.44503,-8e-5 v 87.17862 h 277.01547 v 325.00185 h -131.2526 v 153.32905 l -125.18923,6e-5 v 77.46147 h -88.74669 -88.7466 v 159.55515 l -46.7628,30.3287 -0.24329,30.39111 -126.83387,29.39137 0.529178,-61.31631 -46.024083,-46.02444 V 279.51898 h -9.16905 v -15.58262 h -51.86182 l -28.504855,-28.5048 -122.09053,-32.71404 v -409.19125 z"
       id="path15494-2" /><path
       style="display:inline;fill:#f1f1f1;fill-opacity:1;stroke:none;stroke-width:7.908;stroke-linecap:round;stroke-linejoin:round;stroke-dasharray:none;stroke-opacity:1;paint-order:stroke fill markers"
       d="m -214.48023,-206.53534 522.67152,9e-5 v -87.64058 l 55.44503,-8e-5 v 87.17862 h 277.01547 v 325.00185 h -131.2526 v 153.32905 l -125.18923,6e-5 v 77.46147 h -88.74669 -88.7466 v 159.55515 l -46.7628,30.3287 -0.24329,30.39111 -126.83387,29.39137 0.529178,-61.31631 -46.024083,-46.02444 V 279.51898 h -9.16905 v -15.58262 h -51.86182 l -28.504855,-28.5048 -122.09053,-32.71404 v -409.19125 z"
       id="path2236" /><g
       id="g4877"
       style="opacity:0.1"
       transform="translate(0.40404536,-0.003711)"><path
         id="rect7785"
         style="display:inline;fill:#99bcae;stroke:#000000;stroke-width:1;stroke-linejoin:bevel;paint-order:stroke fill markers"
         d="M 33.913521,-67.46072 H 149.90851 v 53.133224 H 33.913521 Z m 133.402219,5.66449 h 79.11043 v 41.804244 h -79.11043 z m -223.30662,0 h 79.110349 v 41.804244 H -55.99088 Z m 30.211597,-135.59536 c 0,0 -37.873003,6.72854 -37.604978,53.28875 0.26811,46.560196 37.604978,52.007124 37.604978,52.007124 49.657224,-0.284472 191.244963,-0.525791 240.897893,0 0,0 37.33687,-5.446928 37.60498,-52.007124 0.26802,-46.56021 -37.60498,-53.28875 -37.60498,-53.28875 z m 0,13.48392 H 215.11861 c 0,0 -23.90904,15.09566 -23.90904,38.87365 0,23.7779 23.90904,39.45438 23.90904,39.45438 H -25.779283 c 0,0 23.9091193,-15.67648 23.9091193,-39.45438 0,-23.77799 -23.9091193,-38.87365 -23.9091193,-38.87365 z m 60.015446,10.51983 v 57.28845 H 155.10265 v -57.28845 z" /><path
         id="path16386"
         style="display:inline;opacity:1;fill:#97d175;fill-opacity:1;stroke:none;stroke-width:7.908;stroke-linecap:round;stroke-linejoin:round;stroke-dasharray:none;stroke-opacity:1;paint-order:stroke fill markers"
         d="M 80.948212,397.58987 H 9.8545445 V 289.45259 H 58.12347 c 0,0 7.011827,10.15199 10.816036,13.02069 3.804124,2.8687 12.008706,4.19148 12.008706,4.19148 z m 0,117.49166 V 405.82177 H 9.8545445 v 61.36507 c 0,0 14.2851515,-1.37521 29.8157865,14.15547 15.530721,15.53068 17.330631,32.99087 17.330631,32.99087 z M 106.16413,397.58987 h 71.09376 V 289.45259 h -48.26893 c 0,0 -7.01191,10.15199 -10.81612,13.02069 -3.80413,2.8687 -12.00871,4.19148 -12.00871,4.19148 z m 0,117.49166 V 405.82177 h 71.09376 v 61.36507 c 0,0 -14.28524,-1.37521 -29.81588,14.15547 -15.53063,15.53068 -17.33054,32.99087 -17.33054,32.99087 z M 384.09402,100.88064 h -69.45237 v 36.0326 h 69.45237 V 118.00827 H 484.45738 V 100.88064 Z M 570.51816,-55.164927 V 62.993038 l -19.70095,1.722214 h -18.9094 v 28.780052 l -31.47993,3.439643 V 118.00827 H 640.24774 V -55.164927 Z M 345.01513,16.302949 H 306.53609 V -133.49825 h 38.47904 z m 166.00602,47.366618 v 12.35843 H 384.09402 v 6.094831 l -79.19347,0.139031 -0.92602,65.145481 h -11.47438 l -0.36524,-65.123092 0.0244,-19.60072 m 91.68278,79.943762 h -69.45237 v 91.37845 h 69.45237 z m -170.22253,33.70153 h 87.04003 v 82.28559 H 220.4987 l -6.61464,-6.61464 z m 170.18638,66.1969 h -69.38015 v 106.27314 h 69.38015 z M 390.2587,31.073881 h 57.14842 V -137.46522 H 390.25867 Z M 13.754765,224.21251 c 13.989475,6.9e-4 27.979035,0 41.968681,0 -4.218054,-5.92888 -4.452242,-14.52935 -0.163597,-20.48754 1.611581,-2.31415 3.818809,-4.21547 6.360874,-5.44018 -0.03006,-1.98686 -0.01031,-3.97398 -0.01374,-5.96093 -5.165113,-2.67322 -9.077958,-7.91813 -9.572528,-13.78498 -0.379665,-3.77726 0.48332,-7.69724 2.550997,-10.89471 -13.710201,-0.053 -27.420487,-0.0427 -41.130773,-0.047 v 56.61328 z m 127.289015,-56.60346 -8.07224,0.0333 c 3.36228,5.05521 3.71155,12.00004 0.64185,17.27666 -1.73052,3.15722 -4.4379,5.78037 -7.66725,7.37765 0,2.0072 -0.0103,4.01431 -0.0103,6.02151 6.00697,3.17671 10.00956,9.88825 9.69559,16.71122 -0.093,3.24661 -1.05089,6.49244 -2.88309,9.18719 13.77985,6.9e-4 27.55987,0 41.3398,0 v -56.61909 c -11.01493,0 -22.02994,0.009 -33.04496,0.0102 z M -17.7316,180.163 h -62.865555 l -22.958535,13.25517 v 41.74972 l 29.817071,29.81715 h 51.641427 v 0 l -0.09412,-37.27657 h 4.459714 z M 59.670154,64.855434 V 91.10113 h 23.895164 l 5.514384,-5.07937 V 64.855434 Z m 38.599939,0 V 86.02176 l 5.514387,5.07937 h 23.89516 V 64.855434 Z M 59.670154,99.56766 v 27.93996 h 29.409548 v -22.85991 l -5.514384,-5.08005 z m 44.114326,0 -5.514387,5.08005 v 22.85991 H 127.67964 V 99.56766 Z M -43.298037,64.855349 V 91.10109 h 22.013155 l 5.080065,-5.07938 V 64.855349 Z m 35.559765,0 V 86.02171 l 5.080064,5.07938 H 19.35495 V 64.855349 Z M -43.298037,99.56763 v 27.94001 h 27.09322 V 104.6477 l -5.080065,-5.08007 z m 40.639829,0 -5.080064,5.08007 v 22.85994 H 19.35495 V 99.56763 Z M 167.97111,64.855299 V 91.10104 h 22.01315 l 5.08007,-5.07938 V 64.855299 Z m 35.55976,0 V 86.02166 l 5.08007,5.07938 h 22.01315 V 64.855299 Z M 167.97111,99.56758 v 27.94001 h 27.09322 v -22.85994 l -5.08007,-5.08007 z m 40.63983,0 -5.08007,5.08007 v 22.85994 h 27.09322 V 99.56758 Z M -79.647777,8.16443 V 29.6898 H -45.5558 v 20.302631 l 66.885747,-8.5e-5 V 29.6898 H 165.71361 v 20.302546 h 28.65755 V 8.16443 H -6.23782 V 49.992346 H -17.318789 V 8.16443 Z m 285.023907,0 v 41.827916 l 27.22322,8.5e-5 V 29.6898 h 34.09198 V 8.16443 Z m 8.2434,168.16439 h 87.04003 v 82.28559 h -80.16089 l -6.61464,-6.61464 z M 13.754765,224.21251 c 13.989475,6.9e-4 27.979035,0 41.968681,0 -4.218054,-5.92888 -4.452242,-14.52935 -0.163597,-20.48754 1.611581,-2.31415 3.818809,-4.21547 6.360874,-5.44018 -0.03006,-1.98686 -0.01031,-3.97398 -0.01374,-5.96093 -5.165113,-2.67322 -9.077958,-7.91813 -9.572528,-13.78498 -0.379665,-3.77726 0.48332,-7.69724 2.550997,-10.89471 -13.710201,-0.053 -27.420487,-0.0427 -41.130773,-0.047 v 56.61328 z m 127.289015,-56.60346 -8.07224,0.0333 c 3.36228,5.05521 3.71155,12.00004 0.64185,17.27666 -1.73052,3.15722 -4.4379,5.78037 -7.66725,7.37765 0,2.0072 -0.0103,4.01431 -0.0103,6.02151 6.00697,3.17671 10.00956,9.88825 9.69559,16.71122 -0.093,3.24661 -1.05089,6.49244 -2.88309,9.18719 13.77985,6.9e-4 27.55987,0 41.3398,0 v -56.61909 c -11.01493,0 -22.02994,0.009 -33.04496,0.0102 z M -17.7316,180.163 h -62.865557 l -22.958533,13.25517 v 41.74972 l 29.817073,29.81715 h 51.641425 v 0 l -0.09412,-37.27657 h 4.459714 z" /><path
         id="path13677"
         style="display:inline;fill:#9799ab;fill-opacity:1;stroke:none;stroke-width:1;stroke-linecap:round;stroke-linejoin:round;stroke-opacity:1;paint-order:stroke fill markers"
         d="M 384.09402,100.88064 V 76.027997 h 152.31713 c 6.60837,0 14.37283,-4.704428 14.40606,-11.312745 V -102.63657 h 4.49879 v -12.09993 h -21.50583 v -27.20832 l 54.38637,-1.7e-4 v 2.31918 h 29.60676 v -30.65112 l -231.97173,-1.7e-4 5e-5,-2.19366 -22.72258,-0.18432 v -11.90775 h 277.1387 V -55.164927 H 570.51816 V 73.935089 c -2.23755,11.309156 -12.11468,26.366871 -22.43864,26.554521 l -47.65164,0.39103 v 17.12763 h -15.9705 v -17.12763 z m 0,170.45673 124.90111,-4e-5 V 118.00827 H 384.09402 Z" /></g><g
       id="g4166"
       transform="translate(1.2554154,1.511809)"><text
         xml:space="preserve"
         style="font-size:20.4684px;font-family:'Comic Sans MS';-inkscape-font-specification:'Comic Sans MS';display:inline;opacity:1;fill:#000000;fill-opacity:1;stroke:none;stroke-width:14.5051;stroke-linecap:round;stroke-linejoin:round;stroke-dasharray:29.0103, 29.0103;stroke-dashoffset:0;stroke-opacity:1;paint-order:stroke fill markers"
         x="-6.1774592"
         y="-322.15366"
         id="text18040"><tspan
           id="tspan18038"
           style="font-size:20.4684px;fill:#000000;fill-opacity:1;stroke:none;stroke-width:14.5051"
           x="-6.1774592"
           y="-322.15366">Boulevard de la Reine</tspan></text><text
         xml:space="preserve"
         style="font-size:20.4684px;font-family:'Comic Sans MS';-inkscape-font-specification:'Comic Sans MS';display:inline;opacity:1;fill:#000000;fill-opacity:1;stroke:none;stroke-width:14.5051;stroke-linecap:round;stroke-linejoin:round;stroke-dasharray:29.0103, 29.0103;stroke-dashoffset:0;stroke-opacity:1;paint-order:stroke fill markers"
         x="-105.31647"
         y="668.60071"
         id="text18040-8"
         transform="rotate(-90)"><tspan
           id="tspan18038-2"
           style="font-size:20.4684px;fill:#000000;fill-opacity:1;stroke:none;stroke-width:14.5051"
           x="-105.31647"
           y="668.60071">Rue de Provence</tspan></text><text
         xml:space="preserve"
         style="font-size:20.4684px;font-family:'Comic Sans MS';-inkscape-font-specification:'Comic Sans MS';display:inline;opacity:1;fill:#000000;fill-opacity:1;stroke:none;stroke-width:14.5051;stroke-linecap:round;stroke-linejoin:round;stroke-dasharray:29.0103, 29.0103;stroke-dashoffset:0;stroke-opacity:1;paint-order:stroke fill markers"
         x="-87.258568"
         y="622.86591"
         id="text18040-0"
         transform="rotate(-13.646281)"><tspan
           id="tspan18038-8"
           style="font-size:20.4684px;fill:#000000;fill-opacity:1;stroke:none;stroke-width:14.5051"
           x="-87.258568"
           y="622.86591">Avenue de Saint-Cloud</tspan></text><text
         xml:space="preserve"
         style="font-size:16.1267px;font-family:'Comic Sans MS';-inkscape-font-specification:'Comic Sans MS';display:inline;opacity:1;fill:#000000;fill-opacity:1;stroke:none;stroke-width:11.4283;stroke-linecap:round;stroke-linejoin:round;stroke-dasharray:22.8567, 22.8567;stroke-dashoffset:0;stroke-opacity:1;paint-order:stroke fill markers"
         x="-211.74667"
         y="279.88037"
         id="text18040-0-1"
         transform="rotate(16.35372)"><tspan
           id="tspan18038-8-9"
           style="font-size:16.1267px;fill:#000000;fill-opacity:1;stroke:none;stroke-width:11.4283"
           x="-211.74667"
           y="279.88037">Rue de l'abbé de l'épée</tspan></text><text
         xml:space="preserve"
         style="font-size:56.4977px;font-family:'Comic Sans MS';-inkscape-font-specification:'Comic Sans MS';display:inline;opacity:1;fill:#000000;fill-opacity:1;stroke:none;stroke-width:40.0375;stroke-linecap:round;stroke-linejoin:round;stroke-dasharray:80.0754, 80.0754;stroke-dashoffset:0;stroke-opacity:1;paint-order:stroke fill markers"
         x="-6.580276"
         y="-86.818092"
         id="text18040-7"><tspan
           id="tspan18038-7"
           style="font-size:56.4977px;fill:#000000;fill-opacity:1;stroke:none;stroke-width:40.0375"
           x="-6.580276"
           y="-86.818092">Etage 3</tspan></text></g><path
       style="fill:none;stroke:#0066ff;stroke-width:0.514344;stroke-linecap:round;stroke-linejoin:round;stroke-opacity:1"
       d="m -177.51809,-14.270381 -1.6886,1.910759 c 0.47129,0.526291 1.11264,0.602737 1.6886,0.563344"
       id="path1061-2-9-57" /><path
       style="fill:none;stroke:#0066ff;stroke-width:0.514344;stroke-linecap:round;stroke-linejoin:round;stroke-opacity:1"
       d="m -179.11521,-24.933544 -1.68859,1.910759 c 0.4713,0.526292 1.11265,0.602737 1.68859,0.563344"
       id="path1061-2-9-57-1" /><path
       style="fill:none;stroke:#0066ff;stroke-width:0.514344;stroke-linecap:round;stroke-linejoin:round;stroke-opacity:1"
       d="m -179.11521,-26.586122 -1.68859,-1.910758 c 0.4713,-0.526292 1.11265,-0.602737 1.68859,-0.563345"
       id="path1061-2-9-57-1-6" /><path
       style="fill:none;stroke:#0066ff;stroke-width:0.514344;stroke-linecap:round;stroke-linejoin:round;stroke-opacity:1"
       d="m -177.46317,-44.196131 -1.68858,1.910759 c 0.4713,0.526291 1.11264,0.602737 1.68858,0.563344"
       id="path1061-2-9-57-1-9" /><path
       style="fill:none;stroke:#0066ff;stroke-width:0.514344;stroke-linecap:round;stroke-linejoin:round;stroke-opacity:1"
       d="m -179.47577,-54.143263 -1.6886,1.910766 c 0.47131,0.526298 1.11265,0.602745 1.6886,0.563351"
       id="path1061-2-9-57-1-5" /><path
       style="fill:none;stroke:#0066ff;stroke-width:0.514344;stroke-linecap:round;stroke-linejoin:round;stroke-opacity:1"
       d="m -179.58183,-56.67075 -1.68859,-1.910758 c 0.47129,-0.526279 1.11264,-0.602724 1.68859,-0.563332"
       id="path1061-2-9-57-1-99" /><path
       style="fill:none;stroke:#0066ff;stroke-width:0.514344;stroke-linecap:round;stroke-linejoin:round;stroke-opacity:1"
       d="m -179.84279,-84.170436 -1.6886,1.910758 c 0.4713,0.526292 1.11265,0.602739 1.6886,0.563345"
       id="path1061-2-9-57-1-1" /><path
       style="fill:none;stroke:#0066ff;stroke-width:0.514344;stroke-linecap:round;stroke-linejoin:round;stroke-opacity:1"
       d="m -178.0625,-112.81359 -1.68859,1.91077 c 0.47129,0.52628 1.11263,0.60273 1.68859,0.56333"
       id="path1061-2-9-57-1-7" /><path
       style="fill:none;stroke:#0066ff;stroke-width:0.514344;stroke-linecap:round;stroke-linejoin:round;stroke-opacity:1"
       d="m -177.80105,-115.50818 -1.68859,-1.91076 c 0.47129,-0.52629 1.11264,-0.60274 1.68859,-0.56334"
       id="path1061-2-9-57-1-7-7" /><path
       style="fill:none;stroke:#0066ff;stroke-width:0.514344;stroke-linecap:round;stroke-linejoin:round;stroke-opacity:1"
       d="m -179.9709,-85.989265 -1.68859,-1.910758 c 0.47129,-0.526291 1.11264,-0.602737 1.68859,-0.563345"
       id="path1061-2-9-57-1-0" /><path
       style="fill:none;stroke:#0066ff;stroke-width:0.514344;stroke-linecap:round;stroke-linejoin:round;stroke-opacity:1"
       d="m -177.88599,-74.364164 -1.68859,1.910758 c 0.47129,0.526292 1.11264,0.602738 1.68859,0.563345"
       id="path1061-2-9-57-1-67" /><path
       style="fill:none;stroke:#0066ff;stroke-width:0.514344;stroke-linecap:round;stroke-linejoin:round;stroke-opacity:1"
       d="m -168.89069,-156.64432 1.69717,-1.90314 c -0.4689,-0.52842 -1.10991,-0.60774 -1.68604,-0.57094"
       id="path1061-2-9-57-1-67-2" /><a
       id="a3894-3-2-0-5-8"
       xlink:href="#Change?E-2?303"
       transform="matrix(0,0.95393404,-0.95393404,0,-38.073527,-173.13073)"><path
         id="path1907-4-7-7-7-9-1-9-4"
         style="display:inline;fill:#222222;fill-opacity:1;stroke:#ffffff;stroke-width:0.359049;stroke-linecap:round;stroke-linejoin:miter;stroke-miterlimit:4;stroke-dasharray:none;stroke-opacity:1;paint-order:markers fill stroke"
         d="m 211.16626,139.27577 h 0.94081 l -1e-5,0.94079 m -1.53305,0.60645 1.53306,-1.54724 m 2.68494,-0.22678 -0.014,1.10765 -1.07997,0.014 -0.0187,1.12589 h -1.1182 v 1.126 h -1.10836 l -0.002,1.117 -1.07997,0.014 m -0.57293,-5.56166 h 5.69832 c 0.40432,0 0.72985,0.32549 0.72985,0.72984 v 5.42302 c 0,0.40432 -0.32553,0.72985 -0.72985,0.72985 h -5.69832 c -0.40434,0 -0.72985,-0.32553 -0.72985,-0.72985 v -5.42302 c 0,-0.40435 0.32551,-0.72984 0.72985,-0.72984 z" /></a><a
       id="a3894-3-2-0-2"
       xlink:href="#Change?E-2?307"
       transform="matrix(0,0.8367983,-0.8367983,0,-87.180294,-335.3077)"><path
         id="path1907-4-7-7-7-9-1-7"
         style="display:inline;fill:#222222;fill-opacity:1;stroke:#ffffff;stroke-width:0.359049;stroke-linecap:round;stroke-linejoin:miter;stroke-miterlimit:4;stroke-dasharray:none;stroke-opacity:1;paint-order:markers fill stroke"
         d="m 211.16626,139.27577 h 0.94081 l -1e-5,0.94079 m -1.53305,0.60645 1.53306,-1.54724 m 2.68494,-0.22678 -0.014,1.10765 -1.07997,0.014 -0.0187,1.12589 h -1.1182 v 1.126 h -1.10836 l -0.002,1.117 -1.07997,0.014 m -0.57293,-5.56166 h 5.69832 c 0.40432,0 0.72985,0.32549 0.72985,0.72984 v 5.42302 c 0,0.40432 -0.32553,0.72985 -0.72985,0.72985 h -5.69832 c -0.40434,0 -0.72985,-0.32553 -0.72985,-0.72985 v -5.42302 c 0,-0.40435 0.32551,-0.72984 0.72985,-0.72984 z" /></a><path
       id="text3723-5"
       style="font-style:normal;font-variant:normal;font-weight:normal;font-stretch:normal;font-size:4.9389px;font-family:'Comic Sans MS';-inkscape-font-specification:'Comic Sans MS, Normal';font-variant-ligatures:normal;font-variant-caps:normal;font-variant-numeric:normal;font-variant-east-asian:normal;fill:#222222;fill-opacity:1;stroke:none;stroke-width:0.0131333;stroke-linecap:round;stroke-linejoin:round;stroke-dasharray:none"
       d="m -190.06989,-153.21912 a 2.3208996,3.7135281 0 0 0 -2.32087,3.71348 2.3208996,3.7135281 0 0 0 2.32087,3.71349 2.3208996,3.7135281 0 0 0 2.32099,-3.71349 2.3208996,3.7135281 0 0 0 -2.32099,-3.71348 z m 0.005,1.64051 c 0.17018,1.9e-4 0.29388,0.1225 0.29388,0.29031 0,0.0848 -0.0206,0.13806 -0.0774,0.20028 -0.0626,0.0686 -0.17908,0.10446 -0.27614,0.0852 -0.0605,-0.0119 -0.0972,-0.0325 -0.14815,-0.0829 -0.18301,-0.18097 -0.0513,-0.49338 0.20779,-0.49298 z m -0.0721,0.67075 c 0.0305,1e-5 0.0644,3.9e-4 0.10195,4.6e-4 l 0.25976,0.003 0.0699,0.034 c 0.0701,0.0341 0.1608,0.11844 0.19152,0.17776 0.008,0.0151 0.0767,0.23061 0.1532,0.47907 0.1471,0.47811 0.15242,0.50527 0.10877,0.55374 -0.0279,0.0311 -0.0847,0.0519 -0.1198,0.0443 -0.0669,-0.0145 -0.0806,-0.0458 -0.20906,-0.47565 l -0.12022,-0.40265 h -0.0348 c -0.0191,0 -0.0348,0.003 -0.0348,0.006 0,0.003 0.0589,0.2056 0.13073,0.44959 0.0719,0.24398 0.15941,0.54195 0.19457,0.66201 0.0352,0.12007 0.0666,0.22641 0.0697,0.23643 0.005,0.0168 -0.008,0.0182 -0.18405,0.0182 h -0.18995 v 0.54439 c 0,0.53666 -4.1e-4,0.54474 -0.0221,0.57201 -0.0471,0.0593 -0.1346,0.0711 -0.19267,0.0259 -0.0597,-0.0464 -0.0585,-0.0355 -0.0585,-0.61165 v -0.53069 h -0.0421 -0.042 l -1.2e-4,0.52757 c 0,0.48176 -0.002,0.53073 -0.0183,0.56329 -0.0367,0.0711 -0.1141,0.0992 -0.1804,0.0657 -0.0197,-0.01 -0.0457,-0.0314 -0.0578,-0.0473 -0.0215,-0.0287 -0.022,-0.0404 -0.0249,-0.56921 l -0.003,-0.53982 h -0.18428 c -0.17067,0 -0.18387,-0.002 -0.1787,-0.0182 0.0128,-0.0421 0.34738,-1.18981 0.36958,-1.2683 l 0.0243,-0.0858 h -0.0338 -0.0338 l -0.12043,0.40254 c -0.12929,0.43223 -0.14201,0.46089 -0.21084,0.47451 -0.0643,0.0127 -0.1323,-0.0351 -0.14301,-0.10031 -0.006,-0.0364 -0.002,-0.0502 0.23382,-0.81828 0.0536,-0.17445 0.0939,-0.24103 0.18387,-0.30329 0.0818,-0.0566 0.13411,-0.0701 0.34774,-0.0701 z m -0.65992,3.19827 c 0.0212,0 0.0376,0.0114 0.0489,0.0344 0.006,0.0116 0.0178,0.0451 0.0359,0.1003 0.0192,0.0585 0.0386,0.12893 0.0579,0.2113 l 0.0474,0.2141 c 0.035,-0.0801 0.0697,-0.1776 0.10436,-0.2926 0.0212,-0.0702 0.0374,-0.11875 0.0484,-0.14588 0.0294,-0.0714 0.058,-0.10706 0.0858,-0.10706 0.0229,0 0.0391,0.0114 0.0485,0.0344 0.0117,0.0278 0.0237,0.094 0.0359,0.19863 0.007,0.0529 0.0176,0.11665 0.0333,0.19094 l 0.042,0.19043 c 0.0437,-0.10402 0.0986,-0.24472 0.16422,-0.42207 0.003,-0.01 0.0117,-0.0402 0.0246,-0.0916 0.009,-0.0379 0.0211,-0.0672 0.0348,-0.0881 0.0117,-0.0178 0.0271,-0.0267 0.046,-0.0267 0.0331,0 0.0494,0.0162 0.0494,0.0485 0,0.005 -0.005,0.0216 -0.0156,0.0485 l -0.0197,0.0523 -0.0269,0.0862 -0.14553,0.34992 c -0.0135,0.0385 -0.0365,0.0943 -0.0692,0.16757 -0.0117,0.0217 -0.0294,0.0326 -0.0529,0.0326 -0.0149,0 -0.0283,-0.004 -0.0396,-0.0125 -0.0131,-0.01 -0.0196,-0.0216 -0.0196,-0.0359 -0.0151,-0.0392 -0.0246,-0.0709 -0.0285,-0.0954 -0.004,-0.0246 -0.0167,-0.0941 -0.0387,-0.2088 -0.0166,-0.0869 -0.0279,-0.15668 -0.0335,-0.20933 -0.0291,0.10661 -0.0603,0.19681 -0.0936,0.27079 -0.0386,0.0856 -0.0636,0.15267 -0.0749,0.20112 0.004,0.007 0.006,0.0146 0.006,0.0218 0,0.0145 -0.007,0.0265 -0.0196,0.0358 -0.0117,0.009 -0.0251,0.013 -0.0402,0.013 -0.044,0 -0.0662,-0.0194 -0.0662,-0.0585 l -0.0151,-0.0616 -0.0534,-0.23746 c -0.0211,-0.0801 -0.0574,-0.19495 -0.10879,-0.34451 -0.003,-0.007 -0.003,-0.0135 -0.003,-0.0193 0,-0.0301 0.0171,-0.0451 0.0514,-0.0451 z m 1.46262,0.002 c 0.0225,0 0.0368,0.0146 0.0426,0.0439 0.005,0.0262 0.008,0.0583 0.008,0.0965 0,0.0132 -0.003,0.0249 -0.0107,0.0349 -0.009,0.0126 -0.0215,0.0189 -0.0378,0.0189 -0.021,0 -0.0366,-0.0121 -0.0469,-0.0364 -0.009,-0.0206 -0.0175,-0.0333 -0.0255,-0.0378 -0.007,-0.003 -0.024,-0.005 -0.051,-0.005 -0.0473,0 -0.0999,0.0359 -0.1577,0.10756 -0.0784,0.0963 -0.11761,0.18746 -0.11761,0.2737 0,0.0416 0.0134,0.0775 0.0405,0.10757 0.0278,0.031 0.0612,0.0464 0.10048,0.0464 0.0337,0 0.0675,-0.008 0.10143,-0.0256 0.0189,-0.01 0.0479,-0.0287 0.0871,-0.0572 0.0185,-0.0135 0.0328,-0.0203 0.0422,-0.0203 0.014,0 0.0259,0.005 0.0353,0.0159 0.009,0.0104 0.0141,0.022 0.0141,0.0349 0,0.0145 -0.006,0.0273 -0.0186,0.0384 -0.0862,0.0756 -0.17345,0.11338 -0.26166,0.11338 -0.0677,0 -0.12484,-0.0257 -0.17155,-0.077 -0.045,-0.0497 -0.0677,-0.10857 -0.0677,-0.17641 0,-0.10951 0.0463,-0.22172 0.13922,-0.33672 0.0774,-0.096 0.15543,-0.14391 0.23415,-0.14391 0.0159,0 0.0305,4.8e-4 0.0431,0.003 0.0127,6.7e-4 0.024,0.003 0.0339,0.007 0.0114,-0.0164 0.0263,-0.0248 0.0446,-0.0248 z" /><path
       id="path3595"
       style="fill:#222222;fill-opacity:1;stroke-width:0.0161163"
       d="m -183.75156,-153.21912 a 2.4098525,3.8558511 0 0 0 -2.40983,3.85581 2.4098525,3.8558511 0 0 0 2.40983,3.85582 2.4098525,3.8558511 0 0 0 2.40992,-3.85582 2.4098525,3.8558511 0 0 0 -2.40992,-3.85581 z m -0.003,1.71504 c 0.10813,-0.001 0.21068,0.0502 0.26144,0.13939 0.0729,0.1281 0.063,0.24031 -0.0306,0.34672 -0.0972,0.11062 -0.23422,0.13608 -0.3674,0.0683 -0.14067,-0.0716 -0.19938,-0.24867 -0.128,-0.38585 0.0469,-0.0902 0.0805,-0.12233 0.15612,-0.14921 0.0355,-0.0126 0.0724,-0.0189 0.10838,-0.0193 z m -0.005,0.68168 c 0.22208,0 0.38507,0.007 0.42693,0.0171 0.0973,0.0249 0.19584,0.10305 0.2441,0.19385 0.0413,0.0775 0.0419,0.0862 0.0472,0.61214 0.005,0.57207 9.9e-4,0.6082 -0.0796,0.63435 -0.0546,0.0175 -0.1266,-0.0103 -0.15666,-0.0608 -0.0163,-0.0275 -0.0221,-0.15272 -0.0223,-0.47921 -2e-4,-0.43207 -0.001,-0.44203 -0.0352,-0.44203 -0.0348,0 -0.0349,0.01 -0.0349,1.21977 0,1.12104 -0.003,1.22329 -0.0298,1.26255 -0.0597,0.0858 -0.21133,0.0868 -0.27909,0.002 -0.0298,-0.0374 -0.0324,-0.0911 -0.0371,-0.7729 -0.005,-0.68269 -0.007,-0.73238 -0.035,-0.72781 -0.0277,0.005 -0.0307,0.0612 -0.0388,0.74021 -0.01,0.80274 -0.007,0.78587 -0.11141,0.81678 -0.0638,0.0188 -0.0611,0.019 -0.12658,-0.008 -0.03,-0.0125 -0.0634,-0.0396 -0.0742,-0.0598 -0.0143,-0.0266 -0.0197,-0.37917 -0.0197,-1.25458 0,-1.19667 -5.1e-4,-1.21772 -0.0341,-1.21772 -0.0329,0 -0.0342,0.0156 -0.0394,0.46025 -0.005,0.45022 -0.006,0.46088 -0.0434,0.49259 -0.0503,0.0427 -0.14277,0.0414 -0.18468,-0.003 -0.0281,-0.0295 -0.0308,-0.0792 -0.0308,-0.57236 0,-0.50316 0.003,-0.54553 0.0349,-0.61872 0.043,-0.0971 0.12076,-0.16917 0.22252,-0.20623 0.068,-0.0248 0.12257,-0.0284 0.43696,-0.0284 z m -0.74592,3.32398 c 0.0221,0 0.039,0.0118 0.0507,0.0357 0.006,0.0121 0.0185,0.0468 0.0372,0.10415 0.0199,0.0607 0.0402,0.13386 0.06,0.2194 l 0.0492,0.2223 c 0.0363,-0.0832 0.0724,-0.18441 0.10835,-0.30381 0.0221,-0.0728 0.0388,-0.12331 0.0503,-0.15147 0.0306,-0.0741 0.0603,-0.11115 0.0891,-0.11115 0.0238,0 0.0406,0.0118 0.0503,0.0357 0.0122,0.0288 0.0246,0.0976 0.0372,0.20624 0.007,0.055 0.0181,0.12112 0.0347,0.19827 l 0.0437,0.19771 c 0.0453,-0.10799 0.10232,-0.2541 0.1705,-0.43826 0.003,-0.0101 0.0122,-0.0418 0.0255,-0.0951 0.01,-0.0393 0.0218,-0.0697 0.0361,-0.0915 0.0122,-0.0185 0.0281,-0.0277 0.0479,-0.0277 0.0343,0 0.0513,0.0167 0.0513,0.0503 0,0.005 -0.005,0.0225 -0.0161,0.0503 l -0.0203,0.0543 -0.0279,0.0895 -0.15112,0.36331 c -0.0138,0.04 -0.0378,0.0978 -0.0717,0.174 -0.0122,0.0225 -0.0306,0.0338 -0.0549,0.0338 -0.0155,0 -0.0294,-0.004 -0.0412,-0.0129 -0.0136,-0.0102 -0.0202,-0.0226 -0.0202,-0.0374 -0.0155,-0.0405 -0.0255,-0.0736 -0.0296,-0.0991 -0.004,-0.0255 -0.0173,-0.0976 -0.0402,-0.21681 -0.0173,-0.0902 -0.0289,-0.16266 -0.0348,-0.21735 -0.0302,0.1107 -0.0626,0.20436 -0.0971,0.28117 -0.0401,0.0889 -0.066,0.15851 -0.0778,0.20884 0.004,0.008 0.006,0.0152 0.006,0.0227 0,0.0151 -0.007,0.0275 -0.0203,0.0373 -0.0122,0.009 -0.0261,0.0135 -0.0417,0.0135 -0.0457,0 -0.0688,-0.0203 -0.0688,-0.0607 l -0.0157,-0.064 -0.0554,-0.24657 c -0.0221,-0.0832 -0.0597,-0.2024 -0.11295,-0.3577 -0.003,-0.007 -0.003,-0.0139 -0.003,-0.0201 0,-0.0312 0.0177,-0.0468 0.0533,-0.0468 z m 1.51867,0.002 c 0.0235,0 0.0382,0.0152 0.0442,0.0457 0.005,0.0271 0.008,0.0606 0.008,0.10015 0,0.0136 -0.003,0.0259 -0.0111,0.0362 -0.009,0.0131 -0.0223,0.0196 -0.0393,0.0196 -0.0216,0 -0.0381,-0.0126 -0.0488,-0.0378 -0.01,-0.0214 -0.0181,-0.0346 -0.0264,-0.0394 -0.007,-0.003 -0.0248,-0.005 -0.0529,-0.005 -0.0492,0 -0.10372,0.0373 -0.16376,0.11169 -0.0814,0.0999 -0.12211,0.19462 -0.12211,0.28418 0,0.0433 0.0139,0.0805 0.0422,0.1117 0.0288,0.0322 0.0637,0.0483 0.10433,0.0483 0.0349,0 0.07,-0.009 0.10531,-0.0267 0.0196,-0.0101 0.0497,-0.0299 0.0905,-0.0593 0.0192,-0.014 0.0341,-0.0211 0.0438,-0.0211 0.0145,0 0.0268,0.005 0.0367,0.0165 0.01,0.0108 0.0146,0.0229 0.0146,0.0362 0,0.0151 -0.007,0.0284 -0.0193,0.0398 -0.0895,0.0785 -0.1801,0.11774 -0.27168,0.11774 -0.0702,0 -0.12963,-0.0267 -0.17814,-0.08 -0.0468,-0.0516 -0.0703,-0.11273 -0.0703,-0.18316 0,-0.11371 0.0482,-0.23023 0.14457,-0.34964 0.0804,-0.0995 0.16137,-0.14942 0.24311,-0.14942 0.0166,0 0.0316,10e-4 0.0447,0.003 0.0133,0.001 0.0249,0.003 0.0351,0.007 0.0119,-0.0171 0.0274,-0.0256 0.0463,-0.0256 z" /><path
       style="display:inline;fill:#222222;fill-opacity:1;stroke:none;stroke-width:0.00771053;stroke-opacity:1"
       d="m -207.54043,-151.58559 c 0.002,-2.40706 -0.007,-2.18707 0.0833,-2.2837 0.0855,-0.0927 -0.0692,-0.0853 1.78449,-0.0853 1.8704,0 1.6745,-0.008 1.76175,0.0707 0.10523,0.0946 0.0964,-0.1106 0.0987,2.29804 0.002,2.14586 0.002,2.14586 -1.86407,2.14586 -1.86606,0 -1.86606,0 -1.86407,-2.14547 z m 0.87527,1.57409 c -0.002,-0.44028 -0.002,-0.44028 -0.10223,-0.47921 -0.0552,-0.0215 -0.10289,-0.0427 -0.10611,-0.0473 -0.0219,-0.0316 -0.002,-0.71171 0.0232,-0.76331 0.13616,-0.28754 0.64568,-0.35012 0.89469,-0.10989 0.10501,0.10129 0.1111,0.14801 0.095,0.72909 -0.005,0.17282 -0.005,0.17282 -0.1108,0.20366 -0.10603,0.0308 -0.10603,0.0308 -0.10603,0.4691 0,0.43823 0,0.43823 0.3586,0.43823 0.3586,0 0.3586,0 0.35662,-0.44465 -0.002,-0.44468 -0.002,-0.44468 -0.0981,-0.48232 -0.0528,-0.0207 -0.10071,-0.0416 -0.10638,-0.0462 -0.0244,-0.0201 -0.009,-0.7122 0.0166,-0.76556 0.14211,-0.29299 0.65159,-0.3524 0.89912,-0.10486 0.10254,0.10252 0.0985,0.0754 0.0943,0.63849 -0.002,0.28629 0.0172,0.25047 -0.16383,0.3033 -0.0539,0.0157 -0.0539,0.0157 -0.0539,0.45878 0,0.44301 0,0.44301 0.27374,0.44301 0.27372,0 0.27372,0 0.27372,-1.56137 0,-1.5614 0,-1.5614 -1.45343,-1.5614 -1.45344,0 -1.45344,0 -1.45344,1.5614 0,1.56137 0,1.56137 0.23524,1.56137 0.23522,0 0.23522,0 0.23324,-0.44028 z m 0.26436,-1.61142 c -0.21455,-0.042 -0.28826,-0.30602 -0.12667,-0.45369 0.12577,-0.11496 0.32362,-0.0806 0.40397,0.0701 0.10267,0.1926 -0.0654,0.42504 -0.2773,0.38353 z m 1.26418,-0.0189 c -0.1073,-0.0336 -0.18372,-0.14964 -0.17546,-0.26636 0.0236,-0.33438 0.51858,-0.31897 0.51858,0.0161 0,0.18501 -0.16564,0.30583 -0.34312,0.25019 z m -0.71795,-1.43074 c 0.011,-0.0198 -0.33588,-0.45033 -0.37514,-0.46541 -0.0191,-0.007 -0.0319,0.007 -0.21727,0.2293 -0.18596,0.22399 -0.18551,0.22331 -0.16495,0.24604 0.0242,0.0266 0.74215,0.0171 0.75736,-0.01 z m 0.90561,-0.21767 c 0.23882,-0.28029 0.26305,-0.25187 -0.21463,-0.25187 -0.40325,0 -0.40625,3.1e-4 -0.38116,0.0472 0.0145,0.0269 0.336,0.41214 0.35944,0.43057 0.0266,0.0209 0.0242,0.0231 0.23635,-0.22594 z"
       id="path3485-6" /><text
       xml:space="preserve"
       style="font-style:normal;font-variant:normal;font-weight:normal;font-stretch:normal;font-size:3.32064px;font-family:'Comic Sans MS';-inkscape-font-specification:'Comic Sans MS, Normal';font-variant-ligatures:normal;font-variant-caps:normal;font-variant-numeric:normal;font-variant-east-asian:normal;fill:#000000;fill-opacity:1;stroke:none;stroke-width:0.0518936;stroke-linecap:round;stroke-linejoin:round;stroke-dasharray:none"
       x="-188.53748"
       y="-18.786396"
       id="text1489-6-9-3-6"><tspan
         style="font-style:normal;font-variant:normal;font-weight:normal;font-stretch:normal;font-size:3.32064px;font-family:'Comic Sans MS';-inkscape-font-specification:'Comic Sans MS, Normal';font-variant-ligatures:normal;font-variant-caps:normal;font-variant-numeric:normal;font-variant-east-asian:normal;fill:#000000;fill-opacity:1;stroke:none;stroke-width:0.0518936;stroke-dasharray:none"
         x="-188.53748"
         y="-18.786396"
         id="tspan2508-40-8">S311</tspan></text><text
       xml:space="preserve"
       style="font-style:normal;font-variant:normal;font-weight:normal;font-stretch:normal;font-size:3.32064px;font-family:'Comic Sans MS';-inkscape-font-specification:'Comic Sans MS, Normal';font-variant-ligatures:normal;font-variant-caps:normal;font-variant-numeric:normal;font-variant-east-asian:normal;fill:#000000;fill-opacity:1;stroke:none;stroke-width:0.0518936;stroke-linecap:round;stroke-linejoin:round;stroke-dasharray:none"
       x="-189.65945"
       y="-29.449343"
       id="text1489-6-9-3-6-1"><tspan
         style="font-style:normal;font-variant:normal;font-weight:normal;font-stretch:normal;font-size:3.32064px;font-family:'Comic Sans MS';-inkscape-font-specification:'Comic Sans MS, Normal';font-variant-ligatures:normal;font-variant-caps:normal;font-variant-numeric:normal;font-variant-east-asian:normal;fill:#000000;fill-opacity:1;stroke:none;stroke-width:0.0518936;stroke-dasharray:none"
         x="-189.65945"
         y="-29.449343"
         id="tspan2508-40-8-8">S310</tspan></text><text
       xml:space="preserve"
       style="font-style:normal;font-variant:normal;font-weight:normal;font-stretch:normal;font-size:3.32064px;font-family:'Comic Sans MS';-inkscape-font-specification:'Comic Sans MS, Normal';font-variant-ligatures:normal;font-variant-caps:normal;font-variant-numeric:normal;font-variant-east-asian:normal;fill:#000000;fill-opacity:1;stroke:none;stroke-width:0.0518936;stroke-linecap:round;stroke-linejoin:round;stroke-dasharray:none"
       x="-189.67897"
       y="-39.24881"
       id="text1489-6-9-3-6-2"><tspan
         style="font-style:normal;font-variant:normal;font-weight:normal;font-stretch:normal;font-size:3.32064px;font-family:'Comic Sans MS';-inkscape-font-specification:'Comic Sans MS, Normal';font-variant-ligatures:normal;font-variant-caps:normal;font-variant-numeric:normal;font-variant-east-asian:normal;fill:#000000;fill-opacity:1;stroke:none;stroke-width:0.0518936;stroke-dasharray:none"
         x="-189.67897"
         y="-39.24881"
         id="tspan2508-40-8-83">S309</tspan></text><text
       xml:space="preserve"
       style="font-style:normal;font-variant:normal;font-weight:normal;font-stretch:normal;font-size:3.32064px;font-family:'Comic Sans MS';-inkscape-font-specification:'Comic Sans MS, Normal';font-variant-ligatures:normal;font-variant-caps:normal;font-variant-numeric:normal;font-variant-east-asian:normal;fill:#000000;fill-opacity:1;stroke:none;stroke-width:0.0518936;stroke-linecap:round;stroke-linejoin:round;stroke-dasharray:none"
       x="-190.38948"
       y="-48.845608"
       id="text1489-6-9-3-6-2-6"><tspan
         style="font-style:normal;font-variant:normal;font-weight:normal;font-stretch:normal;font-size:3.32064px;font-family:'Comic Sans MS';-inkscape-font-specification:'Comic Sans MS, Normal';font-variant-ligatures:normal;font-variant-caps:normal;font-variant-numeric:normal;font-variant-east-asian:normal;fill:#000000;fill-opacity:1;stroke:none;stroke-width:0.0518936;stroke-dasharray:none"
         x="-190.38948"
         y="-48.845608"
         id="tspan2508-40-8-83-6">S308</tspan></text><text
       xml:space="preserve"
       style="font-style:normal;font-variant:normal;font-weight:normal;font-stretch:normal;font-size:3.32064px;font-family:'Comic Sans MS';-inkscape-font-specification:'Comic Sans MS, Normal';font-variant-ligatures:normal;font-variant-caps:normal;font-variant-numeric:normal;font-variant-east-asian:normal;fill:#000000;fill-opacity:1;stroke:none;stroke-width:0.0518936;stroke-linecap:round;stroke-linejoin:round;stroke-dasharray:none"
       x="-191.8372"
       y="-58.961994"
       id="text1489-6-9-3-6-2-2"><tspan
         style="font-style:normal;font-variant:normal;font-weight:normal;font-stretch:normal;font-size:3.32064px;font-family:'Comic Sans MS';-inkscape-font-specification:'Comic Sans MS, Normal';font-variant-ligatures:normal;font-variant-caps:normal;font-variant-numeric:normal;font-variant-east-asian:normal;fill:#000000;fill-opacity:1;stroke:none;stroke-width:0.0518936;stroke-dasharray:none"
         x="-191.8372"
         y="-58.961994"
         id="tspan2508-40-8-83-8">S307</tspan></text><text
       xml:space="preserve"
       style="font-style:normal;font-variant:normal;font-weight:normal;font-stretch:normal;font-size:3.32064px;font-family:'Comic Sans MS';-inkscape-font-specification:'Comic Sans MS, Normal';font-variant-ligatures:normal;font-variant-caps:normal;font-variant-numeric:normal;font-variant-east-asian:normal;fill:#000000;fill-opacity:1;stroke:none;stroke-width:0.0518936;stroke-linecap:round;stroke-linejoin:round;stroke-dasharray:none"
       x="-191.26645"
       y="-68.965523"
       id="text1489-6-9-3-6-2-0"><tspan
         style="font-style:normal;font-variant:normal;font-weight:normal;font-stretch:normal;font-size:3.32064px;font-family:'Comic Sans MS';-inkscape-font-specification:'Comic Sans MS, Normal';font-variant-ligatures:normal;font-variant-caps:normal;font-variant-numeric:normal;font-variant-east-asian:normal;fill:#000000;fill-opacity:1;stroke:none;stroke-width:0.0518936;stroke-dasharray:none"
         x="-191.26645"
         y="-68.965523"
         id="tspan2508-40-8-83-84">S306</tspan></text><text
       xml:space="preserve"
       style="font-style:normal;font-variant:normal;font-weight:normal;font-stretch:normal;font-size:3.32064px;font-family:'Comic Sans MS';-inkscape-font-specification:'Comic Sans MS, Normal';font-variant-ligatures:normal;font-variant-caps:normal;font-variant-numeric:normal;font-variant-east-asian:normal;fill:#000000;fill-opacity:1;stroke:none;stroke-width:0.0518936;stroke-linecap:round;stroke-linejoin:round;stroke-dasharray:none"
       x="-190.40651"
       y="-78.698196"
       id="text1489-6-9-3-6-2-8"><tspan
         style="font-style:normal;font-variant:normal;font-weight:normal;font-stretch:normal;font-size:3.32064px;font-family:'Comic Sans MS';-inkscape-font-specification:'Comic Sans MS, Normal';font-variant-ligatures:normal;font-variant-caps:normal;font-variant-numeric:normal;font-variant-east-asian:normal;fill:#000000;fill-opacity:1;stroke:none;stroke-width:0.0518936;stroke-dasharray:none"
         x="-190.40651"
         y="-78.698196"
         id="tspan2508-40-8-83-3">S305</tspan></text><text
       xml:space="preserve"
       style="font-style:normal;font-variant:normal;font-weight:normal;font-stretch:normal;font-size:3.32064px;font-family:'Comic Sans MS';-inkscape-font-specification:'Comic Sans MS, Normal';font-variant-ligatures:normal;font-variant-caps:normal;font-variant-numeric:normal;font-variant-east-asian:normal;fill:#000000;fill-opacity:1;stroke:none;stroke-width:0.0518936;stroke-linecap:round;stroke-linejoin:round;stroke-dasharray:none"
       x="-191.32513"
       y="-88.763618"
       id="text1489-6-9-3-6-2-3"><tspan
         style="font-style:normal;font-variant:normal;font-weight:normal;font-stretch:normal;font-size:3.32064px;font-family:'Comic Sans MS';-inkscape-font-specification:'Comic Sans MS, Normal';font-variant-ligatures:normal;font-variant-caps:normal;font-variant-numeric:normal;font-variant-east-asian:normal;fill:#000000;fill-opacity:1;stroke:none;stroke-width:0.0518936;stroke-dasharray:none"
         x="-191.32513"
         y="-88.763618"
         id="tspan2508-40-8-83-2">S304</tspan></text><text
       xml:space="preserve"
       style="font-style:normal;font-variant:normal;font-weight:normal;font-stretch:normal;font-size:3.32064px;font-family:'Comic Sans MS';-inkscape-font-specification:'Comic Sans MS, Normal';font-variant-ligatures:normal;font-variant-caps:normal;font-variant-numeric:normal;font-variant-east-asian:normal;fill:#000000;fill-opacity:1;stroke:none;stroke-width:0.0518936;stroke-linecap:round;stroke-linejoin:round;stroke-dasharray:none"
       x="-191.86407"
       y="-103.28729"
       id="text1489-6-9-3-6-2-7"><tspan
         style="font-style:normal;font-variant:normal;font-weight:normal;font-stretch:normal;font-size:3.32064px;font-family:'Comic Sans MS';-inkscape-font-specification:'Comic Sans MS, Normal';font-variant-ligatures:normal;font-variant-caps:normal;font-variant-numeric:normal;font-variant-east-asian:normal;fill:#000000;fill-opacity:1;stroke:none;stroke-width:0.0518936;stroke-dasharray:none"
         x="-191.86407"
         y="-103.28729"
         id="tspan2508-40-8-83-21">S303</tspan></text><text
       xml:space="preserve"
       style="font-style:normal;font-variant:normal;font-weight:normal;font-stretch:normal;font-size:3.32064px;font-family:'Comic Sans MS';-inkscape-font-specification:'Comic Sans MS, Normal';font-variant-ligatures:normal;font-variant-caps:normal;font-variant-numeric:normal;font-variant-east-asian:normal;fill:#000000;fill-opacity:1;stroke:none;stroke-width:0.0518936;stroke-linecap:round;stroke-linejoin:round;stroke-dasharray:none"
       x="-190.62161"
       y="-121.94093"
       id="text1489-6-9-3-6-2-26"><tspan
         style="font-style:normal;font-variant:normal;font-weight:normal;font-stretch:normal;font-size:3.32064px;font-family:'Comic Sans MS';-inkscape-font-specification:'Comic Sans MS, Normal';font-variant-ligatures:normal;font-variant-caps:normal;font-variant-numeric:normal;font-variant-east-asian:normal;fill:#000000;fill-opacity:1;stroke:none;stroke-width:0.0518936;stroke-dasharray:none"
         x="-190.62161"
         y="-121.94093"
         id="tspan2508-40-8-83-1">S302</tspan></text><text
       xml:space="preserve"
       style="font-style:normal;font-variant:normal;font-weight:normal;font-stretch:normal;font-size:3.32064px;font-family:'Comic Sans MS';-inkscape-font-specification:'Comic Sans MS, Normal';font-variant-ligatures:normal;font-variant-caps:normal;font-variant-numeric:normal;font-variant-east-asian:normal;fill:#000000;fill-opacity:1;stroke:none;stroke-width:0.0518936;stroke-linecap:round;stroke-linejoin:round;stroke-dasharray:none"
       x="-157.88809"
       y="-156.41873"
       id="text1489-6-9-3-6-2-4"><tspan
         style="font-style:normal;font-variant:normal;font-weight:normal;font-stretch:normal;font-size:3.32064px;font-family:'Comic Sans MS';-inkscape-font-specification:'Comic Sans MS, Normal';font-variant-ligatures:normal;font-variant-caps:normal;font-variant-numeric:normal;font-variant-east-asian:normal;fill:#000000;fill-opacity:1;stroke:none;stroke-width:0.0518936;stroke-dasharray:none"
         x="-157.88809"
         y="-156.41873"
         id="tspan2508-40-8-83-5">S301</tspan></text><path
       style="fill:none;stroke:#0066ff;stroke-width:0.765;stroke-linecap:round;stroke-linejoin:round;stroke-opacity:1"
       d="m 142.61285,49.885535 2.24793,-2.53214 c 0.81111,0.66797 0.824,1.62213 0.80093,2.48045 l 0.0259,-0.0259"
       id="path2032-4" /><path
       style="fill:none;stroke:#0066ff;stroke-width:0.765;stroke-linecap:round;stroke-linejoin:round;stroke-opacity:1"
       d="m 152.10005,63.118276 -2.24792,2.532139 c -0.81111,-0.66797 -0.824,-1.622129 -0.80093,-2.480449 l -0.0259,0.0259"
       id="path2032-4-2" /><a
       id="a3894-3-2-7-2"
       xlink:href="#Change?E-2?326"
       transform="matrix(1.0498491,0,0,-1.0498491,-171.88028,188.50467)"><path
         id="path1907-4-7-7-7-9-3-7"
         style="display:inline;fill:#222222;fill-opacity:1;stroke:#ffffff;stroke-width:0.359049;stroke-linecap:round;stroke-linejoin:miter;stroke-miterlimit:4;stroke-dasharray:none;stroke-opacity:1;paint-order:markers fill stroke"
         d="m 211.16626,139.27577 h 0.94081 l -1e-5,0.94079 m -1.53305,0.60645 1.53306,-1.54724 m 2.68494,-0.22678 -0.014,1.10765 -1.07997,0.014 -0.0187,1.12589 h -1.1182 v 1.126 h -1.10836 l -0.002,1.117 -1.07997,0.014 m -0.57293,-5.56166 h 5.69832 c 0.40432,0 0.72985,0.32549 0.72985,0.72984 v 5.42302 c 0,0.40432 -0.32553,0.72985 -0.72985,0.72985 h -5.69832 c -0.40434,0 -0.72985,-0.32553 -0.72985,-0.72985 v -5.42302 c 0,-0.40435 0.32551,-0.72984 0.72985,-0.72984 z" /></a><a
       id="a3894-3-2-7-0"
       xlink:href="#Change?E-2?335"
       transform="matrix(1.0588341,0,0,-1.0588341,-89.755779,190.41856)"><path
         id="path1907-4-7-7-7-9-3-4"
         style="display:inline;fill:#222222;fill-opacity:1;stroke:#ffffff;stroke-width:0.359049;stroke-linecap:round;stroke-linejoin:miter;stroke-miterlimit:4;stroke-dasharray:none;stroke-opacity:1;paint-order:markers fill stroke"
         d="m 211.16626,139.27577 h 0.94081 l -1e-5,0.94079 m -1.53305,0.60645 1.53306,-1.54724 m 2.68494,-0.22678 -0.014,1.10765 -1.07997,0.014 -0.0187,1.12589 h -1.1182 v 1.126 h -1.10836 l -0.002,1.117 -1.07997,0.014 m -0.57293,-5.56166 h 5.69832 c 0.40432,0 0.72985,0.32549 0.72985,0.72984 v 5.42302 c 0,0.40432 -0.32553,0.72985 -0.72985,0.72985 h -5.69832 c -0.40434,0 -0.72985,-0.32553 -0.72985,-0.72985 v -5.42302 c 0,-0.40435 0.32551,-0.72984 0.72985,-0.72984 z" /></a><text
       xml:space="preserve"
       style="font-style:normal;font-variant:normal;font-weight:normal;font-stretch:normal;font-size:4.93889px;font-family:'Comic Sans MS';-inkscape-font-specification:'Comic Sans MS, Normal';font-variant-ligatures:normal;font-variant-caps:normal;font-variant-numeric:normal;font-variant-east-asian:normal;fill:#000000;fill-opacity:1;stroke:none;stroke-width:0.0771828;stroke-linecap:round;stroke-linejoin:round;stroke-dasharray:none"
       x="27.957355"
       y="44.242542"
       id="text1489-6"><tspan
         id="tspan1487-7"
         style="font-style:normal;font-variant:normal;font-weight:normal;font-stretch:normal;font-size:4.93889px;font-family:'Comic Sans MS';-inkscape-font-specification:'Comic Sans MS, Normal';font-variant-ligatures:normal;font-variant-caps:normal;font-variant-numeric:normal;font-variant-east-asian:normal;fill:#000000;fill-opacity:1;stroke:none;stroke-width:0.0771828;stroke-dasharray:none"
         x="27.957355"
         y="44.242542">C301</tspan></text><text
       xml:space="preserve"
       style="font-style:normal;font-variant:normal;font-weight:normal;font-stretch:normal;font-size:4.93889px;font-family:'Comic Sans MS';-inkscape-font-specification:'Comic Sans MS, Normal';font-variant-ligatures:normal;font-variant-caps:normal;font-variant-numeric:normal;font-variant-east-asian:normal;fill:#000000;fill-opacity:1;stroke:none;stroke-width:0.0771828;stroke-linecap:round;stroke-linejoin:round;stroke-dasharray:none"
       x="65.226799"
       y="42.272877"
       id="text1489-6-0"><tspan
         id="tspan1487-7-3"
         style="font-style:normal;font-variant:normal;font-weight:normal;font-stretch:normal;font-size:4.93889px;font-family:'Comic Sans MS';-inkscape-font-specification:'Comic Sans MS, Normal';font-variant-ligatures:normal;font-variant-caps:normal;font-variant-numeric:normal;font-variant-east-asian:normal;fill:#000000;fill-opacity:1;stroke:none;stroke-width:0.0771828;stroke-dasharray:none"
         x="65.226799"
         y="42.272877">C302</tspan></text><text
       xml:space="preserve"
       style="font-style:normal;font-variant:normal;font-weight:normal;font-stretch:normal;font-size:4.93889px;font-family:'Comic Sans MS';-inkscape-font-specification:'Comic Sans MS, Normal';font-variant-ligatures:normal;font-variant-caps:normal;font-variant-numeric:normal;font-variant-east-asian:normal;fill:#000000;fill-opacity:1;stroke:none;stroke-width:0.0771828;stroke-linecap:round;stroke-linejoin:round;stroke-dasharray:none"
       x="87.930733"
       y="41.92992"
       id="text1489-6-07"><tspan
         id="tspan1487-7-2"
         style="font-style:normal;font-variant:normal;font-weight:normal;font-stretch:normal;font-size:4.93889px;font-family:'Comic Sans MS';-inkscape-font-specification:'Comic Sans MS, Normal';font-variant-ligatures:normal;font-variant-caps:normal;font-variant-numeric:normal;font-variant-east-asian:normal;fill:#000000;fill-opacity:1;stroke:none;stroke-width:0.0771828;stroke-dasharray:none"
         x="87.930733"
         y="41.92992">C303</tspan></text><text
       xml:space="preserve"
       style="font-style:normal;font-variant:normal;font-weight:normal;font-stretch:normal;font-size:4.93889px;font-family:'Comic Sans MS';-inkscape-font-specification:'Comic Sans MS, Normal';font-variant-ligatures:normal;font-variant-caps:normal;font-variant-numeric:normal;font-variant-east-asian:normal;fill:#000000;fill-opacity:1;stroke:none;stroke-width:0.0771828;stroke-linecap:round;stroke-linejoin:round;stroke-dasharray:none"
       x="113.17265"
       y="41.482197"
       id="text1489-6-6"><tspan
         id="tspan1487-7-23"
         style="font-style:normal;font-variant:normal;font-weight:normal;font-stretch:normal;font-size:4.93889px;font-family:'Comic Sans MS';-inkscape-font-specification:'Comic Sans MS, Normal';font-variant-ligatures:normal;font-variant-caps:normal;font-variant-numeric:normal;font-variant-east-asian:normal;fill:#000000;fill-opacity:1;stroke:none;stroke-width:0.0771828;stroke-dasharray:none"
         x="113.17265"
         y="41.482197">C304</tspan></text><text
       xml:space="preserve"
       style="font-style:normal;font-variant:normal;font-weight:normal;font-stretch:normal;font-size:4.93889px;font-family:'Comic Sans MS';-inkscape-font-specification:'Comic Sans MS, Normal';font-variant-ligatures:normal;font-variant-caps:normal;font-variant-numeric:normal;font-variant-east-asian:normal;fill:#000000;fill-opacity:1;stroke:none;stroke-width:0.0771828;stroke-linecap:round;stroke-linejoin:round;stroke-dasharray:none"
       x="149.09805"
       y="43.313007"
       id="text1489-6-3"><tspan
         id="tspan1487-7-4"
         style="font-style:normal;font-variant:normal;font-weight:normal;font-stretch:normal;font-size:4.93889px;font-family:'Comic Sans MS';-inkscape-font-specification:'Comic Sans MS, Normal';font-variant-ligatures:normal;font-variant-caps:normal;font-variant-numeric:normal;font-variant-east-asian:normal;fill:#000000;fill-opacity:1;stroke:none;stroke-width:0.0771828;stroke-dasharray:none"
         x="149.09805"
         y="43.313007">C305</tspan></text><text
       xml:space="preserve"
       style="font-style:normal;font-variant:normal;font-weight:normal;font-stretch:normal;font-size:4.93889px;font-family:'Comic Sans MS';-inkscape-font-specification:'Comic Sans MS, Normal';font-variant-ligatures:normal;font-variant-caps:normal;font-variant-numeric:normal;font-variant-east-asian:normal;fill:#000000;fill-opacity:1;stroke:none;stroke-width:0.0771828;stroke-linecap:round;stroke-linejoin:round;stroke-dasharray:none"
       x="141.73293"
       y="80.88163"
       id="text1489-6-8"><tspan
         id="tspan1487-7-6"
         style="font-style:normal;font-variant:normal;font-weight:normal;font-stretch:normal;font-size:4.93889px;font-family:'Comic Sans MS';-inkscape-font-specification:'Comic Sans MS, Normal';font-variant-ligatures:normal;font-variant-caps:normal;font-variant-numeric:normal;font-variant-east-asian:normal;fill:#000000;fill-opacity:1;stroke:none;stroke-width:0.0771828;stroke-dasharray:none"
         x="141.73293"
         y="80.88163">C306</tspan></text><path
       style="fill:none;stroke:#0066ff;stroke-width:0.765;stroke-linecap:round;stroke-linejoin:round;stroke-opacity:1"
       d="m 80.304743,49.664405 -2.247929,-2.53214 c -0.81111,0.66797 -0.824,1.62213 -0.80093,2.48045 l -0.0259,-0.0259"
       id="path1061-2-0-4-6-4-0-2" /><path
       style="fill:none;stroke:#0066ff;stroke-width:0.765;stroke-linecap:round;stroke-linejoin:round;stroke-opacity:1"
       d="m 104.0132,49.664045 -2.24793,-2.53214 c -0.81111,0.66797 -0.824,1.62214 -0.80093,2.48045 l -0.0259,-0.0259"
       id="path1061-2-0-4-6-4-0-4-0" /><path
       style="fill:none;stroke:#0066ff;stroke-width:0.765;stroke-linecap:round;stroke-linejoin:round;stroke-opacity:1"
       d="m 128.38584,49.644055 -2.24793,-2.53214 c -0.81111,0.66797 -0.824,1.62214 -0.80093,2.48045 l -0.0259,-0.0259"
       id="path1061-2-0-4-6-4-0-4-1-9" /><path
       style="fill:none;stroke:#0066ff;stroke-width:0.765;stroke-linecap:round;stroke-linejoin:round;stroke-opacity:1"
       d="m 44.85056,49.664405 -2.247929,-2.53214 c -0.81111,0.66797 -0.824,1.62213 -0.80093,2.48045 l -0.0259,-0.0259"
       id="path2032" /><a
       id="a3894-3-7-6"
       xlink:href="#E-2"
       transform="matrix(1.1258086,0,0,-1.1258086,273.58381,215.98083)"><path
         id="path1907-4-7-7-7-2-0"
         style="display:inline;fill:#222222;fill-opacity:1;stroke:#ffffff;stroke-width:0.359049;stroke-linecap:round;stroke-linejoin:miter;stroke-miterlimit:4;stroke-dasharray:none;stroke-opacity:1;paint-order:markers fill stroke"
         d="m 211.16626,139.27577 h 0.94081 l -1e-5,0.94079 m -1.53305,0.60645 1.53306,-1.54724 m 2.68494,-0.22678 -0.014,1.10765 -1.07997,0.014 -0.0187,1.12589 h -1.1182 v 1.126 h -1.10836 l -0.002,1.117 -1.07997,0.014 m -0.57293,-5.56166 h 5.69832 c 0.40432,0 0.72985,0.32549 0.72985,0.72984 v 5.42302 c 0,0.40432 -0.32553,0.72985 -0.72985,0.72985 h -5.69832 c -0.40434,0 -0.72985,-0.32553 -0.72985,-0.72985 v -5.42302 c 0,-0.40435 0.32551,-0.72984 0.72985,-0.72984 z" /></a><a
       id="a3894-3-7-6-7-0"
       xlink:href="#D-2"
       transform="matrix(1.1258086,0,0,-1.1258086,133.856,212.37744)"><a
         id="a837"
         xlink:href="#E-2"><path
           id="path1907-4-7-7-7-2-0-8"
           style="display:inline;fill:#222222;fill-opacity:1;stroke:#ffffff;stroke-width:0.359049;stroke-linecap:round;stroke-linejoin:miter;stroke-miterlimit:4;stroke-dasharray:none;stroke-opacity:1;paint-order:markers fill stroke"
           d="m 211.16626,139.27577 h 0.94081 l -1e-5,0.94079 m -1.53305,0.60645 1.53306,-1.54724 m 2.68494,-0.22678 -0.014,1.10765 -1.07997,0.014 -0.0187,1.12589 h -1.1182 v 1.126 h -1.10836 l -0.002,1.117 -1.07997,0.014 m -0.57293,-5.56166 h 5.69832 c 0.40432,0 0.72985,0.32549 0.72985,0.72984 v 5.42302 c 0,0.40432 -0.32553,0.72985 -0.72985,0.72985 h -5.69832 c -0.40434,0 -0.72985,-0.32553 -0.72985,-0.72985 v -5.42302 c 0,-0.40435 0.32551,-0.72984 0.72985,-0.72984 z" /></a></a><path
       id="path1532-1"
       style="fill:none;stroke:#000000;stroke-width:0.643019;stroke-linecap:round;stroke-linejoin:round;stroke-dasharray:none;stroke-opacity:1;paint-order:stroke fill markers"
       d="m 292.65844,34.139207 h 63.45903 V -173.26813 h 30.15106 v 2.20112 h 231.58823 v 30.75264 H 588.299 v -2.32688 H 386.17415 V 35.051666 h 133.52304 l 0.1156,28.640606 C 434.84303,63.268574 377.62945,62.677246 292.65844,62.679817 Z M 129.87292,102.50261 h 35.88987 M 146.84454,54.865935 h 18.91825 m -24.28269,-4.81934 h 5.36444 v 4.81934 m -5.36444,-4.81934 V 29.744064 M 8.0797585,252.16372 2.5516548,257.69186 v 21.88529 H -22.142138 v -51.81428 h 4.49799 V 163.69962 H -79.598616 V 29.744054 M 179.0621,252.16372 l 5.14948,5.14951 v 22.26392 h 25.07244 v -51.81428 h -4.49799 v -64.06325 h 61.95446 c -3e-5,-43.92132 3e-5,-92.226856 10e-6,-133.955566 h -34.09201 v 99.863556 h -66.8857 V 29.744054 H 21.37911 c -2.07e-4,33.287771 -1.95e-4,66.575527 -2.52e-4,99.863346 h -66.885223 c -8e-5,-33.287819 -1.52e-4,-66.575575 -2.5e-4,-99.863346 H -79.598616 M 121.94805,163.6996 H 65.193841 M 105.40184,50.046605 V 29.744064 M 81.739493,50.046605 V 29.744064 M 129.87292,50.046605 V 29.744064 m 35.88987,32.977781 h -35.88987 m -72.604097,-1e-5 72.604097,2.7e-4 V 142.28311 H 57.268821 Z m -35.889857,2.7e-4 H 57.268821 M 179.0621,252.16374 h -20.5979 v -24.40087 h 18.9319 v -64.06325 h -55.44805 c 0,0 9.72275,3.05895 9.72275,12.97887 0,9.91996 -9.72275,13.08569 -9.72275,13.08569 v 10.75332 c 0,0 9.71347,3.50229 9.71347,13.93911 0,10.43682 -9.71347,12.71702 -9.71347,12.71702 v 13.54774 h -11.13794 v 22.91835 H 76.331734 V 240.72137 H 65.193842 v -13.54774 c 0,0 -9.722767,-3.51277 -9.722767,-13.33311 0,-9.82036 9.722767,-13.32302 9.722767,-13.32302 v -10.75332 c 0,0 -9.742676,-2.95281 -9.722767,-13.08569 0.01992,-10.13284 9.722767,-12.97887 9.722767,-12.97887 H 9.7457682 v 64.06325 H 28.677678 v 24.40087 H 8.0797585 M 57.268821,29.744064 V 50.046605 H 129.87292 M 45.66159,29.744064 v 20.302541 h -4.709414 v 4.81932 H 21.378991 M -137.10367,-142.78757 v -29.7489 m -57.20668,29.18606 h 14.60166 m -14.57996,10.94204 h 14.57996 m -14.54337,18.4381 h 16.50018 m -16.46169,19.39026 h 16.32828 m -16.30957,9.428911 h 14.45071 m -14.43081,10.038143 h 16.56921 m -16.54984,9.75149 h 14.7888 m -14.76842,10.273007 h 14.76842 m -14.74863,9.976485 h 16.85449 m -16.8158,19.496847 h 14.96152 m -14.98186,-10.251694 h 16.83614 m -16.79583,20.315083 h 16.79583 M -194.02,2.9698183 h 14.75605 m -7.14697,-175.5062883 v 11.63542 h -9.32467 m 26.78934,0.39091 h -11.67842 v -12.02633 m 11.67842,29.7489 v -29.7489 m -12.50599,206.638555 v -5.582336 h 4.19131 v -9.872968 h -2.00302 v -29.293846 h 2.00302 V -21.74787 h -1.85428 v -8.080758 l 1.85428,0.04451 v -21.178019 h -2.10586 v -20.25191 h 1.76104 v -9.874373 h -2.1384 v -8.050449 h 1.85886 V -100.2291 h -1.8234 v -8.09406 h 1.95681 v -11.16268 h -1.95681 V -148.448 h 1.85137 v -7.61021 h -16.47826 m -1.40001,-4.77996 v -11.6983 h 94.07678 v 29.7489 h -67.28744 V 34.102085 h 66.7093 v 28.750698 l -124.25256,0.266835 0.026,-29.174182 h 25.85259 V -143.10204 h -16.27706 v -17.73613 0 h 21.15239 m 26.78934,194.940255 h -25.01196 l -0.37737,-190.160295" /><path
       style="display:inline;fill:#222222;fill-opacity:1;stroke:none;stroke-width:0.00788428;stroke-opacity:1"
       d="m 371.39989,-161.73315 c 0.002,-2.46128 -0.007,-2.23634 0.0851,-2.33514 0.0875,-0.0949 -0.0707,-0.0873 1.82471,-0.0873 1.91251,0 1.7122,-0.009 1.80142,0.0722 0.1076,0.0967 0.0986,-0.11309 0.10086,2.34982 0.002,2.1942 0.002,2.1942 -1.90606,2.1942 -1.90808,0 -1.90808,0 -1.90606,-2.19381 z m 0.89499,1.60956 c -0.002,-0.45022 -0.002,-0.45022 -0.10452,-0.49001 -0.0564,-0.0219 -0.1052,-0.0437 -0.1085,-0.0484 -0.0223,-0.0324 -0.002,-0.72774 0.0238,-0.7805 0.13923,-0.29402 0.66022,-0.358 0.91485,-0.11237 0.10736,0.10357 0.11359,0.15134 0.0972,0.74552 -0.005,0.17671 -0.005,0.17671 -0.11331,0.20825 -0.10841,0.0316 -0.10841,0.0316 -0.10841,0.47966 0,0.44812 0,0.44812 0.36669,0.44812 0.36667,0 0.36667,0 0.36464,-0.45468 -0.002,-0.45469 -0.002,-0.45469 -0.10027,-0.49319 -0.054,-0.0212 -0.10298,-0.0425 -0.10877,-0.0473 -0.0249,-0.0207 -0.009,-0.72824 0.0171,-0.78281 0.14531,-0.29958 0.66626,-0.36033 0.91937,-0.10721 0.10485,0.10483 0.10077,0.0772 0.0964,0.65286 -0.002,0.29275 0.0177,0.25612 -0.16753,0.31013 -0.0552,0.0161 -0.0552,0.0161 -0.0552,0.46912 0,0.45299 0,0.45299 0.27991,0.45299 0.27989,0 0.27989,0 0.27989,-1.59654 0,-1.59656 0,-1.59656 -1.48618,-1.59656 -1.48619,0 -1.48619,0 -1.48619,1.59656 0,1.59654 0,1.59654 0.24054,1.59654 0.24053,0 0.24053,0 0.23849,-0.4502 z m 0.27032,-1.64773 c -0.21939,-0.043 -0.29474,-0.31291 -0.12951,-0.46392 0.12859,-0.11752 0.3309,-0.0824 0.41306,0.0718 0.10497,0.19694 -0.0669,0.43462 -0.28355,0.39217 z m 1.29266,-0.0194 c -0.10973,-0.0343 -0.18784,-0.15302 -0.1794,-0.27237 0.0242,-0.34191 0.53025,-0.32615 0.53025,0.0165 0,0.18919 -0.16938,0.31272 -0.35085,0.25583 z m -0.73413,-1.46297 c 0.0113,-0.0203 -0.34346,-0.46048 -0.38359,-0.47588 -0.0196,-0.008 -0.0326,0.007 -0.22215,0.23446 -0.19015,0.22903 -0.18968,0.22833 -0.16867,0.25156 0.0246,0.0272 0.75886,0.0176 0.77441,-0.0102 z m 0.92601,-0.22257 c 0.2442,-0.28662 0.269,-0.25753 -0.21947,-0.25753 -0.41233,0 -0.41539,3e-4 -0.38974,0.0483 0.0148,0.0274 0.34357,0.42142 0.36753,0.44027 0.0271,0.0213 0.0247,0.0236 0.24168,-0.23103 z"
       id="path3485-3-3" /><a
       id="a3894-3-7-1"
       xlink:href="#E-2"
       transform="matrix(1.0911819,0,0,-1.0911819,132.80443,-1.1282223)"><path
         id="path1907-4-7-7-7-2-02"
         style="display:inline;fill:#222222;fill-opacity:1;stroke:#ffffff;stroke-width:0.359049;stroke-linecap:round;stroke-linejoin:miter;stroke-miterlimit:4;stroke-dasharray:none;stroke-opacity:1;paint-order:markers fill stroke"
         d="m 211.16626,139.27577 h 0.94081 l -1e-5,0.94079 m -1.53305,0.60645 1.53306,-1.54724 m 2.68494,-0.22678 -0.014,1.10765 -1.07997,0.014 -0.0187,1.12589 h -1.1182 v 1.126 h -1.10836 l -0.002,1.117 -1.07997,0.014 m -0.57293,-5.56166 h 5.69832 c 0.40432,0 0.72985,0.32549 0.72985,0.72984 v 5.42302 c 0,0.40432 -0.32553,0.72985 -0.72985,0.72985 h -5.69832 c -0.40434,0 -0.72985,-0.32553 -0.72985,-0.72985 v -5.42302 c 0,-0.40435 0.32551,-0.72984 0.72985,-0.72984 z" /></a><a
       id="a3894-3-7-1-0"
       xlink:href="#E-2"
       transform="matrix(1.0911819,0,0,-1.0911819,374.43003,-9.923271)"><path
         id="path1907-4-7-7-7-2-02-4"
         style="display:inline;fill:#222222;fill-opacity:1;stroke:#ffffff;stroke-width:0.359049;stroke-linecap:round;stroke-linejoin:miter;stroke-miterlimit:4;stroke-dasharray:none;stroke-opacity:1;paint-order:markers fill stroke"
         d="m 211.16626,139.27577 h 0.94081 l -1e-5,0.94079 m -1.53305,0.60645 1.53306,-1.54724 m 2.68494,-0.22678 -0.014,1.10765 -1.07997,0.014 -0.0187,1.12589 h -1.1182 v 1.126 h -1.10836 l -0.002,1.117 -1.07997,0.014 m -0.57293,-5.56166 h 5.69832 c 0.40432,0 0.72985,0.32549 0.72985,0.72984 v 5.42302 c 0,0.40432 -0.32553,0.72985 -0.72985,0.72985 h -5.69832 c -0.40434,0 -0.72985,-0.32553 -0.72985,-0.72985 v -5.42302 c 0,-0.40435 0.32551,-0.72984 0.72985,-0.72984 z" /></a><path
       id="path771"
       style="fill:none;stroke:#000000;stroke-width:0.643019;stroke-linecap:round;stroke-linejoin:round;paint-order:stroke fill markers"
       d="M 378.20634,62.881459 V 43.818667 l -10.50107,0.05676 m 0.32151,4.962137 V 62.836903 M 356.11747,-141.33659 h 12.82476 m 17.23192,0.20786 H 374.024 m 12.56603,-12.39841 v 10.88589 m -0.3215,-28.42576 v 12.48721" /></g></svg>
