<?xml version="1.0" encoding="UTF-8" standalone="no"?>
<!-- Created with Inkscape (http://www.inkscape.org/) -->

<svg
   width="968.1803mm"
   height="988.42285mm"
   viewBox="0 0 968.1803 988.42285"
   version="1.1"
   id="svg5"
   xml:space="preserve"
   sodipodi:docname="General_construction.svg"
   inkscape:version="1.2.1 (9c6d41e410, 2022-07-14)"
   xmlns:inkscape="http://www.inkscape.org/namespaces/inkscape"
   xmlns:sodipodi="http://sodipodi.sourceforge.net/DTD/sodipodi-0.dtd"
   xmlns:xlink="http://www.w3.org/1999/xlink"
   xmlns="http://www.w3.org/2000/svg"
   xmlns:svg="http://www.w3.org/2000/svg"><sodipodi:namedview
     id="namedview7"
     pagecolor="#ffffff"
     bordercolor="#000000"
     borderopacity="0.25"
     inkscape:showpageshadow="2"
     inkscape:pageopacity="0.0"
     inkscape:pagecheckerboard="0"
     inkscape:deskcolor="#d1d1d1"
     inkscape:document-units="mm"
     showgrid="false"
     inkscape:zoom="0.092188484"
     inkscape:cx="2250.8234"
     inkscape:cy="1366.7651"
     inkscape:window-width="1280"
     inkscape:window-height="961"
     inkscape:window-x="-8"
     inkscape:window-y="-8"
     inkscape:window-maximized="1"
     inkscape:current-layer="layer1" /><defs
     id="defs2" /><g
     inkscape:label="Calque 1"
     inkscape:groupmode="layer"
     id="layer1"
     transform="translate(280.96067,361.55169)"><path
       id="path17704"
       style="display:inline;fill:none;fill-opacity:1;stroke:#000000;stroke-width:5;stroke-linecap:round;stroke-linejoin:round;stroke-dasharray:10, 10;stroke-dashoffset:0;stroke-opacity:1;paint-order:stroke fill markers"
       d="m -129.80947,607.54338 v -342.9 l -147.37905,-39.49009 m 961.9082,-520.17544 v 752.2822 m -47.6253,-816.31177 h -897.5862 m 2.646,63.06203 h 897.5862 v 752.2822 l -720.573862,166.97942 -23.947288,-6.73519 2.8128,-383.18656 -121.09255,-30.9498 -45.287,-12.13462"
       inkscape:label="routes"
       inkscape:export-filename="..\tuiles\General.svg"
       inkscape:export-xdpi="96"
       inkscape:export-ydpi="96" /><path
       style="display:inline;fill:#dcd7d6;fill-opacity:1;stroke:none;stroke-width:7.908;stroke-linecap:round;stroke-linejoin:round;stroke-dasharray:none;stroke-opacity:1;paint-order:stroke fill markers"
       d="m -215.94232,-207.38164 522.6713,6e-5 v -87.64057 l 55.445,-6e-5 v 87.1786 h 277.0155 v 325.00187 h -131.2526 v 153.32887 l -125.1892,6e-5 v 77.46147 h -88.7467 -88.7466 V 507.5038 l -46.7628,30.3287 -0.2433,30.39111 -126.833915,29.39136 0.5292,-61.3163 -46.024049,-46.02444 v -227.1844 h -61.0309 l -28.504886,-28.50478 -122.09025,-32.71384 v -409.19122 z"
       id="path2236"
       sodipodi:nodetypes="ccccccccccccccccccccccccc"
       inkscape:label="fond" /><a
       id="a1473-8-3-4-6-4-5-44"
       xlink:href="#Change?E-0?488"
       transform="matrix(-0.56385231,-0.56385231,0.56385231,-0.56385231,-158.25753,116.27104)"><path
         id="path892-5-0-48-1-5-48-2"
         style="fill:#222222;fill-opacity:1;stroke:#ffffff;stroke-width:1.30232;stroke-linecap:round;stroke-linejoin:round;stroke-opacity:1"
         d="m 189.17758,250.27986 a 7.4721678,7.4721678 0 0 1 7.47216,7.47217 7.4721678,7.4721678 0 0 1 -7.47216,7.47216 7.4721678,7.4721678 0 0 1 -7.47217,-7.47216 7.4721678,7.4721678 0 0 1 7.47217,-7.47217 z m 3.34428,10.81643 0.11457,-6.26798 m -6.80309,-0.42054 6.68852,6.68852 h -6.15341" /></a><a
       id="a1473-8-3-4-6-4-5-4"
       xlink:href="#Change?E-0?484"
       transform="matrix(0.79740758,0,0,0.79740758,-308.94156,-181.77316)"><path
         id="path892-5-0-48-1-5-48-7"
         style="fill:#222222;fill-opacity:1;stroke:#ffffff;stroke-width:1.30232;stroke-linecap:round;stroke-linejoin:round;stroke-opacity:1"
         d="m 196.64974,257.75203 a 7.4721678,7.4721678 0 0 1 -7.47217,7.47216 7.4721678,7.4721678 0 0 1 -7.47216,-7.47216 7.4721678,7.4721678 0 0 1 7.47216,-7.47217 7.4721678,7.4721678 0 0 1 7.47217,7.47217 z m -10.81643,3.34428 6.26798,0.11457 m 0.42054,-6.80309 -6.68852,6.68852 v -6.15341" /></a><path
       id="path7339"
       style="display:inline;fill:#9da09c;fill-opacity:1;stroke:#000000;stroke-width:1.5;stroke-linecap:butt;stroke-linejoin:bevel;stroke-dasharray:none;stroke-opacity:1;paint-order:stroke fill markers"
       d="m 385.49598,-142.01964 h 64.5588 V 33.928251 h -64.5588 z M 9.520467,163.57417 v 31.48181 31.48231 l 53.932101,0.002 -1.0863,-0.56896 c -10.869603,-5.69536 -10.253803,-21.87192 0.9953,-26.14879 l 0.663,-0.25218 v -5.01933 -5.01934 l -1.9182,-1.00614 c -9.290603,-4.87393 -10.494703,-17.46312 -2.2495,-23.52157 0.9097,-0.66842 1.7036,-1.26388 1.7643,-1.32291 0.061,-0.059 -11.637403,-0.10697 -25.995406,-0.10697 z m 140.583113,0 c -14.358,0 -26.0559,0.048 -25.9953,0.10697 0.061,0.059 0.8473,0.64912 1.7482,1.31103 8.3973,6.1701 7.2185,18.59777 -2.2329,23.53706 l -1.9183,1.00253 v 4.94647 4.94699 l 1.5204,0.78083 c 10.6737,5.48214 10.9921,21.10927 0.5266,25.81496 l -1.1607,0.52193 53.6179,0.002 V 195.05952 163.5741 Z M -76.892883,7.3143768 H 262.26058 V 145.55734 H -76.994383 Z"
       inkscape:label="gris" /><path
       id="path147-0-7-7-3"
       style="display:inline;fill:#81877c;stroke:#000000;stroke-width:0.827475;stroke-linecap:round;stroke-linejoin:round;stroke-miterlimit:11.3386"
       class="st16"
       d="m 99.65946,95.35266 c 0,-0.0778 -0.039,-0.1168 -0.039,-0.19462 -0.078,-0.42814 -0.1946,-0.85627 -0.3114,-1.245491 -0.1557,-0.1946 -0.3114,-0.42813 -0.3892,-0.70059 v -0.039 0 c -0.078,-0.0778 -0.1168,-0.19461 -0.1946,-0.27245 0,0 0,0 0,-0.039 -0.078,-0.0778 -0.1557,-0.1946 -0.2336,-0.27245 -0.389195,-0.46706 -0.817295,-0.93412 -1.128695,-1.44011 v -0.039 c -0.039,-0.039 -0.039,-0.039 -0.078,-0.0778 -0.2725,-0.0778 -0.506,-0.1168 -0.7784,-0.15568 -0.078,0 -0.1946,-0.039 -0.2725,-0.039 -0.5449,-0.039 -0.973,-0.19461 -1.3623,-0.58384 -0.1557,-0.15568 -0.2724,-0.35029 -0.3892,-0.54489 -0.4281,-0.0778 -0.8562,-0.1168 -1.2844,-0.1168 -0.233497,0 -0.466997,0 -0.661697,0.039 -0.3113,0.42814 -0.8173,0.70059 -1.479,0.70059 -0.2335,0 -0.467,-0.039 -0.6617,-0.1168 -0.2724,0.1168 -0.5449,0.27245 -0.7784,0.46706 -0.1557,0.1946 -0.3892,0.38921 -0.5838,0.50598 -0.078,0.039 -0.1557,0.0778 -0.2335,0.11681 -0.1557,0.1168 -0.2725,0.27245 -0.3893,0.38921 0,0.1168 0,0.1946 -0.039,0.31138 0,0.27245 -0.078,0.50598 -0.2335,0.73951 -0.078,0.19461 -0.1947,0.38921 -0.311403,0.5449 -0.1946,0.3503 -0.4671,0.58383 -0.8174,0.739511 -0.1557,0.46706 -0.2335,0.93412 -0.3114,1.40118 0.039,0.27246 0,0.58384 -0.039,0.85627 0,0.31138 0.039,0.66169 0.1168,0.97305 0.039,0.039 0.039,0.0778 0.078,0.1168 0.1557,0.23353 0.2724,0.54491 0.3503,0.85629 0.039,0.19461 0.078,0.38921 0.078,0.58382 0.1168,0.23353 0.2335,0.46706 0.3892,0.70059 0.389203,0.1946 0.700603,0.54491 0.856303,0.93412 0.1168,0.1168 0.2725,0.27245 0.4281,0.38921 0.2725,0.23353 0.5449,0.50599 0.7785,0.77844 0.1168,0.0778 0.2335,0.15568 0.3503,0.19461 0.2335,0.0778 0.506,0.15569 0.7395,0.27245 0.3113,-0.0778 0.6616,-0.0778 0.973,0.039 0.5838,0.19461 1.1677,0.27246 1.712597,0.50599 0.3503,0 0.6617,-0.039 1.0119,-0.1168 0.1557,-0.1168 0.3503,-0.19461 0.5449,-0.23353 0.2725,-0.27246 0.6617,-0.46706 1.1677,-0.50599 0.2335,-0.23353 0.506,-0.42813 0.8563,-0.50598 0.1557,-0.38921 0.3892,-0.70059 0.7784,-0.93412 0.078,-0.70059 0.506,-1.36226 1.206595,-1.59579 0.039,-0.19461 0.1168,-0.38921 0.1946,-0.54491 v 0 c 0,-0.039 0.039,-0.0778 0.039,-0.116801 0.039,-0.155679 0.078,-0.272439 0.078,-0.428139 v 0 c 0,-0.0778 0,-0.15568 0,-0.23353 0,-0.15568 0,-0.31136 0,-0.42813 0,-0.38922 0.1168,-0.77844 0.3114,-1.05088 0,-0.19462 -0.039,-0.38923 -0.039,-0.58384 z m 104.94102,-0.88842 c 0,-0.0705 -0.035,-0.10587 -0.035,-0.1764 -0.071,-0.388051 -0.1764,-0.776091 -0.2823,-1.128861 -0.1411,-0.17639 -0.2822,-0.38805 -0.3527,-0.63499 v -0.0353 0 c -0.071,-0.0705 -0.1059,-0.17638 -0.1764,-0.24694 0,0 0,0 0,-0.0353 -0.071,-0.0705 -0.1411,-0.17639 -0.2117,-0.24695 -0.3527,-0.42332 -0.7408,-0.84665 -1.023,-1.30526 v -0.0353 c -0.035,-0.0353 -0.035,-0.0353 -0.071,-0.0705 -0.2469,-0.0705 -0.4586,-0.10587 -0.7055,-0.14111 -0.071,0 -0.1764,-0.0353 -0.2469,-0.0353 -0.4939,-0.0353 -0.882,-0.17638 -1.2347,-0.52917 -0.1412,-0.1411 -0.247,-0.31748 -0.3528,-0.49387 -0.3881,-0.0705 -0.7761,-0.10586 -1.1642,-0.10586 -0.2116,0 -0.4233,0 -0.5997,0.0353 -0.2822,0.38805 -0.7408,0.63499 -1.3405,0.63499 -0.2117,0 -0.4234,-0.0353 -0.5997,-0.10586 -0.247,0.10586 -0.4939,0.24694 -0.7056,0.42332 -0.1411,0.17639 -0.3528,0.35277 -0.5291,0.45861 -0.071,0.0353 -0.1412,0.0705 -0.2117,0.10586 -0.1411,0.10587 -0.2469,0.24695 -0.3528,0.35277 0,0.10587 0,0.17639 -0.035,0.28223 0,0.24694 -0.071,0.4586 -0.2116,0.67027 -0.071,0.17638 -0.1764,0.35276 -0.2823,0.49387 -0.1764,0.3175 -0.4233,0.52916 -0.7408,0.67027 -0.1411,0.42333 -0.2117,0.846651 -0.2822,1.269981 0.035,0.24694 0,0.52917 -0.035,0.7761 0,0.28222 0.035,0.59972 0.1059,0.88193 0.035,0.0353 0.035,0.0705 0.071,0.10587 0.1411,0.21166 0.247,0.49388 0.3175,0.7761 0.035,0.17639 0.071,0.35277 0.071,0.52916 0.1058,0.21166 0.2116,0.42332 0.3528,0.63499 0.3527,0.17638 0.6349,0.49388 0.776,0.84665 0.1059,0.10587 0.247,0.24694 0.3881,0.35277 0.2469,0.21166 0.4939,0.45861 0.7055,0.70555 0.1059,0.0705 0.2117,0.1411 0.3175,0.17638 0.2117,0.0705 0.4586,0.14112 0.6703,0.24695 0.2822,-0.0705 0.5997,-0.0705 0.8819,0.0353 0.5292,0.17638 1.0584,0.24694 1.5523,0.45861 0.3174,0 0.5997,-0.0353 0.9171,-0.10587 0.1412,-0.10586 0.3176,-0.17638 0.4939,-0.21166 0.247,-0.24695 0.5997,-0.42333 1.0584,-0.45861 0.2116,-0.21166 0.4585,-0.38805 0.776,-0.45861 0.1412,-0.35276 0.3528,-0.63499 0.7056,-0.84665 0.071,-0.63499 0.4586,-1.2347 1.0936,-1.44637 0.035,-0.17638 0.1059,-0.35276 0.1764,-0.49388 v 0 c 0,-0.0353 0.035,-0.0705 0.035,-0.10587 0.035,-0.1411 0.071,-0.24693 0.071,-0.38805 v 0 c 0,-0.0705 0,-0.1411 0,-0.21166 0,-0.1411 0,-0.28221 0,-0.38805 0,-0.35276 0.1059,-0.70555 0.2823,-0.95248 0,-0.17639 -0.035,-0.35278 -0.035,-0.52916 z m -211.2697643,0 c 0,-0.0705 -0.035,-0.10587 -0.035,-0.1764 -0.071,-0.388051 -0.1764,-0.776091 -0.2822,-1.128861 -0.1412,-0.17639 -0.2823,-0.38805 -0.3528,-0.63499 v -0.0353 0 c -0.071,-0.0705 -0.1059,-0.17638 -0.1764,-0.24694 0,0 0,0 0,-0.0353 -0.071,-0.0705 -0.1411,-0.17639 -0.2117,-0.24695 -0.3527,-0.42332 -0.7408,-0.84665 -1.023,-1.30526 v -0.0353 c -0.035,-0.0353 -0.035,-0.0353 -0.071,-0.0705 -0.247,-0.0705 -0.4586,-0.10587 -0.7056,-0.14111 -0.07,0 -0.1764,-0.0353 -0.2469,-0.0353 -0.4938997,-0.0353 -0.8819997,-0.17638 -1.2346997,-0.52917 -0.1412,-0.1411 -0.247,-0.31748 -0.3528,-0.49387 -0.3881,-0.0705 -0.7761,-0.10586 -1.1641,-0.10586 -0.2117,0 -0.4234,0 -0.5998,0.0353 -0.2822,0.38805 -0.7408,0.63499 -1.3405,0.63499 -0.2117,0 -0.4233,-0.0353 -0.5997,-0.10586 -0.247,0.10586 -0.4939,0.24694 -0.7056,0.42332 -0.1411,0.17639 -0.3527,0.35277 -0.5291,0.45861 -0.071,0.0353 -0.1411,0.0705 -0.2117,0.10586 -0.1411,0.10587 -0.2469,0.24695 -0.3528,0.35277 0,0.10587 0,0.17639 -0.035,0.28223 0,0.24694 -0.071,0.4586 -0.2116,0.67027 -0.071,0.17638 -0.1764,0.35276 -0.2823,0.49387 -0.1764,0.3175 -0.4233,0.52916 -0.740799,0.67027 -0.1411,0.42333 -0.2117,0.846651 -0.2822,1.269981 0.035,0.24694 0,0.52917 -0.035,0.7761 0,0.28222 0.035,0.59972 0.1058,0.88193 0.035,0.0353 0.035,0.0705 0.071,0.10587 0.1411,0.21166 0.2469,0.49388 0.317499,0.7761 0.035,0.17639 0.071,0.35277 0.071,0.52916 0.1059,0.21166 0.2117,0.42332 0.3528,0.63499 0.3527,0.17638 0.6349,0.49388 0.7761,0.84665 0.1058,0.10587 0.2469,0.24694 0.388,0.35277 0.247,0.21166 0.4939,0.45861 0.7056,0.70555 0.1058,0.0705 0.2116,0.1411 0.3174,0.17638 0.2117,0.0705 0.4587,0.14112 0.6703,0.24695 0.2822,-0.0705 0.5997,-0.0705 0.8819,0.0353 0.5292,0.17638 1.0584,0.24694 1.5523,0.45861 0.3174,0 0.5997,-0.0353 0.9171,-0.10587 0.1412,-0.10586 0.3176,-0.17638 0.4939,-0.21166 0.247,-0.24695 0.5998,-0.42333 1.0583997,-0.45861 0.2116,-0.21166 0.4586,-0.38805 0.776,-0.45861 0.1412,-0.35276 0.3528,-0.63499 0.7056,-0.84665 0.071,-0.63499 0.4586,-1.2347 1.0936,-1.44637 0.035,-0.17638 0.1059,-0.35276 0.1764,-0.49388 v 0 c 0,-0.0353 0.035,-0.0705 0.035,-0.10587 0.035,-0.1411 0.071,-0.24693 0.071,-0.38805 v 0 c 0,-0.0705 0,-0.1411 0,-0.21166 0,-0.1411 0,-0.28221 0,-0.38805 0,-0.35276 0.1059,-0.70555 0.2823,-0.95248 0,-0.17639 -0.035,-0.35278 -0.035,-0.52916 z"
       inkscape:label="centres_patios" /><path
       id="rect7785"
       style="display:inline;fill:#99bcae;stroke:#000000;stroke-linejoin:bevel;paint-order:stroke fill markers"
       d="M 32.855235,-68.310712 H 148.85022 v 53.133177 H 32.855235 Z m 133.402235,5.664497 h 79.11041 v 41.80417 h -79.11041 z m -223.306604,0 h 79.110365 v 41.80417 h -79.110365 z m 30.21155,-135.595375 c 0,0 -37.873,6.72855 -37.604901,53.28874 0.2681,46.560187 37.604901,52.007154 37.604901,52.007154 49.657245,-0.28448 191.244964,-0.52585 240.897964,0 0,0 37.3368,-5.446967 37.6049,-52.007154 0.2681,-46.56019 -37.6049,-53.28874 -37.6049,-53.28874 z m 0,13.48394 H 214.06038 c 0,0 -23.9091,15.09564 -23.9091,38.87359 0,23.77796 23.9091,39.45444 23.9091,39.45444 H -26.837584 c 0,0 23.9091894,-15.67648 23.9091894,-39.45444 0,-23.77795 -23.9091894,-38.87359 -23.9091894,-38.87359 z m 60.015449,10.51977 v 57.28849 H 154.04438 v -57.28849 z"
       inkscape:label="sport" /><path
       id="path16386"
       style="display:inline;fill:#97d175;fill-opacity:1;stroke:none;stroke-width:7.908;stroke-linecap:round;stroke-linejoin:round;stroke-dasharray:none;stroke-opacity:1;paint-order:stroke fill markers"
       d="M 79.889965,396.73966 H 8.796267 V 288.60238 h 48.268901 c 0,0 7.0119,10.152 10.816103,13.0207 3.8041,2.8687 12.008694,4.19148 12.008694,4.19148 z m 0,117.49166 V 404.97156 H 8.796267 v 61.36507 c 0,0 14.285194,-1.37521 29.815795,14.15547 15.530703,15.53068 17.330603,32.99087 17.330603,32.99087 z M 105.10587,396.73966 h 71.09371 V 288.60238 h -48.2689 c 0,0 -7.0119,10.152 -10.8161,13.0207 -3.80411,2.8687 -12.00871,4.19148 -12.00871,4.19148 z m 0,117.49166 V 404.97156 h 71.09371 v 61.36507 c 0,0 -14.2852,-1.37521 -29.8158,14.15547 -15.5307,15.53068 -17.3306,32.99087 -17.3306,32.99087 z m 277.92991,-414.20073 -69.4524,-1e-5 v 36.03266 h 69.4524 v -18.90499 h 100.3633 V 100.0306 Z M 569.45988,-56.014948 V 62.142996 l -38.7764,0.506718 0.1661,29.995595 -31.48,3.439581 v 21.07336 h 139.8199 V -56.014948 Z m -225.503,71.467872 h -38.4791 V -134.34828 h 38.4791 z m 166.006,47.366581 v 12.358504 h -126.9271 v 6.094809 l -79.1935,0.13899 -0.926,65.145542 h -11.4744 l -0.3652,-65.123142 V 60.937875 m 91.7071,80.839405 -69.4524,-2e-5 v 91.37829 h 69.4524 z m -170.2225,33.70151 h 87.04 v 82.28543 h -80.1609 l -6.6146,-6.61459 z m 170.1864,66.19676 -69.3802,-2e-5 v 106.27313 h 69.3802 z m 6.4527,-211.451711 h 57.1484 V -138.3152 h -57.1484 z M 12.696466,223.36252 c 13.989496,6.5e-4 27.979096,0.001 41.968699,0.002 -4.218,-5.92883 -4.4522,-14.52936 -0.1636,-20.48754 1.611603,-2.31414 3.818803,-4.21545 6.360903,-5.44018 -0.03,-1.98683 -0.01,-3.97396 -0.014,-5.96095 -5.165103,-2.67315 -9.078003,-7.9181 -9.572503,-13.78498 -0.3797,-3.77727 0.4833,-7.69723 2.551,-10.89471 -13.710203,-0.0527 -27.420503,-0.0431 -41.130799,-0.0469 v 56.61328 z M 139.98548,166.759 c -2.6907,0.0111 -5.3815,0.0221 -8.0722,0.0332 3.3623,5.05517 3.7115,12 0.6418,17.27663 -1.7305,3.15726 -4.4379,5.78038 -7.6672,7.37766 0,2.00718 -0.01,4.01434 -0.01,6.0215 6.007,3.17674 10.0096,9.88826 9.6956,16.71124 -0.093,3.24662 -1.0509,6.49242 -2.8831,9.18719 13.7799,6.5e-4 27.5599,0.001 41.3398,0.002 v -56.61914 c -11.0149,0.003 -22.0299,0.007 -33.0449,0.01 z m -158.775363,12.55399 h -62.865499 l -22.958588,13.25516 v 41.74957 l 29.817086,29.81714 h 51.6414 9.075 v -87.33315 z"
       inkscape:label="herbe"
       sodipodi:nodetypes="cccccccccccsccccccsccccccsccccccccccccccccccccccccccccccccccccccccccccccccccccccsccccccccscccccccccccccccccccc" /><path
       id="path13677"
       style="display:inline;fill:#9799ab;fill-opacity:1;stroke:none;stroke-width:1;stroke-linecap:round;stroke-linejoin:round;stroke-opacity:1;paint-order:stroke fill markers"
       d="M 383.03578,100.0306 V 75.178009 h 152.3171 c 6.6084,0 15.2444,-6.066317 15.2444,-12.674734 V -102.86131 h 4.4979 v -12.96458 h -21.4312 v -26.19375 h 53.4158 l 0.162,2.24896 h 30.1625 v -33.73438 h -255.3535 v -11.9078 h 277.1387 v 129.397912 h -69.7296 V 73.085029 c -2.2375,11.30919 -12.1147,26.366891 -22.4386,26.554551 l -47.6517,0.39102 v 17.12765 h -15.9705 V 100.0306 Z m 0,170.45657 124.9011,-5e-5 V 117.15825 h -124.9011 z"
       sodipodi:nodetypes="ccsscccccccccccccccccccccccccc"
       inkscape:label="parking" /><path
       style="display:inline;fill:none;fill-opacity:1;stroke:#000000;stroke-width:7.908;stroke-linecap:round;stroke-linejoin:round;stroke-dasharray:none;stroke-opacity:1;paint-order:stroke fill markers"
       d="m -215.94232,-207.38164 522.6713,6e-5 v -87.64057 l 55.445,-6e-5 v 87.1786 h 277.0155 v 325.00187 h -131.2526 v 153.32887 l -125.1892,6e-5 v 77.46147 h -88.7467 -88.7466 V 507.5038 l -46.7628,30.3287 -0.2433,30.39111 -126.833915,29.39136 0.5292,-61.3163 -46.024049,-46.02444 v -227.1844 h -61.0309 l -28.504886,-28.50478 -122.09025,-32.71384 v -409.19122 z"
       id="path15494-2"
       sodipodi:nodetypes="ccccccccccccccccccccccccc"
       inkscape:label="contour" /><path
       id="polygon139-1-7-95-4"
       style="display:inline;fill:#97d175;fill-opacity:1;stroke:#000000;stroke-width:0.827476;stroke-linecap:round;stroke-linejoin:round;stroke-miterlimit:11.3386"
       class="st15"
       d="m 58.596768,62.503035 v 28.957144 h 24.287297 l 5.604903,-5.60412 V 62.503035 Z m 39.233397,0 v 23.353024 l 5.604895,5.60412 h 24.28732 V 62.503035 Z M 58.596768,100.80139 v 30.82646 h 29.8922 v -25.22158 l -5.604903,-5.60488 z m 44.838292,0 -5.604895,5.60488 v 25.22158 h 29.892215 v -30.82646 z m 63.94762,-36.110895 v 26.245734 h 22.0132 l 5.0801,-5.07938 V 64.690495 Z m 35.5598,0 v 21.166354 l 5.0801,5.07938 h 22.0131 V 64.690495 Z m -35.5598,34.712275 v 27.94002 h 27.0933 v -22.85995 l -5.0801,-5.08007 z m 40.6399,0 -5.0801,5.08007 v 22.85995 h 27.0932 V 99.40277 Z M -43.887085,64.690495 v 26.245734 h 22.013202 l 5.080099,-5.07938 V 64.690495 Z m 35.5598007,0 v 21.166354 l 5.0800927,5.07938 H 18.765864 V 64.690495 Z M -43.887085,99.40277 v 27.94002 h 27.093301 v -22.85995 l -5.080099,-5.08007 z m 40.6398934,0 -5.0800927,5.08007 v 22.85995 H 18.765864 V 99.40277 Z M -76.892883,7.3143768 V 56.019413 H 193.31288 V 7.3143768 H -7.2960843 V 50.918432 H -18.377083 V 7.3143768 Z m 281.210763,0 V 56.019413 h 57.9427 V 7.3143768 Z" /><text
       xml:space="preserve"
       style="font-size:20.4684px;font-family:'Comic Sans MS';-inkscape-font-specification:'Comic Sans MS';display:inline;fill:#000000;fill-opacity:1;stroke:none;stroke-width:14.5051;stroke-linecap:round;stroke-linejoin:round;stroke-dasharray:29.0103, 29.0103;stroke-dashoffset:0;stroke-opacity:1;paint-order:stroke fill markers"
       x="-5.9601412"
       y="-321.1347"
       id="text18040"><tspan
         sodipodi:role="line"
         id="tspan18038"
         style="font-size:20.4684px;fill:#000000;fill-opacity:1;stroke:none;stroke-width:14.5051"
         x="-5.9601412"
         y="-321.1347">Boulevard de la Reine</tspan></text><text
       xml:space="preserve"
       style="font-size:20.4684px;font-family:'Comic Sans MS';-inkscape-font-specification:'Comic Sans MS';display:inline;fill:#000000;fill-opacity:1;stroke:none;stroke-width:14.5051;stroke-linecap:round;stroke-linejoin:round;stroke-dasharray:29.0103, 29.0103;stroke-dashoffset:0;stroke-opacity:1;paint-order:stroke fill markers"
       x="-106.33545"
       y="668.81812"
       id="text18040-8"
       transform="rotate(-90)"><tspan
         sodipodi:role="line"
         id="tspan18038-2"
         style="font-size:20.4684px;fill:#000000;fill-opacity:1;stroke:none;stroke-width:14.5051"
         x="-106.33545"
         y="668.81812">Rue de Provence</tspan></text><text
       xml:space="preserve"
       style="font-size:20.4684px;font-family:'Comic Sans MS';-inkscape-font-specification:'Comic Sans MS';display:inline;fill:#000000;fill-opacity:1;stroke:none;stroke-width:14.5051;stroke-linecap:round;stroke-linejoin:round;stroke-dasharray:29.0103, 29.0103;stroke-dashoffset:0;stroke-opacity:1;paint-order:stroke fill markers"
       x="-87.287758"
       y="623.90753"
       id="text18040-0"
       transform="rotate(-13.64628)"><tspan
         sodipodi:role="line"
         id="tspan18038-8"
         style="font-size:20.4684px;fill:#000000;fill-opacity:1;stroke:none;stroke-width:14.5051"
         x="-87.287758"
         y="623.90753">Avenue de Saint-Cloud</tspan></text><text
       xml:space="preserve"
       style="font-size:16.1267px;font-family:'Comic Sans MS';-inkscape-font-specification:'Comic Sans MS';display:inline;fill:#000000;fill-opacity:1;stroke:none;stroke-width:11.4283;stroke-linecap:round;stroke-linejoin:round;stroke-dasharray:22.8567, 22.8567;stroke-dashoffset:0;stroke-opacity:1;paint-order:stroke fill markers"
       x="-211.25076"
       y="280.79745"
       id="text18040-0-1"
       transform="rotate(16.35372)"><tspan
         sodipodi:role="line"
         id="tspan18038-8-9"
         style="font-size:16.1267px;fill:#000000;fill-opacity:1;stroke:none;stroke-width:11.4283"
         x="-211.25076"
         y="280.79745">Rue de l'abbé de l'épée</tspan></text><path
       id="path1862"
       style="display:inline;fill:#000000;stroke:none;stroke-width:5;stroke-linecap:round;stroke-linejoin:round;stroke-dasharray:10, 10;stroke-dashoffset:0;stroke-opacity:1;paint-order:stroke fill markers"
       d="M 31.796765,553.31017 H 158.36768 l -0.1194,14.91343 -126.833915,29.39137 z m -133.394535,-726.81678 -50.3391,0.0667 -50.33903,0.0672 -0.076,2.4474 -0.076,2.44739 h -7.66312 -7.6631 v 12.56771 12.56771 h 8.0698 8.06972 v 87.973942 87.973959 h -14.02242 -14.0234 v 15.124661 l 5e-4,15.124653 63.53525,-0.16639 c 34.9439,-0.0916 63.5669,-0.20035 63.6069,-0.24185 0.04,-0.0415 0.1112,-6.683442 0.1582,-14.759823 l 0.086,-14.684381 -33.26571,-0.0672 -33.26619,-0.0672 v -87.839599 -87.839582 l 33.53589,-0.0672 33.53601,-0.0672 0.068,-15.28072 z m 456.13795,0.002 V -70.184832 33.134951 h -31.75 -31.75 v 14.684381 c 0,8.076381 0.03,14.687063 0.066,14.690063 l 152.4666,0.7809 107.0245,-0.78702 v -81.62397 -83.740615 h 2.249 2.2489 v -6.48229 -6.48229 h -10.7156 -10.7156 v -13.09688 -13.09687 h 26.7079 26.7079 l 0.081,1.12448 0.081,1.12448 h 15.0812 15.0813 l 0.068,-16.86719 0.068,-16.86719 h -131.5 z m 30.9558,31.48542 h 32.2796 32.2792 v 87.973945 87.973946 h -32.2792 -32.2796 v -87.973946 z m -466.199462,170.656228 0.067,67.402602 0.067,67.40262 30.889497,0.0672 30.890102,0.0672 v 31.47355 31.47353 l -2.1828,0.077 -2.182801,0.077 v 26.32604 26.32605 h 12.7 12.6999601 l 0.069,-10.97867 0.069,-10.97865 2.7015937,-2.71043 2.7012,-2.71095 10.3264942,-0.0687 10.326498,-0.0693 v -12.56816 -12.56771 l -9.458898,-0.0698 -9.458797,-0.0693 v -31.48231 -31.48181 h 26.105295 c 14.358003,0 26.056406,0.048 25.995406,0.10697 -0.061,0.059 -0.8546,0.65449 -1.7643,1.32291 -8.245203,6.05845 -7.041103,18.64764 2.2495,23.52157 l 1.9182,1.00614 v 5.01934 5.01933 l -0.663,0.25218 c -11.249103,4.27687 -11.864903,20.45342 -0.9953,26.14879 l 1.6495,0.86403 0.071,6.8001 0.071,6.80011 5.490103,0.0713 5.490097,0.0713 v 11.3435 c 0,10.09959 0.046,11.36122 0.4186,11.5042 0.5468,0.20984 34.070202,0.20984 34.617002,0 0.3725,-0.14298 0.4186,-1.40488 0.4186,-11.50937 v -11.34866 h 5.55631 5.5562 v -6.81302 -6.81302 l 2.048,-0.92088 c 10.4656,-4.7057 10.1471,-20.33281 -0.5266,-25.81496 l -1.5204,-0.78083 v -4.94699 -4.94647 l 1.9183,-1.00253 c 9.4514,-4.9393 10.6302,-17.36695 2.2329,-23.53706 -0.9009,-0.66191 -1.6872,-1.25203 -1.7482,-1.31103 -0.061,-0.059 11.6373,-0.10697 25.9953,-0.10697 h 26.1059 v 31.48542 31.48542 h -9.3927 -9.3927 v 12.7 12.7 h 10.3901 10.39 l 2.4392,2.44895 2.4391,2.44946 0.069,11.24271 0.069,11.24326 10.6443,0.0687 10.6438,0.0693 0.072,5.35471 0.072,5.35523 24.1433,0.0672 24.1432,0.0677 v 14.15366 14.15365 h -5.2844 -5.2845 l -0.073,-3.77031 -0.073,-3.77031 -18.5865,-0.0677 -18.587,-0.0677 v 10.58488 10.5854 h 35.8511 35.851 v -16.93333 -16.93334 h 3.1223 c 4.081,0 3.7569,0.59736 3.7569,-6.92929 v -6.29471 l 12.1047,-0.0687 7.4275,-0.0687 v -9.525 -9.525 l -42.4848,-0.0672 -47.162,-0.0667 v -2.88819 c 0,-3.88265 0.1024,-3.72484 -2.4091,-3.72484 h -2.0888 V 242.81678 226.5449 h -2.249 -2.2489 v -31.48542 -31.48542 h 30.9283 c 27.9581,0 30.9428,-0.0402 31.088,-0.41858 0.21,-0.54715 0.21,-133.553171 0,-134.100352 -0.1442,-0.37572 -1.9414,-0.41858 -17.5947,-0.41858 h -17.4341 v 10.186464 10.18645 h -32.9406 -32.9407 V 38.823012 28.636548 H 93.028568 20.428861 l -0.1607,0.41858 c -0.089,0.230191 -0.1607,4.814113 -0.1607,10.186454 v 9.76788 H -12.833084 -45.773785 V 38.823012 28.636548 h -17.463 z M 56.106268,60.089455 H 129.90168 V 133.88495 H 56.106268 Z m -102.250653,2.4138 h 0.37 66.145346 0.37 v 66.885335 h -66.885346 z m 211.269765,0 h 0.5023 65.8808 0.5023 v 66.885335 h -66.8854 z"
       inkscape:label="bats" /><a
       id="a1473-8-3-4"
       xlink:href="#Change?E-1?460"
       transform="matrix(0.56385231,0.56385231,-0.56385231,0.56385231,255.46837,-15.394172)"><path
         id="path892-5-0-48"
         style="fill:#222222;fill-opacity:1;stroke:#ffffff;stroke-width:0.765;stroke-linecap:round;stroke-linejoin:round;stroke-opacity:1"
         d="m 190.24877,260.40647 a 4.3892446,4.3892446 0 0 1 -4.38925,4.38924 4.3892446,4.3892446 0 0 1 -4.38924,-4.38924 4.3892446,4.3892446 0 0 1 4.38924,-4.38925 4.3892446,4.3892446 0 0 1 4.38925,4.38925 z m -6.35371,1.96447 3.68189,0.0673 m 0.24703,-3.99622 -3.92892,3.92892 v -3.61459" /></a><a
       id="a1473-8-3-4-8"
       xlink:href="#Change?E-1?461"
       transform="matrix(0.56385231,0.56385231,-0.56385231,0.56385231,251.01151,-80.0678)"><path
         id="path892-5-0-48-2"
         style="fill:#222222;fill-opacity:1;stroke:#ffffff;stroke-width:0.765;stroke-linecap:round;stroke-linejoin:round;stroke-opacity:1"
         d="m 190.24877,260.40647 a 4.3892446,4.3892446 0 0 1 -4.38925,4.38924 4.3892446,4.3892446 0 0 1 -4.38924,-4.38924 4.3892446,4.3892446 0 0 1 4.38924,-4.38925 4.3892446,4.3892446 0 0 1 4.38925,4.38925 z m -6.35371,1.96447 3.68189,0.0673 m 0.24703,-3.99622 -3.92892,3.92892 v -3.61459" /></a><a
       id="a1473-8-3-4-6-4-5-8"
       xlink:href="#Change?E-1?481"
       transform="matrix(-0.56385231,-0.56385231,0.56385231,-0.56385231,-65.106807,423.68549)"><path
         id="path892-5-0-48-1-5-48-4"
         style="fill:#222222;fill-opacity:1;stroke:#ffffff;stroke-width:1.30232;stroke-linecap:round;stroke-linejoin:round;stroke-opacity:1"
         d="m 196.64974,257.75203 a 7.4721678,7.4721678 0 0 1 -7.47217,7.47216 7.4721678,7.4721678 0 0 1 -7.47216,-7.47216 7.4721678,7.4721678 0 0 1 7.47216,-7.47217 7.4721678,7.4721678 0 0 1 7.47217,7.47217 z m -10.81643,3.34428 6.26798,0.11457 m 0.42054,-6.80309 -6.68852,6.68852 v -6.15341" /></a><a
       id="a1473-8-3-4-6-4-5-0"
       xlink:href="#Change?E-1?477"
       transform="matrix(0.43350335,-0.43350335,0.43350335,0.43350335,-206.61653,12.341498)"><path
         id="path892-5-0-48-1-5-48-48"
         style="fill:#222222;fill-opacity:1;stroke:#ffffff;stroke-width:1.30232;stroke-linecap:round;stroke-linejoin:round;stroke-opacity:1"
         d="m 196.64974,257.75203 a 7.4721678,7.4721678 0 0 1 -7.47217,7.47216 7.4721678,7.4721678 0 0 1 -7.47216,-7.47216 7.4721678,7.4721678 0 0 1 7.47216,-7.47217 7.4721678,7.4721678 0 0 1 7.47217,7.47217 z m -10.81643,3.34428 6.26798,0.11457 m 0.42054,-6.80309 -6.68852,6.68852 v -6.15341" /></a><a
       id="a1473-8-3-4-1"
       xlink:href="#Change?E-1?457"
       transform="matrix(0.65743978,-0.65743978,0.65743978,0.65743978,-26.604572,212.01067)"><path
         id="path892-5-0-48-0"
         style="fill:#222222;fill-opacity:1;stroke:#ffffff;stroke-width:0.765;stroke-linecap:round;stroke-linejoin:round;stroke-opacity:1"
         d="m 190.24877,260.40647 a 4.3892446,4.3892446 0 0 1 -4.38925,4.38924 4.3892446,4.3892446 0 0 1 -4.38924,-4.38924 4.3892446,4.3892446 0 0 1 4.38924,-4.38925 4.3892446,4.3892446 0 0 1 4.38925,4.38925 z m -6.35371,1.96447 3.68189,0.0673 m 0.24703,-3.99622 -3.92892,3.92892 v -3.61459" /></a><a
       id="a1473-8-3-4-1-2"
       xlink:href="#Change?E-0?472"
       transform="matrix(-0.65743978,-0.65743978,0.65743978,-0.65743978,299.1816,127.23468)"><path
         id="path892-5-0-48-0-8"
         style="fill:#222222;fill-opacity:1;stroke:#ffffff;stroke-width:0.765;stroke-linecap:round;stroke-linejoin:round;stroke-opacity:1"
         d="m 190.24877,260.40647 a 4.3892446,4.3892446 0 0 1 -4.38925,4.38924 4.3892446,4.3892446 0 0 1 -4.38924,-4.38924 4.3892446,4.3892446 0 0 1 4.38924,-4.38925 4.3892446,4.3892446 0 0 1 4.38925,4.38925 z m -6.35371,1.96447 3.68189,0.0673 m 0.24703,-3.99622 -3.92892,3.92892 v -3.61459" /></a><a
       id="a1473-8-3-4-6-4"
       xlink:href="#Change?E-1?454"
       transform="matrix(0,0.79740758,-0.79740758,0,216.04409,109.69965)"><path
         id="path892-5-0-48-1-5"
         style="fill:#222222;fill-opacity:1;stroke:#ffffff;stroke-width:1.30232;stroke-linecap:round;stroke-linejoin:round;stroke-opacity:1"
         d="m 196.64974,257.75203 a 7.4721678,7.4721678 0 0 1 -7.47217,7.47216 7.4721678,7.4721678 0 0 1 -7.47216,-7.47216 7.4721678,7.4721678 0 0 1 7.47216,-7.47217 7.4721678,7.4721678 0 0 1 7.47217,7.47217 z m -10.81643,3.34428 6.26798,0.11457 m 0.42054,-6.80309 -6.68852,6.68852 v -6.15341" /></a><a
       id="a1473-8-3-4-6-4-5"
       xlink:href="#Change?E-0?468"
       transform="matrix(-0.56385231,-0.56385231,0.56385231,-0.56385231,242.74211,299.74199)"><path
         id="path892-5-0-48-1-5-48"
         style="fill:#222222;fill-opacity:1;stroke:#ffffff;stroke-width:1.30232;stroke-linecap:round;stroke-linejoin:round;stroke-opacity:1"
         d="m 196.64974,257.75203 a 7.4721678,7.4721678 0 0 1 -7.47217,7.47216 7.4721678,7.4721678 0 0 1 -7.47216,-7.47216 7.4721678,7.4721678 0 0 1 7.47216,-7.47217 7.4721678,7.4721678 0 0 1 7.47217,7.47217 z m -10.81643,3.34428 6.26798,0.11457 m 0.42054,-6.80309 -6.68852,6.68852 v -6.15341" /></a><a
       id="a1473-8-3-4-6-4-5-5"
       xlink:href="#Change?E-0?479"
       transform="matrix(0.56385231,0.56385231,-0.56385231,0.56385231,-56.908244,-202.2367)"><path
         id="path892-5-0-48-1-5-48-1"
         style="fill:#222222;fill-opacity:1;stroke:#ffffff;stroke-width:1.30232;stroke-linecap:round;stroke-linejoin:round;stroke-opacity:1"
         d="m 196.64974,257.75203 a 7.4721678,7.4721678 0 0 1 -7.47217,7.47216 7.4721678,7.4721678 0 0 1 -7.47216,-7.47216 7.4721678,7.4721678 0 0 1 7.47216,-7.47217 7.4721678,7.4721678 0 0 1 7.47217,7.47217 z m -10.81643,3.34428 6.26798,0.11457 m 0.42054,-6.80309 -6.68852,6.68852 v -6.15341" /></a><a
       id="a1473-8-3-4-6-4-4"
       xlink:href="#Change?E-0?467"
       transform="matrix(0,0.79740758,-0.79740758,0,727.55634,-80.73705)"><path
         id="path892-5-0-48-1-5-1"
         style="fill:#222222;fill-opacity:1;stroke:#ffffff;stroke-width:1.30232;stroke-linecap:round;stroke-linejoin:round;stroke-opacity:1"
         d="m 194.46119,265.69009 a 7.4721678,7.4721678 0 0 1 -10.56724,-10e-6 7.4721678,7.4721678 0 0 1 0,-10.56723 7.4721678,7.4721678 0 0 1 10.56724,-1e-5 7.4721678,7.4721678 0 0 1 0,10.56725 z m -10.01313,-5.28361 4.35111,4.51314 m 5.10788,-4.51314 h -9.45899 l 4.35111,-4.35112" /></a><a
       id="a1473-8-3-4-6-4-8"
       xlink:href="#Change?E-1?453"
       transform="matrix(-0.79740758,0,0,-0.79740758,324.94744,465.88344)"><path
         id="path892-5-0-48-1-5-4"
         style="fill:#222222;fill-opacity:1;stroke:#ffffff;stroke-width:1.30232;stroke-linecap:round;stroke-linejoin:round;stroke-opacity:1"
         d="m 196.64974,257.75203 a 7.4721678,7.4721678 0 0 1 -7.47217,7.47216 7.4721678,7.4721678 0 0 1 -7.47216,-7.47216 7.4721678,7.4721678 0 0 1 7.47216,-7.47217 7.4721678,7.4721678 0 0 1 7.47217,7.47217 z m -10.81643,3.34428 6.26798,0.11457 m 0.42054,-6.80309 -6.68852,6.68852 v -6.15341" /></a><a
       id="a1304"
       xlink:href="#Change?E-1?476"
       transform="matrix(0.43350335,-0.43350335,0.43350335,0.43350335,5.0502093,12.341498)"><path
         id="path1302"
         style="fill:#222222;fill-opacity:1;stroke:#ffffff;stroke-width:1.30232;stroke-linecap:round;stroke-linejoin:round;stroke-opacity:1"
         d="m 196.64974,257.75203 a 7.4721678,7.4721678 0 0 1 -7.47217,7.47216 7.4721678,7.4721678 0 0 1 -7.47216,-7.47216 7.4721678,7.4721678 0 0 1 7.47216,-7.47217 7.4721678,7.4721678 0 0 1 7.47217,7.47217 z m -10.81643,3.34428 6.26798,0.11457 m 0.42054,-6.80309 -6.68852,6.68852 v -6.15341" /></a><a
       id="a3894-3-2-0-5"
       xlink:href="#Change?E--1?482"
       transform="matrix(0,2.4937859,2.4937861,0,-482.79272,-533.82201)"><path
         id="path1907-4-7-7-7-9-1-9"
         style="display:inline;fill:#222222;fill-opacity:1;stroke:#ffffff;stroke-width:0.359049;stroke-linecap:round;stroke-linejoin:miter;stroke-miterlimit:4;stroke-dasharray:none;stroke-opacity:1;paint-order:markers fill stroke"
         inkscape:label="path1907-4-7-7"
         d="m 211.16626,139.27577 h 0.94081 l -1e-5,0.94079 m -1.53305,0.60645 1.53306,-1.54724 m 2.68494,-0.22678 -0.014,1.10765 -1.07997,0.014 -0.0187,1.12589 h -1.1182 v 1.126 h -1.10836 l -0.002,1.117 -1.07997,0.014 m -0.57293,-5.56166 h 5.69832 c 0.40432,0 0.72985,0.32549 0.72985,0.72984 v 5.42302 c 0,0.40432 -0.32553,0.72985 -0.72985,0.72985 h -5.69832 c -0.40434,0 -0.72985,-0.32553 -0.72985,-0.72985 v -5.42302 c 0,-0.40435 0.32551,-0.72984 0.72985,-0.72984 z" /></a><a
       id="a1412"
       xlink:href="#Change?E--1?486"
       transform="matrix(0,2.4937859,2.4937861,0,-482.79272,-633.30555)"><path
         id="path1410"
         style="display:inline;fill:#222222;fill-opacity:1;stroke:#ffffff;stroke-width:0.359049;stroke-linecap:round;stroke-linejoin:miter;stroke-miterlimit:4;stroke-dasharray:none;stroke-opacity:1;paint-order:markers fill stroke"
         inkscape:label="path1907-4-7-7"
         d="m 211.16626,139.27577 h 0.94081 l -1e-5,0.94079 m -1.53305,0.60645 1.53306,-1.54724 m 2.68494,-0.22678 -0.014,1.10765 -1.07997,0.014 -0.0187,1.12589 h -1.1182 v 1.126 h -1.10836 l -0.002,1.117 -1.07997,0.014 m -0.57293,-5.56166 h 5.69832 c 0.40432,0 0.72985,0.32549 0.72985,0.72984 v 5.42302 c 0,0.40432 -0.32553,0.72985 -0.72985,0.72985 h -5.69832 c -0.40434,0 -0.72985,-0.32553 -0.72985,-0.72985 v -5.42302 c 0,-0.40435 0.32551,-0.72984 0.72985,-0.72984 z" /></a></g></svg>
