<?xml version="1.0" encoding="UTF-8" standalone="no"?>
<!-- Created with Inkscape (http://www.inkscape.org/) -->

<svg
   width="31.719086mm"
   height="35.189575mm"
   viewBox="0 0 31.719086 35.189575"
   version="1.1"
   id="svg1704"
   xml:space="preserve"
   sodipodi:docname="anc.svg"
   inkscape:version="1.2.2 (732a01da63, 2022-12-09)"
   xmlns:inkscape="http://www.inkscape.org/namespaces/inkscape"
   xmlns:sodipodi="http://sodipodi.sourceforge.net/DTD/sodipodi-0.dtd"
   xmlns="http://www.w3.org/2000/svg"
   xmlns:svg="http://www.w3.org/2000/svg"><sodipodi:namedview
     id="namedview1706"
     pagecolor="#ffffff"
     bordercolor="#000000"
     borderopacity="0.25"
     inkscape:showpageshadow="2"
     inkscape:pageopacity="0.0"
     inkscape:pagecheckerboard="0"
     inkscape:deskcolor="#d1d1d1"
     inkscape:document-units="mm"
     showgrid="false"
     inkscape:zoom="2.3786088"
     inkscape:cx="70.629521"
     inkscape:cy="-128.64663"
     inkscape:window-width="1920"
     inkscape:window-height="1137"
     inkscape:window-x="-8"
     inkscape:window-y="-8"
     inkscape:window-maximized="1"
     inkscape:current-layer="g3397" /><defs
     id="defs1701" /><g
     inkscape:label="Calque 1"
     inkscape:groupmode="layer"
     id="layer1"
     transform="translate(-38.33381,-178.60946)"><g
       id="g3397"
       transform="translate(38.042195,-3.8932071)"><g
         id="g3503"
         inkscape:export-filename="anc.svg"
         inkscape:export-xdpi="96"
         inkscape:export-ydpi="96"><path
           style="fill:#b08972;stroke-width:0.264583"
           d="m 15.248518,216.70007 c -0.987943,-1.54825 -1.735871,-2.10222 -4.342177,-3.21618 -3.8810909,-1.65881 -6.316272,-3.6139 -8.1341019,-6.53049 -1.84238335,-2.95598 -2.30329977,-4.47796 -2.44751057,-8.08186 -0.13351627,-3.33663 0.0915391,-4.43116 1.51604007,-7.37304 1.5723472,-3.24721 3.2122217,-5.05905 6.196835,-6.84667 2.7054224,-1.6204 4.6049134,-2.14916 7.7204894,-2.14916 4.87351,0 8.251785,1.33269 11.51779,4.54364 3.271959,3.2168 4.742143,6.69091 4.73479,11.18851 -0.0045,2.74127 -0.498303,5.14137 -1.44032,7.00036 -2.059506,4.06423 -4.701239,6.43546 -9.216903,8.27313 -2.282547,0.92889 -3.431915,1.76976 -4.301136,3.1467 -0.360132,0.57048 -0.770861,1.03724 -0.912731,1.03724 -0.141869,0 -0.542849,-0.44648 -0.891065,-0.99218 z"
           id="path3401" /><path
           style="fill:#100f16;stroke-width:0.264583"
           d="m 7.1437501,199.5966 c 0,-5.55893 -0.1814267,-5.18768 2.5351811,-5.18768 h 1.6981518 v 5.02708 5.02709 H 9.2604168 7.1437501 Z m 2.6458333,2.22065 c 0,-0.35277 -0.1763889,-0.52916 -0.5291666,-0.52916 -0.3527777,0 -0.5291667,0.17639 -0.5291667,0.52916 0,0.35278 0.176389,0.52917 0.5291667,0.52917 0.3527777,0 0.5291666,-0.17639 0.5291666,-0.52917 z m 0,-2.38125 c 0,-0.35277 -0.1763889,-0.52916 -0.5291666,-0.52916 -0.3527777,0 -0.5291667,0.17639 -0.5291667,0.52916 0,0.35278 0.176389,0.52917 0.5291667,0.52917 0.3527777,0 0.5291666,-0.17639 0.5291666,-0.52917 z m 0,-2.38125 c 0,-0.35277 -0.1763889,-0.52916 -0.5291666,-0.52916 -0.3527777,0 -0.5291667,0.17639 -0.5291667,0.52916 0,0.35278 0.176389,0.52917 0.5291667,0.52917 0.3527777,0 0.5291666,-0.17639 0.5291666,-0.52917 z m 2.1166666,1.93744 v -5.4709 l 1.937433,-1.93744 c 1.065588,-1.06559 2.090309,-1.93743 2.277157,-1.93743 0.186849,0 1.220004,0.85356 2.295901,1.8968 l 1.956176,1.8968 v 5.51153 5.51154 h -1.045708 -1.045708 l -0.07877,-1.65365 -0.07877,-1.65365 H 16.139585 14.15521 l -0.07877,1.65365 -0.07877,1.65365 H 12.951958 11.90625 Z m 5.700568,-2.0577 c 1.312385,-1.31239 0.382435,-3.5839 -1.467235,-3.5839 -0.515507,0 -1.057861,0.24006 -1.467234,0.64943 -0.409374,0.40937 -0.649432,0.95173 -0.649432,1.46723 0,0.51551 0.240058,1.05786 0.649432,1.46724 0.409373,0.40937 0.951727,0.64943 1.467234,0.64943 0.515508,0 1.057862,-0.24006 1.467235,-0.64943 z m -3.054735,-1.46724 c 0,-0.14552 0.297657,-0.26458 0.661459,-0.26458 0.529166,0 0.661458,-0.13229 0.661458,-0.66146 0,-0.3638 0.119063,-0.66146 0.264583,-0.66146 0.145521,0 0.264584,0.41672 0.264584,0.92604 0,0.88195 -0.0441,0.92605 -0.926042,0.92605 -0.509323,0 -0.926042,-0.11907 -0.926042,-0.26459 z m 6.350001,3.96875 v -5.02708 h 1.698152 c 2.716608,0 2.535181,-0.37125 2.535181,5.18768 v 4.86649 H 23.01875 20.902084 Z m 2.645833,2.38125 c 0,-0.35277 -0.176389,-0.52916 -0.529167,-0.52916 -0.352777,0 -0.529166,0.17639 -0.529166,0.52916 0,0.35278 0.176389,0.52917 0.529166,0.52917 0.352778,0 0.529167,-0.17639 0.529167,-0.52917 z m 0,-2.38125 c 0,-0.35277 -0.176389,-0.52916 -0.529167,-0.52916 -0.352777,0 -0.529166,0.17639 -0.529166,0.52916 0,0.35278 0.176389,0.52917 0.529166,0.52917 0.352778,0 0.529167,-0.17639 0.529167,-0.52917 z m 0,-2.38125 c 0,-0.35277 -0.176389,-0.52916 -0.529167,-0.52916 -0.352777,0 -0.529166,0.17639 -0.529166,0.52916 0,0.35278 0.176389,0.52917 0.529166,0.52917 0.352778,0 0.529167,-0.17639 0.529167,-0.52917 z"
           id="path3399"
           sodipodi:nodetypes="sscccccssssssssssssssssccsssccccccccccccccssssssssssssssccssccccsssssssssssssss" /></g></g></g></svg>
