<?xml version="1.0" encoding="UTF-8" standalone="no"?>
<!-- Created with Inkscape (http://www.inkscape.org/) -->

<svg
   width="18.144569mm"
   height="18.144577mm"
   viewBox="0 0 18.144569 18.144577"
   version="1.1"
   id="svg5"
   xml:space="preserve"
   xmlns:inkscape="http://www.inkscape.org/namespaces/inkscape"
   xmlns:sodipodi="http://sodipodi.sourceforge.net/DTD/sodipodi-0.dtd"
   xmlns="http://www.w3.org/2000/svg"
   xmlns:svg="http://www.w3.org/2000/svg"><sodipodi:namedview
     id="namedview7"
     pagecolor="#ffffff"
     bordercolor="#000000"
     borderopacity="0.25"
     inkscape:showpageshadow="2"
     inkscape:pageopacity="0.0"
     inkscape:pagecheckerboard="0"
     inkscape:deskcolor="#d1d1d1"
     inkscape:document-units="mm"
     showgrid="false" /><defs
     id="defs2" /><g
     inkscape:label="Calque 1"
     inkscape:groupmode="layer"
     id="layer1"
     transform="translate(-85.803499,-206.12687)"><path
       style="fill:#000000;stroke-width:0.264583"
       d="m 96.227534,218.87199 c -1.232918,-1.24843 -1.34552,-1.45145 -0.975393,-1.75863 0.353585,-0.29345 0.518546,-0.25321 1.064415,0.2596 l 0.645983,0.60687 0.07386,-3.67689 0.07387,-3.67689 h 0.661458 0.661458 l 0.07387,3.67689 0.07386,3.67689 0.645983,-0.60687 c 0.545869,-0.51281 0.710831,-0.55305 1.064412,-0.2596 0.37013,0.30718 0.25753,0.5102 -0.97539,1.75863 -0.766604,0.77624 -1.461492,1.41136 -1.544194,1.41136 -0.0827,0 -0.777589,-0.63512 -1.544194,-1.41136 z m -4.805806,-2.60352 v -3.75028 l -0.612365,0.57529 c -0.705046,0.66235 -1.057254,0.71707 -1.463662,0.22737 -0.221792,-0.26724 0.04675,-0.67923 1.158228,-1.77689 l 1.446966,-1.429 1.455001,1.43693 c 1.283979,1.26803 1.409018,1.48291 1.063786,1.82814 -0.345231,0.34524 -0.469604,0.31758 -1.058126,-0.23531 l -0.666911,-0.62653 v 3.75028 3.75029 h -0.661459 -0.661458 z"
       id="path137" /><circle
       style="fill:none;stroke:#000000;stroke-width:1;stroke-linecap:round;stroke-linejoin:round;stroke-dasharray:none;paint-order:stroke fill markers"
       id="path245"
       cx="94.875786"
       cy="215.19916"
       r="8.5722876" /></g></svg>
