<?xml version="1.0" encoding="UTF-8" standalone="no"?>
<!-- Created with Inkscape (http://www.inkscape.org/) -->

<svg
   width="9.7059326mm"
   height="9.3504639mm"
   viewBox="0 0 9.7059326 9.3504639"
   version="1.1"
   id="svg5"
   xml:space="preserve"
   xmlns:xlink="http://www.w3.org/1999/xlink"
   xmlns="http://www.w3.org/2000/svg"
   xmlns:svg="http://www.w3.org/2000/svg"><defs
     id="defs2" /><g
     id="layer1"
     transform="translate(-193.83068,-144.78567)"><a
       id="a3894-3-2-6"
       xlink:href="#Change?E-1?262"
       transform="matrix(1.2911856,0,0,-1.2911856,-75.883157,332.07745)"><path
         id="path1907-4-7-7-7-9-2"
         style="display:inline;fill:#222222;fill-opacity:1;stroke:#ffffff;stroke-width:0.359049;stroke-linecap:round;stroke-linejoin:miter;stroke-miterlimit:4;stroke-dasharray:none;stroke-opacity:1;paint-order:markers fill stroke"
         d="m 211.16626,139.27577 h 0.94081 l -1e-5,0.94079 m -1.53305,0.60645 1.53306,-1.54724 m 2.68494,-0.22678 -0.014,1.10765 -1.07997,0.014 -0.0187,1.12589 h -1.1182 v 1.126 h -1.10836 l -0.002,1.117 -1.07997,0.014 m -0.57293,-5.56166 h 5.69832 c 0.40432,0 0.72985,0.32549 0.72985,0.72984 v 5.42302 c 0,0.40432 -0.32553,0.72985 -0.72985,0.72985 h -5.69832 c -0.40434,0 -0.72985,-0.32553 -0.72985,-0.72985 v -5.42302 c 0,-0.40435 0.32551,-0.72984 0.72985,-0.72984 z" /></a></g></svg>
